<svg id="Warstwa_1" data-name="Warstwa 1" xmlns="http://www.w3.org/2000/svg" viewBox="0 0 600.84 310.44"><path d="M430.67,172.05c-46.34,4.35-24.07-83-11.45-112.44a464,464,0,0,0-27.44-44L378.49,41.08c-8.28-4.63-21.93-1.9-28.9,2.33L336.4,22.53c-6.4,11.93-8,25.8-10.4,39-3.8,25-5.72,50.25-7.56,75.47-.67,2.29,0,16.33-2.16,15.42-2.23-1.28-1.71-4.9-2.18-7.28-.31-17.69,1.43-35.37,3.59-52.91,4.23-25.47,6-53.18,18.89-76l14.25,22.56c6.49-3,18.05-5.11,26.07-2.24L391.11,9.3c5.17,5.75,15.48,20.83,30,46.51,11.52-23.23,33.56-42.22,60.13-37.13,50.08,11.16,5.66,43.71,72.1,49.79,6.34.58,10.47.42,18.72,1.58.93.13,1.53,1.12,2.17,1.92,3.9,38.55-41.42,59.76-73.42,46.4-12.32-5.14-15.63-10.5-22.09-16.55-.65-.61-1.64-1.37-1.13-2.57.92-2.15,3.08-.1,3.82.51,9.09,7.37,18.86,16,31.79,17.71,28.52,6.08,60.43-16.37,57.95-43.79C475.4,69.9,532,35,480.67,22.15,454.55,17.26,434,36.67,423.23,59.66,438.51,89.74,477.29,167.67,430.67,172.05ZM421.38,63.59c-11.47,28.62-32.09,118.15,14.27,104.27C464.87,159.11,437.78,98.45,421.38,63.59Z"/><path d="M427.47,177.55c-11.81,0-18.58-5.7-22.25-10.75C388,143.14,403,85.41,413.28,60c-7.54-13.49-15.32-25.81-20.84-34L380.69,48.44l-4.81-2.69c-6.39-3.57-18-1.11-23.52,2.23l-4.49,2.72L337.32,34c-2.45,7.31-3.79,15.2-5.1,22.9q-.47,2.79-1,5.54c-3.61,23.72-5.46,47-7.5,74.92l-.15.94c-.1.68-.16,2.71-.21,4.21-.27,8.21-.54,12.25-3.8,14.35a5.82,5.82,0,0,1-5.39.47l-.61-.3c-4.09-2.36-4.43-7-4.61-9.41a13.69,13.69,0,0,0-.15-1.49l-.09-.92c-.34-18.56,1.54-36.76,3.62-53.66l0-.22c.8-4.81,1.53-9.83,2.23-14.69,3.11-21.5,6.33-43.74,17.28-63.06l4.41-7.77L353,32.21a47,47,0,0,1,21.1-1.89L389.92,0l5.16,5.72c5.75,6.39,15.05,20.45,26,39.21,17.58-28.3,42.6-35.07,61.21-31.5,26.15,5.82,30,18.07,33.18,27.9,3.22,10.12,6,18.85,38.4,21.82,2.23.2,4.18.31,6.15.42,3.61.2,7.35.41,12.82,1.18a8.16,8.16,0,0,1,5.37,3.58l1.22,1.53.16,1.57c1.75,17.25-5.53,33.27-19.95,44-17.19,12.75-41.65,15.93-60.85,7.91-10.72-4.47-15.47-9.31-20.06-14-1.15-1.17-2.32-2.36-3.63-3.59-3.8-3.48-3.12-6.86-2.39-8.57a6.75,6.75,0,0,1,4.63-4c3.54-.84,6.33,1.51,7.38,2.4l2,1.65c8.19,6.69,16.67,13.6,27.21,15l.41.07c13.48,2.87,28.6-1.33,39.47-11,7.28-6.46,11.46-14.31,12.07-22.49-51-2.74-58.59-14.87-63.58-31.56-2.55-8.53-4.57-15.28-22.75-19.85-23-4.22-40.83,13.46-50.33,32.23,18.59,36.86,37.59,81.24,25,104.11-4.43,8-12.17,12.64-23,13.65h0A36.74,36.74,0,0,1,427.47,177.55Zm-5.38-99.73a249.48,249.48,0,0,0-8.54,38.38c-3,22-1.33,37.72,4.66,44.27,1.25,1.37,5,5.52,15.91,2.26a10.93,10.93,0,0,0,7.34-6.36C448.64,140.28,432.83,101.51,422.09,77.82Zm-98.51,60.61v0Z"/><path d="M561.61,73.86a64.71,64.71,0,0,1,8.23.31l1.07.12c.12,0,1.26.23.37,0l.8.17c.62.14,0,0-.14-.05-.37-.21-1-1.75-.78-.89-.2-.86-.08-.1-.1.16,0,.11-.14,1.08,0,.35,0,.34-.11.68-.17,1a47,47,0,0,1-2.3,7.61c-.25.64-.55,1.29-.75,1.94l-.13.33q3.86-1.92,1.94-1.87c-.21,0-.46,0-.67,0l-1-.1c.82.11-.27-.06-.36-.08-.65-.13-1.29-.29-1.93-.48-.32-.09-.63-.2-.95-.31-.06,0-1.08-.42-.37-.13-.51-.21-1-.46-1.5-.72s-1-.59-1.53-.93c0,0-.73-.59-.32-.23s-.42-.39-.49-.46-.38-.4-.58-.6c-.6-.63.31.6-.1-.16-.11-.19-.23-.42-.35-.6-.29-.4.2.78,0,0a6,6,0,0,1-.18-.7s0,.88,0,0V77.3c0-.33,0-.33,0,0s0,.32,0,0l.12-.47c.15-.74-.41.61,0,0s-.07-.09,0,0,.31-.35.33-.33-.7.44,0,0c-.67.37.17,0,.33,0,.93-.26-.68,0,.29,0,.7,0,1.4-.09,2.1-.11q2,0,3.93.06c.72,0,1.43.09,2.14.16l.71.07h-.09c.81.25.42-.08-1.15-1,0-.07-.47-1.53-.24-1.45,0,.16-.09.32-.14.48.19-.43.23-.52.11-.28a13.18,13.18,0,0,0-1,1.92l-1.05,1.92-.53.95-.36.64c-.21.34-.18.34.09,0l1.55-.69c.49.08.54.06.14,0l-.27-.1c.4.17.41.17,0,0a19.12,19.12,0,0,1-1.79-1.06c-.56-.39-.09-.08,0,0-.3-.26-.6-.52-.88-.8l-.61-.66c-.25-.32-.25-.31,0,0a1.62,1.62,0,0,1-.29-.53l.49,1.81-.06.46-.93,1.58s-1.54.8-.78.48l-.18,0,.36,0c.55-.05,1.09-.09,1.64-.11a27.46,27.46,0,0,1,3.27.07L563,76.55c0,.38-.11.79.07,0,.06-.22.71-1,.24-.56a3.62,3.62,0,0,0,0,5.08,3.67,3.67,0,0,0,5.08,0,5.56,5.56,0,0,0,1.8-4.55A3.73,3.73,0,0,0,566.56,73a26.84,26.84,0,0,0-6.76.27,4.41,4.41,0,0,0-2.79,7,16.19,16.19,0,0,0,4.62,4.26c2.07,1.26,4.77,2.36,7.1,1.12,2-1.07,2.94-3.56,4-5.47s2.16-3.59,2.17-5.7a5,5,0,0,0-1.53-3.61,6.53,6.53,0,0,0-3.93-1.46,51.15,51.15,0,0,0-6.06-.32,17.1,17.1,0,0,0-6.53.86,7.7,7.7,0,0,0-4.21,4.51c-1.45,3.71.19,7.89,3,10.46a21.15,21.15,0,0,0,10.71,5c2.67.44,6,1,7.69-1.76a17.28,17.28,0,0,0,1.2-2.91c.37-1,.74-2,1.08-2.93A36.79,36.79,0,0,0,578,76c.45-2.88.5-5.9-2.29-7.67-2-1.27-4.78-1.26-7.08-1.45a67.71,67.71,0,0,0-7-.2,3.6,3.6,0,1,0,0,7.19Z"/><path d="M375.18,81.33c-8.24-.79-21.61,0-14.47,11.58C372.56,111.53,387.08,84.17,375.18,81.33ZM367.67,93.1h0Zm.1.08s0,0,0,0h0ZM369,94c.06,0,.17,0,.21.09Zm.6-.83h0Zm.59.55h0l.06,0S370.21,93.68,370.2,93.7Zm1.32-.43h0Zm.91-1h0Zm1-1.48a.13.13,0,0,1,0,0C373.66,90.44,373.52,90.75,373.46,90.82Z"/><path d="M367.64,93.14h0Z"/><path d="M367.75,93.23h0Z"/><path d="M369.22,94.14l-.21-.09C369.07,94.08,369.18,94.08,369.22,94.14Z"/><path d="M369.8,94.28l.08,0-.1,0Z"/><path d="M370.28,93.71s0,0-.06.05h0Z"/><path d="M370.9,93.66h0Z"/><path d="M371.58,93.3l0,0h0Z"/><path d="M372.5,92.32h0Z"/><path d="M373.54,90.83a.13.13,0,0,1,0,0C373.74,90.44,373.6,90.76,373.54,90.83Z"/><path d="M372.5,92.32h0Z"/><path d="M373.54,90.83a.13.13,0,0,1,0,0C373.74,90.44,373.6,90.76,373.54,90.83Z"/><path d="M367.64,93.14h0Z"/><path d="M367.75,93.23h0Z"/><path d="M369.22,94.14l-.21-.09C369.07,94.08,369.18,94.08,369.22,94.14Z"/><path d="M369.88,94.3l-.1,0Z"/><path d="M372.5,92.32h0Z"/><path d="M373.54,90.83a.13.13,0,0,1,0,0C373.74,90.44,373.6,90.76,373.54,90.83Z"/><path d="M476.5,100.05a5.92,5.92,0,0,0,2.26,4.2c1.17,1.08,2.38,2.12,3.61,3.12a95.89,95.89,0,0,0,7.81,5.77,2,2,0,1,0,2.06-3.53c-2.32-1.54-4.56-3.17-6.62-4.83-1.09-.88-2.15-1.79-3.19-2.71-.49-.43-1-.86-1.42-1.33,0,0-.28-.31-.17-.18s-.15-.23-.18-.27-.15-.21,0,0c-.05-.21-.06-.24-.05-.1s0,.11,0-.11a2,2,0,1,0-4.08,0Z"/><path d="M315.71,130.92a69.28,69.28,0,0,1-.52,11.06,2,2,0,0,0,2,2,2.1,2.1,0,0,0,2-2,68.14,68.14,0,0,0,.53-11.06,2,2,0,0,0-4.09,0Z"/><path d="M315.85,137.2q-.06,3.86-.1,7.71a19.69,19.69,0,0,1-1,6.91l3.42-.91c-.19-.17-.18-.16-.23-.32a6,6,0,0,1-.22-1c-.1-.62-.19-1.53-.25-2.27-.15-1.73-.21-3.46-.2-5.2,0-2.63-4.06-2.63-4.08,0a55.92,55.92,0,0,0,.27,6.07c.21,2,.29,4.19,1.82,5.63a2.07,2.07,0,0,0,3.41-.9,22.36,22.36,0,0,0,1.13-7.71c0-2.66.07-5.33.1-8s-4.05-2.63-4.08,0Z"/><path d="M319.94,139q.39-9.47.17-18.94c-.06-2.63-4.14-2.64-4.08,0q.21,9.47-.18,18.94c-.11,2.63,4,2.63,4.09,0Z"/><path d="M92.24,125.86c0,10.27.16,20.54.32,30.82,0,6.58-5.45,11.23-11.55,11.71-6.42.32-11.72-5.78-11.72-11.71-.48-30-.32-60,.16-90C63,45.77,89.51,42.72,104,42.08c11.39,0,23.59,3.37,31.45,12,8.19,9,10.28,21.18,6.74,32.74C136.38,106.28,113.91,125.06,92.24,125.86ZM119.85,80.6c1.6-6.26-.49-12.68-7.87-14.6-6.1-1.61-14-.49-19.1.32a.16.16,0,0,0-.16.16c-.16,12-.32,24.07-.48,36.27C103,101.79,116.64,91.51,119.85,80.6Z"/><path d="M154.6,95.88a241.24,241.24,0,0,1,1.29-40.29c.64-6.9.8-15.25,4.81-21.35,4.33-7.06,12.36-10.11,20.54-9.3,6.75.48,13.33,2.08,19.91,3.53,6.74,1.28,13.16,2.56,19.74,3.69,6.26,1.44,9.3,8.67,8.18,14.44-1.44,6.26-8.5,9.15-14.28,8-6.58-1.29-13-2.57-19.74-3.85-3.05-.65-6.1-1.13-9.31-1.77-6.74-1.12-5.94-1.93-6.74,5.62-.32,2.73-.48,5.78-.81,8.5-.32,5-.64,10.12-.64,15.25,5.14-.48,10.11-.8,15.25-1C199.22,77.1,204,82.88,204.36,89c.32,6.42-5.62,11.4-11.56,11.72-4.81.16-9.79.32-14.61.8.16,1.77.33,3.69.49,5.3a34,34,0,0,0,.32,3.85v.8a.56.56,0,0,0,.16.32v.16c.32,1.93,1,4,1.44,5.78a2.81,2.81,0,0,0,.64.8c.17,0,.17.17.33.17v.16a6.93,6.93,0,0,0,.8.16h3.21c.16,0,1.76-.32,1.76-.32q8.43-1.45,16.86-3.37c6.25-1.45,12,1.76,14.28,8,1.77,5.78-2.25,13.16-8.19,14.28-14.76,3.05-33.7,9.79-45.9-3-4.49-4.81-6.74-11.23-7.7-17.49C155.72,109.84,154.92,102.94,154.6,95.88ZM179,110.64c.48,1.12.32,1.77.16,1.12C179.16,111.44,179,111,179,110.64Zm2.24,7.7a.7.7,0,0,1-.48-.16A1.24,1.24,0,0,1,181.24,118.34Zm.17.33,0,.16.16,0c.16,0,.32.16.48.16A.7.7,0,0,0,181.57,118.83Zm1.12.16c.16.16.48.16.32.16A.5.5,0,0,1,182.69,119Z"/><path d="M227.08,71.37c-.16-5.93,5.62-11.87,11.56-11.39a395.21,395.21,0,0,0,51.52-.48c6.42-.64,11.39,5.78,11.55,11.55.32,6.58-5.45,11.08-11.55,11.56-5.94.48-11.88.8-18.14,1-2.08,25.68-3.69,51.52-4.81,77.2a11.86,11.86,0,0,1-11.56,11.72c-6.1.32-11.88-5.46-11.55-11.72,1-25.84,2.56-51.52,4.81-77.36-3.37,0-6.74-.16-10.27-.48A11.83,11.83,0,0,1,227.08,71.37Z"/><path d="M23.78,239c0,10.27.16,20.54.32,30.81,0,6.58-5.46,11.24-11.56,11.72C6.12,281.85.83,275.75.83,269.81c-.49-30-.33-60,.16-90-6.42-20.87,20.06-23.92,34.5-24.56,11.4,0,23.59,3.37,31.46,12,8.18,9,10.27,21.18,6.74,32.74C67.91,219.42,45.44,238.2,23.78,239Zm27.6-45.26c1.61-6.26-.48-12.68-7.86-14.61-6.1-1.6-14-.48-19.1.32a.16.16,0,0,0-.16.17c-.16,12-.32,24.07-.48,36.27C34.53,214.92,48.17,204.65,51.38,193.74Z"/><path d="M150.43,152.29a48.65,48.65,0,0,1,21,26.64c5.62,18-.32,38.68-13.64,51.68C143,244.74,120.25,249.39,102,239c-18.14-10.43-24.72-33.54-18-52.8C92.65,160.16,121.22,134.16,150.43,152.29Zm-1,44.78c2.73-17.17-13.48-35.15-28.72-23.43a38.38,38.38,0,0,0-14.29,19.42c-2.73,8-1.12,15.24,3,20.54,7.7,10.43,23.59,9.47,32.74-.16C146.42,209.27,148.5,203.65,149.46,197.07Z"/><path d="M206.83,277c.16,6.58-5.46,11.4-11.55,11.56-6.26.32-11.4-5.46-11.56-11.56-.48-31.45-1.93-62.91-3.69-94.37-.32-6.42,5.62-11.23,11.56-11.55a10.4,10.4,0,0,1,7.38,2.56A62.2,62.2,0,0,1,226.09,178c15.25,6.1,25.52,21,24.88,37.55-.48,14.77-9.31,27.61-21.35,36.76,3.21,1,6.42,1.76,9.79,2.57,6.26,1.76,9.31,8.34,8,14.28-1.29,6.26-8.19,9.63-14.29,8.18-8.82-2.4-17.65-5-26.48-8.34C206.67,271.52,206.83,274.25,206.83,277Zm13.64-75.91c-4.33-2.57-10.11-3.53-16.21-4.49h-.16c.65,14.12,1.29,28.08,1.77,42.21A33.81,33.81,0,0,0,221,229.47C227.7,222.08,231.39,207.48,220.47,201.06Z"/><path d="M255,186.14c-.16-5.94,5.62-11.88,11.56-11.4a395.19,395.19,0,0,0,51.52-.48c6.42-.64,11.4,5.78,11.56,11.55.32,6.58-5.46,11.08-11.56,11.56-5.94.48-11.88.8-18.14,1-2.08,25.68-3.69,51.52-4.81,77.2a11.86,11.86,0,0,1-11.56,11.72c-6.1.32-11.88-5.46-11.55-11.72,1-25.84,2.56-51.52,4.81-77.36-3.37,0-6.74-.16-10.27-.48A11.82,11.82,0,0,1,255,186.14Z"/><path d="M361.09,256.48c.16,6.58-5.46,11.39-11.56,11.55-6.26.32-11.39-5.45-11.55-11.55-.49-31.46-1.93-62.92-3.7-94.37-.32-6.42,5.62-11.24,11.56-11.56a10.33,10.33,0,0,1,7.38,2.57,62.21,62.21,0,0,1,27.13,4.33c15.24,6.1,25.52,21,24.87,37.56-.48,14.76-9.31,27.6-21.34,36.75,3.21,1,6.42,1.77,9.79,2.57,6.26,1.76,9.31,8.34,8,14.28-1.28,6.26-8.18,9.63-14.28,8.19-8.83-2.41-17.66-5-26.48-8.35C360.93,251,361.09,253.75,361.09,256.48Zm13.64-75.92c-4.33-2.56-10.11-3.53-16.21-4.49h-.16c.64,14.12,1.28,28.09,1.76,42.21A33.67,33.67,0,0,0,375.21,209C382,201.59,385.64,187,374.73,180.56Z"/><path d="M488.7,291.21c1.77,6.1-2.09,12.2-8.18,14.29-6.1,1.92-12.52-2.41-14.29-8.19-1.28-4.49-2.73-8.83-4-13.32a28.28,28.28,0,0,1-3.21,1.44c-9.79,2.73-19.58,5.46-29.21,8.35-.48,2.73-1.12,5.46-1.44,8.18-1.13,6.42-8.67,9.47-14.45,8.19-6.42-1.61-9.15-8.35-8-14.28,2.56-15.25,5.45-30.34,8.5-45.26,2.57-13.17,4.66-26.65,9.95-39,1.61-4.33,3.69-8.5,7.87-10.91a15.61,15.61,0,0,1,14.12-1c7.22,3.05,10.43,10.43,13.64,17.17A461.34,461.34,0,0,1,488.7,291.21Zm-34.19-28.73a306.85,306.85,0,0,0-12.67-29.37c-2.73,10.43-4.5,21.35-6.58,32.1-.16,1-.32,1.93-.49,2.73,5.94-1.61,12-3.37,18-5.14A6.8,6.8,0,0,1,454.51,262.48Z"/><path d="M497.16,259.39c-6.26.32-11.88-5.62-11.72-11.72.64-18.94,1.45-38,1.93-57.14A11.6,11.6,0,0,1,498.92,179c6.1-.32,11.72,5.45,11.56,11.55-.64,19.1-1.13,38.2-1.77,57.14C508.55,254.25,503.58,258.9,497.16,259.39Zm-9-102.72C488,150.25,493.79,145,499.72,145c6.58,0,11.4,5.3,11.56,11.72.32,6.26-5.46,11.55-11.56,11.55C493.3,168.22,488.49,162.93,488.17,156.67Z"/><path d="M526.2,166.05c-.16-5.94,5.62-11.88,11.56-11.4a391.72,391.72,0,0,0,51.52-.48c6.42-.64,11.39,5.78,11.55,11.56.32,6.58-5.45,11.07-11.55,11.55-5.94.49-11.88.81-18.14,1-2.09,25.68-3.69,51.52-4.82,77.2a11.85,11.85,0,0,1-11.55,11.71c-6.1.32-11.88-5.46-11.56-11.71,1-25.84,2.57-51.52,4.82-77.36-3.37,0-6.74-.16-10.27-.49A11.82,11.82,0,0,1,526.2,166.05Z"/></svg>