<svg preserveAspectRatio="none" viewBox="0 0 2237 1447" fill="none" xmlns="http://www.w3.org/2000/svg">
<g clip-path="url(#clip0_366_287)">
<path d="M1669.73 292.814C1796.43 292.447 1902.61 244.218 2052.1 329.187C2131.4 374.524 2211.99 440.289 2292.2 470.858C2387.3 507.007 2477.43 498.969 2545.49 466.02C2617.88 431.148 2672.63 375.809 2721.9 314.361L1960.3 -584.242L1273.7 -1.52835C1370.81 152.591 1532.72 293.314 1669.73 292.814Z" fill="#F49C83"/>
<path d="M-75.267 136.736C-52.7992 136.736 -32.8971 150.148 -11.6181 155.495C-1.10812 158.212 9.90323 158.412 20.5065 156.078C31.4462 153.693 41.7738 149.209 52.1486 145.18C62.1526 141.256 72.6685 137.226 83.5376 136.614C94.4066 136.002 104.946 139.285 114.991 143.104C135.429 150.854 155.307 161.402 177.893 158.009C200.031 154.65 219.409 141.244 241.636 138.579C263.615 135.949 283.67 148.492 303.637 155.489C313.888 159.087 324.74 161.519 335.662 160.423C346.76 159.303 357.264 155.618 367.598 151.635C377.931 147.652 388.371 143.256 399.346 141.017C409.856 138.871 420.031 140.206 430.176 143.349C450.949 149.763 470.88 162.405 493.331 161.659C516.081 160.907 535.759 147.763 557.232 141.961C562.205 140.566 567.332 139.782 572.497 139.629C579.065 139.483 578.971 129.366 572.386 129.506C549.565 130.013 529.898 142.853 508.478 148.918C498.144 151.833 488.058 152.288 477.595 149.711C466.849 147.063 456.698 142.538 446.447 138.486C436.302 134.48 425.962 130.905 415.017 129.949C404.071 128.993 392.973 131.646 382.622 135.197C362.461 142.13 341.917 153.927 319.902 149.577C298.176 145.267 279.298 131.885 257.225 128.789C234.486 125.593 214.266 136.369 193.423 143.53C183.213 147.028 172.526 149.74 161.645 148.294C150.935 146.865 140.725 142.667 130.809 138.602C120.658 134.433 110.407 130.019 99.5969 127.809C88.7867 125.599 78.2119 126.299 67.6489 129.133C46.6111 134.777 26.456 148.375 4.05879 147.705C-18.3384 147.034 -38.111 133.261 -59.5901 128.444C-64.7703 127.256 -70.0676 126.642 -75.3847 126.613C-81.9579 126.613 -81.8578 136.736 -75.267 136.736V136.736Z" fill="#EC6915"/>
<g clip-path="url(#clip1_366_287)">
<path d="M383.383 1150.43C384.992 1150.83 383.151 1154.82 381.49 1155.9C387.157 1154.06 383.33 1158.45 390.193 1151.28C394.883 1148.92 391.954 1155.31 387.627 1156.86L395.856 1156.02L394.378 1152.68C400.579 1147.17 396.737 1158.02 403.965 1151.56L398.854 1148.15L400.912 1146.32C397.904 1147.61 396.697 1144.89 396.769 1143.44C397.781 1142.52 399.172 1140.8 400.143 1141.34C395.069 1136.04 389.083 1150.82 382.741 1148.89C383.157 1148.99 383.432 1149.39 383.383 1150.43Z" fill="#F9E0D0"/>
<path d="M391.992 1131.16L383.278 1137.27L381.8 1132.44C379.431 1135.11 375.207 1135.24 374.747 1139C375.417 1138.86 376.723 1138.58 377.009 1139.26C371.609 1144.78 370.239 1138.46 366.128 1145.18C369.979 1145.84 369.25 1147.46 374.902 1144.08C375.793 1145.27 376.401 1146.65 376.677 1148.11C376.953 1149.58 376.892 1151.09 376.497 1152.52C377.944 1152.24 381.16 1148.77 382.656 1148.82C382.382 1148.76 382.117 1148.66 381.867 1148.53L389.411 1139.73C387.069 1140.93 387.139 1139.45 386.161 1138.92L398.871 1132.04C404.771 1122.82 396.832 1124.3 398.295 1119.58C393.726 1128.61 393.618 1121.99 391.992 1131.16Z" fill="#F9E0D0"/>
<path d="M382.629 1148.83L382.745 1148.9L382.629 1148.83Z" fill="#F9E0D0"/>
<path d="M49.5787 988.546C48.6191 988.145 46.812 990.217 45.8977 991.267L55.6326 997.684C57.0558 994.964 56.422 989.958 59.2863 989.721C60.3702 986.374 56.235 987.034 53.5199 990.187L56.8409 986.832C51.2685 990.219 56.3694 979.55 59.7945 977.644L59.5713 977.57L40.4873 992.232C42.0081 994.866 46.7058 986.904 49.5787 988.546Z" fill="#F9E0D0"/>
<path d="M36.0306 995.663L30.0359 1000.22C32.1987 998.929 34.2097 997.401 36.0306 995.663V995.663Z" fill="#F9E0D0"/>
<path d="M110.896 914.886C111.146 914.562 111.369 914.219 111.564 913.859L108.646 916.295C109.44 915.859 110.173 915.383 110.896 914.886Z" fill="#F9E0D0"/>
<path d="M159.668 898.602L151.587 901.406C153.984 899.097 151.389 898.512 154.42 895.972C153.803 896.187 151.562 896.222 151.05 897.886L152.024 898.28C144.446 904.62 143.747 908.563 135.963 912.031C135.095 918.254 139.012 914.676 142.662 911.927C143.259 911.734 143.879 911.621 144.505 911.593L155.505 902.997L159.668 898.602Z" fill="#F9E0D0"/>
<path d="M40.2311 991.078C38.9566 992.714 37.5481 994.24 36.0201 995.642L40.5047 992.198C40.3602 991.84 40.2681 991.462 40.2311 991.078Z" fill="#F9E0D0"/>
<path d="M55.2471 976.205L59.6022 977.564L63.7144 974.399C61.2817 974.987 58.9524 974.945 55.2471 976.205Z" fill="#F9E0D0"/>
<path d="M-20.6485 995.789C-29.0122 991.726 -12.3821 987.959 -14.2515 983.342C-17.0856 982.974 -20.8926 986.747 -23.1594 987.18C-14.5728 987.739 -34.0713 1000.91 -26.4199 1002.86C-32.7909 1010.16 -36.8185 1008.35 -37.3676 1004.73C-34.3339 995.516 -31.4108 1000.66 -25.6504 993.624C-28.9382 993.129 -29.4888 994.802 -33.5072 998.274C-36.0538 993.798 -47.9867 1001.87 -42.7808 989.832C-46.719 989.517 -49.1212 993.24 -53.5231 996.046C-59.6282 1003.85 -52.4376 1003.23 -55.9583 1010.3C-55.6029 1009.03 -55.0085 1007.83 -54.2068 1006.78L-53.0275 1010.19C-53.2896 1005.75 -46.9463 1002.37 -45.2849 1002.61C-44.2816 1003.06 -42.2782 1003.97 -44.1093 1006.03L-46.6842 1006.81C-46.7714 1010.6 -38.6964 1003.64 -39.9922 1009.32C-41.1799 1011.21 -42.4736 1011.56 -43.3676 1012.64C-37.4111 1008.58 -35.6849 1010.33 -29.9278 1008.51L-37.3359 1015.31C-28.6577 1008.12 -25.0128 1014.44 -24.5218 1021.79C-23.9922 1020.12 -24.068 1018.64 -22.5277 1017.42C-18.9587 1017.04 -21.1508 1023.74 -25.146 1027.26C-18.3153 1022.09 -20.793 1038.68 -11.7636 1032.04L30.1134 1000.31C29.1783 1000.93 28.1059 1001.32 26.9882 1001.44C30.6621 993.502 29.4155 993.921 36.1613 988.678C31.4792 991 28.3493 997.251 24.997 995.391C28.6919 992.664 34.6231 984.743 32.2027 981.816C19.7933 983.66 0.76047 1000.31 -13.5057 1005.58C-9.95694 999.964 -16.5731 997.623 -18.3932 994.429C-13.2544 989.314 -10.0853 989.052 -7.17658 989.325C-8.21783 988.047 -10.3525 986.32 -11.8367 984.902L-20.6485 995.789Z" fill="#F9E0D0"/>
<path d="M9.77167 989.788C9.88787 989.321 9.93075 988.839 9.89877 988.359C9.67995 988.803 9.63463 989.313 9.77167 989.788Z" fill="#F9E0D0"/>
<path d="M46.9739 977.501C48.494 976.249 49.1278 976.035 50.6586 974.77C50.0334 975.074 49.3866 975.332 48.7234 975.542C47.9296 975.97 47.3107 976.663 46.9739 977.501V977.501Z" fill="#F9E0D0"/>
<path d="M41.8451 988.165L40.0619 990.252C40.093 990.532 40.1496 990.809 40.231 991.079C40.9673 990.232 41.5172 989.239 41.8451 988.165Z" fill="#F9E0D0"/>
<path d="M-22.4956 980.634C-19.5232 981.981 -16.4412 972.774 -12.7415 975.368L-13.4684 974.103C-8.39476 972.554 -4.87278 977.337 -1.53926 979.266C-4.18124 982.23 -2.40096 984.527 -6.29131 989.299C-3.31746 989.6 -0.397279 989.988 4.3291 985.573C4.47746 988.199 9.67856 985.04 9.87771 988.369C11.2873 984.825 19.475 979.736 12.7597 980.6C13.3755 980.42 13.6527 979.578 14.2791 979.384C14.6018 973.291 8.51824 979.753 6.16782 978.257C6.87338 974.328 11.7832 974.961 11.3191 972.879C6.56231 973.671 4.95822 963.057 -2.79916 974.437C-5.42341 973.79 -3.95932 971.101 -3.13196 968.604C-14.8923 978.322 -11.5762 954.797 -22.4391 970.131C-20.8159 970.38 -19.0927 972.105 -15.0187 970.088L-22.4956 980.634Z" fill="#F9E0D0"/>
<path d="M42.0757 975.32C41.9831 975.125 41.722 975.043 41.6783 974.824C41.7827 975.01 41.917 975.178 42.0757 975.32V975.32Z" fill="#F9E0D0"/>
<path d="M44.1233 1042.69L36.1312 1052.09C28.2765 1050.28 27.9449 1045.86 22.1999 1042.54C22.375 1041.98 22.691 1041.47 23.1179 1041.07C23.5447 1040.66 24.068 1040.37 24.6379 1040.23C20.0081 1038.78 15.7387 1032.72 9.75483 1035.46C8.58494 1034.54 7.61395 1029.13 10.8747 1026.98C9.66818 1027.47 8.39434 1027.87 7.92702 1027.08C10.2609 1023.32 10.1777 1027.08 12.2759 1024.16C11.905 1023.56 12.1825 1022.7 11.2465 1023.79C14.3319 1021.28 18.7821 1010.81 22.8433 1013.97C18.636 1023.58 19.2348 1012.94 13.7501 1022.96C15.1104 1024.02 17.4479 1020.25 18.3556 1019.19C19.995 1020.63 18.3312 1022.95 16.7627 1025.02C19.4418 1022.59 18.9154 1028.18 22.8985 1024.41C26.8739 1026.07 17.8738 1031.32 20.2216 1032.78L28.048 1024.18L30.5931 1028.56C38.3463 1028.97 41.0614 1011.62 50.9662 1010.5C46.7586 1014.91 43.562 1024.96 45.1479 1028.92C43.1674 1028.08 35.7186 1032.07 35.4032 1027.7C33.4775 1037.33 30.4344 1025.61 26.2437 1035.26C30.5691 1032.31 33.5541 1033.55 34.1007 1037.13L32.8368 1037.55C34.3156 1040.04 42.7449 1031.22 43.1361 1037.06C44.8221 1037.77 42.7191 1040.27 40.9436 1042.31C43.1696 1041.69 45.5543 1040.58 44.1233 1042.69ZM39.5532 1042.5L38.2089 1040.19C37.6124 1042.07 38.3874 1042.53 39.5532 1042.5Z" fill="#F9E0D0"/>
<path d="M364.65 1109.87L364.642 1111.06C364.728 1110.87 364.773 1110.67 364.774 1110.46C364.776 1110.26 364.733 1110.05 364.65 1109.87V1109.87Z" fill="#F9E0D0"/>
<path d="M193.535 977.957L194.466 979.056C194.4 978.816 194.282 978.594 194.121 978.404C193.961 978.214 193.761 978.062 193.535 977.957V977.957Z" fill="#F9E0D0"/>
<path d="M240.909 964.356L244.136 963.331C243.396 962.98 242.237 963.529 240.909 964.356Z" fill="#F9E0D0"/>
<path d="M351.996 1098.42L351.988 1098.31C351.786 1098.42 351.579 1098.52 351.366 1098.61L351.996 1098.42Z" fill="#F9E0D0"/>
<path d="M277.305 1023.08C276.99 1023.95 276.806 1024.87 276.757 1025.8C277.033 1025.41 277.224 1024.96 277.319 1024.5C277.413 1024.03 277.409 1023.54 277.305 1023.08V1023.08Z" fill="#F9E0D0"/>
<path d="M240.31 964.554L240.298 964.799L240.937 964.342L240.31 964.554Z" fill="#F9E0D0"/>
<path d="M201.109 942.435C200.642 942.551 200.183 942.697 199.734 942.873C200.229 942.886 200.713 942.732 201.109 942.435V942.435Z" fill="#F9E0D0"/>
<path d="M184.348 970.511C183.87 970.573 183.409 970.728 182.99 970.967L184.348 970.511Z" fill="#F9E0D0"/>
<path d="M157.439 925.147L154.971 925.461C155.377 925.614 155.814 925.665 156.244 925.611C156.674 925.556 157.084 925.396 157.439 925.147V925.147Z" fill="#F9E0D0"/>
<path d="M184.536 961.496L183.416 962.635C183.912 962.4 184.309 961.997 184.536 961.496V961.496Z" fill="#F9E0D0"/>
<path d="M351.98 1143.89L351.867 1143.85L350.967 1144.84L351.98 1143.89Z" fill="#F9E0D0"/>
<path d="M366.346 1134.06C366.987 1134.15 367.62 1134.31 368.232 1134.43C367.984 1134.2 367.675 1134.05 367.342 1133.98C367.009 1133.91 366.664 1133.94 366.346 1134.06V1134.06Z" fill="#F9E0D0"/>
<path d="M288.698 1054.37C288.117 1056.01 287.868 1058.32 286.304 1059.51C288.501 1058.16 291.92 1053.44 288.698 1054.37Z" fill="#F9E0D0"/>
<path d="M298.841 1193.5C299.875 1192.63 300.964 1191.82 302.1 1191.09C300.508 1192 299.193 1192.69 298.841 1193.5Z" fill="#F9E0D0"/>
<path d="M302.113 1191.12L304.521 1189.74C303.689 1190.15 302.884 1190.61 302.113 1191.12V1191.12Z" fill="#F9E0D0"/>
<path d="M222.092 1123.92C222.457 1123.2 222.688 1122.57 222.608 1122.26C221.74 1123.57 221.704 1123.96 222.092 1123.92Z" fill="#F9E0D0"/>
<path d="M368.026 1136.69C370.016 1134.79 379.42 1135.09 375.691 1129.96C381.423 1123.62 381.252 1129.56 383.873 1129.05C384.278 1126.74 387.908 1125.28 389.625 1122.73C388.327 1122.97 385.988 1124.19 385.388 1122.82C387.451 1119.44 390.746 1118.8 391.028 1121C392.463 1116.26 397.369 1117.54 397.485 1113.05C390.924 1111.37 385.73 1110.78 374.412 1117.72C378.38 1118.26 382.892 1118.92 382.78 1123.36L377.094 1128.2C378.909 1121.2 374.331 1123.52 372.38 1121.08L375.136 1128.6C373.594 1135.43 371.026 1135.06 368.257 1134.43C368.62 1134.89 368.75 1135.62 368.026 1136.69Z" fill="#F9E0D0"/>
<path d="M322.648 1183.18L322.595 1183.41C322.831 1183.3 323.056 1183.17 323.267 1183.02L322.648 1183.18Z" fill="#F9E0D0"/>
<path d="M73.773 1049.1L71.7151 1051.09C72.539 1050.59 73.2415 1049.91 73.773 1049.1V1049.1Z" fill="#F9E0D0"/>
<path d="M342.656 1153.29C342.58 1153.32 342.567 1153.31 342.656 1153.29V1153.29Z" fill="#F9E0D0"/>
<path d="M85.2875 1057.67L84.8729 1058.14C85.0387 1057.99 85.1567 1057.8 85.2875 1057.67Z" fill="#F9E0D0"/>
<path d="M177.955 927.941C178.12 927.64 178.292 927.37 178.437 927.045C178.345 927.069 178.258 927.112 178.183 927.171C178.108 927.23 178.046 927.304 178.001 927.388C177.956 927.472 177.928 927.564 177.92 927.659C177.912 927.755 177.924 927.85 177.955 927.941V927.941Z" fill="#F9E0D0"/>
<path d="M85.6864 1057.1L85.2872 1057.66C85.4322 1057.49 85.5656 1057.3 85.6864 1057.1Z" fill="#F9E0D0"/>
<path d="M158.283 1073.83C158.283 1073.83 158.823 1072.66 159.228 1071.45C158.636 1072.1 158.3 1072.95 158.283 1073.83Z" fill="#F9E0D0"/>
<path d="M153.199 1057.09L153.455 1056.28L153.199 1057.09Z" fill="#F9E0D0"/>
<path d="M305.773 1025.58C305.568 1025.36 305.322 1025.18 305.048 1025.07C304.774 1024.95 304.478 1024.89 304.18 1024.88C304.346 1025.15 304.586 1025.35 304.87 1025.48C305.154 1025.6 305.469 1025.63 305.773 1025.58Z" fill="#F9E0D0"/>
<path d="M84.8935 1058.13C84.2635 1058.77 83.5866 1059.36 82.8683 1059.89C83.5929 1059.36 84.2705 1058.78 84.8935 1058.13V1058.13Z" fill="#F9E0D0"/>
<path d="M196.693 1055.1L195.885 1055.52L195.88 1055.96L196.693 1055.1Z" fill="#F9E0D0"/>
<path d="M199.457 1063.66C198.817 1064.2 198.207 1064.78 197.629 1065.39C201.49 1064.33 203.421 1069.76 208.401 1063.64C207.582 1063.3 206.538 1056.94 209.814 1053.62C207.215 1054.2 208.207 1048.17 206.675 1048.67C206.62 1053.88 203.134 1054.29 199.983 1055.33C199.827 1052.41 203.888 1050.33 203.469 1048.24L199.546 1046.56L201.935 1049.5L196.697 1055.07L197.414 1054.69C204.466 1055.35 191.496 1064.08 199.457 1063.66Z" fill="#F9E0D0"/>
<path d="M197.639 1065.41C196.96 1065.6 196.324 1065.93 195.766 1066.36C196.317 1066.61 196.93 1066.09 197.639 1065.41Z" fill="#F9E0D0"/>
<path d="M210.823 1090C211.353 1089.96 211.875 1089.85 212.376 1089.67C212.062 1089.78 211.471 1089.8 210.823 1090Z" fill="#F9E0D0"/>
<path d="M65.5571 977.171C64.3793 979.073 64.7573 984.893 67.9819 980.052C67.4623 978.955 66.9328 977.837 66.3581 976.731L65.5571 977.171Z" fill="#F9E0D0"/>
<path d="M285.808 1103.14C285.613 1102.77 285.305 1102.48 284.931 1102.3L284.196 1102.88C283.885 1103.7 285.168 1103.32 285.808 1103.14Z" fill="#F9E0D0"/>
<path d="M212.298 1052.04C211.355 1052.36 210.505 1052.91 209.824 1053.64C210.781 1053.34 211.637 1052.79 212.298 1052.04V1052.04Z" fill="#F9E0D0"/>
<path d="M277.635 1114.27C276.934 1116.35 275.994 1118.35 274.833 1120.21C275.607 1120.88 278.031 1118.91 279.526 1118.68C278.072 1118.63 277.346 1117.31 277.635 1114.27Z" fill="#F9E0D0"/>
<path d="M65.1833 973.925C64.699 974.116 64.2025 974.274 63.697 974.398L64.9869 973.402L63.9445 970.549C63.5083 970.707 63.0443 970.773 62.5816 970.742C63.0157 970.481 63.397 970.14 63.7058 969.738L63.4366 968.736C58.4146 972.581 51.8828 973.435 48.7022 975.55C45.6924 976.618 42.9903 976.547 42.0549 975.33C43.0914 976.182 45.2314 976.186 46.6789 973.138C46.4124 968.745 51.0028 959.816 42.3011 964.198L44.621 965.666L32.2215 972.751C33.5027 967.111 38.4123 969.226 41.7921 965.869C34.23 968.358 40.6697 952.099 32.4705 960.018C35.9987 954.391 41.8985 945.012 38.9518 943.756C36.4731 951.256 34.6308 946.66 31.5252 954.372C28.4332 956.874 30.0154 950.406 27.0239 954.366L28.845 952.288C30.4753 940.611 19.5935 953.088 14.5905 956.196C7.75565 954.712 7.79606 949.54 2.88793 947.357C5.28022 943.612 11.1998 932.812 9.23327 931.964C4.95466 936.295 -0.518041 935.791 -5.40201 941.77C-4.20424 946.594 0.859697 938.322 3.73608 938.165C0.579405 945.841 -0.756674 944.771 -1.46653 950.208C-1.32785 946.437 -11.5459 948.14 -8.98105 940.659L-7.70721 940.261C-7.97715 934.398 2.60629 918.545 -9.02349 924.384L-14.1203 926.535C-13.5277 925.98 -13.0112 925.264 -12.5509 924.755C-15.8772 921.342 -9.69994 915.025 -17.9826 917.582C-17.3459 917.391 -17.0482 916.557 -16.4151 916.377C-16.2493 911.163 -23.7616 916.359 -26.6303 916.478C-23.9242 910.488 -22.6197 911.581 -19.194 908.34C-21.8796 903.245 -32.9215 908.754 -40.2184 913.086L-40.6685 908.053C-37.4749 907.121 -31.4786 903.149 -29.6554 899.665C-31.8943 899.597 -33.4268 902.249 -34.7729 899.695C-31.9423 896.641 -28.7808 894.287 -24.718 890.837C-24.8966 882.132 -34.4059 901.789 -29.861 889.458C-31.1654 888.365 -35.5492 892.6 -38.6801 896.447L-37.2244 889.423C-41.2997 894.274 -44.5597 892.302 -47.1369 891.555C-49.0286 893.539 -49.6028 898.124 -47.3747 896.743C-50.5158 900.586 -54.0551 900.86 -55.3559 899.756C-47.819 888.831 -65.3512 894.379 -54.2524 883.246C-62.8927 881.959 -72.1999 876.409 -79.6349 877.632C-78.6676 873.75 -81.2405 871.494 -75.76 867.878C-80.5896 864.108 -91.5004 872.567 -94.0035 865.871C-93.3503 864.252 -91.7847 867.541 -89.1747 863.967C-95.6178 865.533 -91.2522 854.973 -98.2731 853.782C-97.3116 854.259 -95.3383 852.34 -94.3531 851.368C-95.6629 853.135 -99.2165 853.271 -101.812 853.894C-101.782 852.442 -99.8697 853.427 -99.1886 851.794C-104.382 839.433 -122.955 847.245 -131.633 838.744C-129.153 841.146 -122.437 835.351 -120.07 832.655L-122.463 830.365C-126.307 832.83 -128.191 831.164 -131.934 832.237C-131.043 830.83 -130.641 828.825 -128.489 827.951C-127.561 816.941 -146.896 833.134 -150.031 824.324L-130.825 817.598L-128.554 811.429L-119.995 808.227C-118.67 802.934 -127.774 809.861 -123.592 804.694C-121.941 803.647 -121.371 804.942 -118.95 802.288C-119.026 798.73 -122.476 802.3 -124.712 802.059C-112.06 795.145 -105.223 801.403 -99.2756 802.204C-97.9833 801.917 -101.918 804.227 -102.934 805.171C-101.092 806.207 -102.933 810.177 -99.4533 810.102C-94.5228 806.823 -97.6297 806.114 -98.1831 804.819C-94.7765 801.175 -94.4787 801.804 -92.9724 802.186C-97.0693 807.406 -88.6992 809.044 -92.5688 816.424C-85.4437 819.713 -82.4252 802.569 -78.6193 809.451L-81.8076 816.663C-74.7307 814.883 -67.1791 814.358 -64.4976 818.667L-65.47 818.221C-68.0448 820.297 -68.4523 822.562 -69.1257 824.156C-68.3537 829.002 -60.0109 823.934 -63.0871 831.238C-54.817 827.643 -45.7444 827.296 -39.3785 826.922C-44.571 835.555 -49.5486 829.792 -54.9713 833.459L-51.5355 836.109C-53.7297 834.582 -56.9526 836.897 -61.7474 840.3C-59.9174 844.166 -53.4442 838.075 -49.0163 838.287C-50.9352 840.249 -51.5987 841.865 -50.3251 842.947L-45.816 838.019C-45.9876 838.246 -46.1072 838.507 -46.1663 838.785C-46.2254 839.063 -46.2225 839.351 -46.1578 839.628L-38.5951 840.373C-37.9144 837.295 -34.398 832.709 -35.6407 831.638C-37.5694 835.043 -39.151 834.791 -40.3897 833.692C-36.5609 831.175 -39.4084 829.804 -37.1506 827.021C-34.6622 829.188 -30.9107 830.97 -28.0942 830.867L-31.3379 836.119C-29.8354 839.293 -25.0812 838.622 -24.4924 841.347L-26.9892 843.498C-25.1757 847.328 -19.8193 846.466 -20.7798 853.289C-13.8424 849.769 -6.90706 847.654 -0.30792 843.455C5.60548 838.007 1.68061 857.302 11.3604 850.65C11.0626 851.485 5.73281 853.866 2.91131 855.512C4.22067 858.006 11.6913 851.349 7.36732 858.474C4.47541 852.836 3.66526 863.987 0.200301 864.346C1.39876 865.16 2.80067 865.624 4.24823 865.685C5.69579 865.746 7.13155 865.401 8.39387 864.689C4.90002 862.169 16.4254 856.363 10.8105 856.697C17.6597 853.099 23.0088 853.558 24.5952 858.155C22.4462 861.023 21.8618 862.66 22.2152 864.744L26.2549 861.245C27.2422 863.114 19.6671 864.095 21.6662 867.811C30.0715 862.894 28.3033 878.795 39.3138 866.446C37.9379 873.457 30.8627 868.467 29.8543 877.555C24.2458 880.847 25.2926 873.213 19.769 879.358C23.238 878.971 16.4607 885.539 17.77 886.57L23.073 884.15L22.7685 883.507C31.2261 880.037 35.2409 887.505 41.0097 890.025C50.0147 886.338 59.8275 878.63 64.4417 882.939C60.1347 885.837 66.0161 889.733 57.6707 894.759C57.5608 899.946 62.8623 897.433 64.9536 894.516C63.5678 892.04 64.8774 893.054 64.132 890.378C67.8166 887.647 70.4314 889.719 69.9298 892.833C69.6254 892.19 69.3137 893.031 68.4171 894.063C69.2317 898.205 72.0907 891.363 74.9307 891.129C72.0161 896.516 77.9655 895.245 77.793 898.981L85.131 893.525C80.567 897.29 86.2227 896.825 83.6051 901.412C87.6086 899.3 93.0382 894.492 94.8057 897.557C92.0349 899.256 94.7586 902.715 91.5345 907.538C92.9104 915.214 107.954 899.66 107.53 909.421C106.63 910.447 103.61 912.991 104.04 915.055C105.941 914.393 107.273 916.141 108.687 916.344L108.56 916.456L108.72 916.38C109.41 916.481 110.14 916.109 110.946 914.956C115.946 911.516 120.176 907.354 126.397 905.825C129.874 900.163 125.461 900.235 122.939 901.123L118.128 905.757C122.703 896.741 113.961 904.994 115.048 901.654C123.8 893.44 128.276 900.005 135.994 896.56C138.96 887.399 134.942 882.885 130.088 880.907L129.684 885.472L127.4 884.064L125.563 891.346C124.162 888.895 121.326 889.135 119.656 887.505C121.952 888.924 117.629 897.025 117.215 894.995C118.416 887.939 112.228 896.727 110.558 895.096C111.265 896.319 112.584 897.353 109.537 899.859C110.343 890.722 106.37 894.308 107.792 884.973C101.936 894.373 102.931 882.998 97.2701 890.081L98.3272 891.917L91.196 895.118C93.2721 885.575 99.109 889.449 98.1094 880.979C94.4787 877.086 87.9829 886.687 84.1108 885.048C88.9552 880.449 94.8254 877.692 97.4167 879.733L97.5789 875.993C100.616 873.483 103.914 876.729 105.546 878.369C98.1658 882.399 105.689 881.272 103.781 887.088C107.65 882.054 105.072 881.487 110.33 878.934C108.047 877.509 107.402 877.755 105.964 873.815C110.399 880.382 123.924 859.489 126.212 867.519C122.136 868.193 121.888 875.637 120.444 878.367C122.027 878.532 125.228 878.898 127.088 878.256L131.392 870.113C136.727 868.97 126.851 885.703 135.756 880.377C139.316 876.173 133.663 876.679 134.903 876.245C143.046 874.858 136.474 888.236 136.989 896.91C138.779 894.803 141.993 889.975 146.239 887.021C142.665 891.232 142.216 894.329 138.239 896.48C138.378 899.392 142.42 897.253 144.918 896.369C143.66 891.616 150.614 890.698 153.032 888.362C154.096 890.212 149.462 892.563 147.626 893.202C148.073 895.284 145.026 902.993 150.394 896.7C147.187 901.524 138.258 906.852 135.047 906.483L136.121 908.336C133.35 910.035 133.613 909.2 132.539 907.381C131.56 912.125 128.63 916.124 125.946 919.288C126.216 918.45 126.832 918.234 127.105 917.42C126.648 915.335 124.785 915.953 123.358 918.718C117.834 924.357 122.4 923.922 121.072 927.727L123.899 927.773L144.573 911.647C149.043 911.171 146.96 916.977 146.974 921.54L151.304 916.415C153.386 918.663 154.526 921.991 148.194 927.912C149.362 926.006 148.738 926.224 148.382 925.597C147.942 926.15 147.436 926.646 146.874 927.074L146.091 927.95C148.287 928.021 150.485 927.978 152.677 927.823C142.753 932.785 145.643 937.697 138.251 946.978L144.954 946.864C144.309 941.889 148.147 942.047 150.049 941.368C146.582 947.068 153.725 943.802 154.802 945.662L153.922 946.712C154.109 949.636 157.067 950.861 159.931 950.625C161.102 948.726 169.584 941.333 174.405 936.685C172.628 932.461 176.015 931.54 178.079 927.951C178.192 928.479 178.739 928.947 179.285 928.295C180.802 927.036 180.081 925.786 181.235 923.904C176.112 924.176 172.146 922.538 165.559 929.29C164.229 933.473 169.58 927.162 169.158 930.28C163.976 934.311 162.508 931.824 159.837 929.795L161.925 924.577L157.435 925.174C160.256 923.528 162.827 918.227 166.382 919.306C168.942 914.669 162.808 918.313 162 915.632L156.909 921.136C159.582 917.968 156.184 914.692 162.072 911.9L169.908 909.897L171.501 904.863L176.053 906.24L172.994 908.811C181.91 908.675 166.488 922.166 177.532 919.138C184.483 913.027 187.088 913.632 189.626 918C185.779 917.804 185.803 923.039 181.865 926.627C182.52 931.622 187.621 926.14 190.998 924.239C189.052 928.637 187.376 932.179 185.29 929.924C179.406 937.908 189.509 930.723 183.999 939.317C192.384 944.654 209.126 916.518 211.564 933.626L208.883 936.78C217.928 936.771 218.704 943.251 226.221 944.497L224.777 956.205C222.862 956.839 215.756 961.449 214.149 966.473C217.972 956.247 213.56 957.714 214.427 951.415C212.633 953.515 212.466 955.819 211.922 957.506C210.562 956.439 212.542 952.077 209.63 952.285C208.484 954.146 209.031 957.704 206.773 957.722L207.91 950.602C202.757 950.828 197.445 962.333 195.142 957.126C199.157 952.834 205.415 946.923 207.757 946.866C206.665 944.559 212.174 945.627 212.47 941.61C204.99 946.928 207.538 940.388 201.028 942.498C202.115 941.778 203.174 940.454 204.318 940.596L201.322 934.16C199.743 939.188 194.046 935.898 190.305 942.413C193.935 948.634 194.895 943.814 198.635 951.498C195.937 951.707 189.43 956.496 184.433 961.569C184.495 961.452 184.531 961.323 184.539 961.191C184.548 961.058 184.528 960.926 184.481 960.802C179.379 966.285 179.209 968.582 171.906 979.276C179.879 973.554 177.472 981.079 183.736 978.974C188.36 973.547 186.916 970.191 184.246 970.585L189.8 968.696L187.394 971.001L193.433 978.031C191.819 977.385 189.026 980.446 186.548 982.511C187.342 983.392 187.243 985.605 187.072 987.971C190.679 982.239 193.509 978.389 194.364 979.13C198.24 983.703 197.4 990.529 194.796 998.106L195.64 998.082C198.77 991.814 206.066 990.118 211.555 985.29C207.424 991.143 211.565 990.515 210.856 994.471C216.258 988.196 221.739 978.186 223.879 971.488C216.365 975.487 217.768 976.5 210.191 984.251L201.028 986.575L205.894 981.949C204.955 977.798 197.589 983.25 202.604 976.337C207.185 972.573 207.469 976.966 212.064 973.178L212.123 969.436C219.88 964.595 209.09 977.156 216.047 974.834C218.817 967.931 216.67 974.632 220.991 971.693C222.592 966.655 213.394 968.996 221.483 959.581C226.438 956.444 219.659 975.851 229.136 967.49L228.218 968.567C231 972.383 236.32 967.507 240.245 964.85C239.554 969.243 244.947 966.147 246.918 966.985L244.826 969.902L248.108 970.366C243.223 974.933 245.387 968.232 242.743 967.56L239.207 973.225C241.32 965.043 232.861 973.803 227.754 977.251C233.73 974.375 234.441 983.915 242.516 973.676L240.345 980.38L242.536 978.939C240.908 983.99 235.092 989.571 231.837 989.146C232.131 987.839 232.724 986.617 233.569 985.578C230.75 987.248 226.779 990.782 224.955 987.633L228.404 985.741C225.309 982.981 220.79 983.009 215.917 987.621C218.984 992.686 223.265 996.905 228.374 999.895C238.314 988.464 244.76 982.643 253.478 971.629C258.037 971.667 263.333 973.025 263.063 979.066L261.232 981.141C261.71 983.234 263.347 983.459 265.268 982.857C264.531 986.827 260.058 988.254 259.871 990.551L266.985 989.788C263.052 994.777 259.334 992.217 257.32 991.358C257.964 991.147 259.241 990.755 259.515 989.907C258.964 986.342 248.956 992.516 253.325 984.385C251.414 984.991 259.232 980.258 256.13 977.501C255.843 973.084 250.39 979.323 248.576 981.416C246.484 984.333 249.295 987.922 245.577 990.6C247.592 991.459 250.946 988.157 251.202 992.564C249.212 991.701 242.679 996.022 244.947 990.805C237.673 993.885 228.536 1008.06 229.613 1009.94C232.244 1005.34 239.58 1008.97 239.04 1000.19C244.95 996.032 248.679 998.578 253.764 996.963L252.857 997.992L257.129 998.903C255.575 1000.12 253.667 1000.73 251.576 1003.63L261.667 998.951C255.373 1002.44 260.661 1003.71 260.185 1006.91C263.844 1002.77 267.952 1000.77 268.063 996.98C268.438 992.352 265.222 998.601 263.232 997.704L270.728 992.438L270.455 993.287L276.045 988.583C279.096 991.416 265.033 1000.97 273.368 998.411L278.404 990.135C282.618 994.915 282.713 1008.38 288.848 1007.3C284.641 1011.06 279.074 1017.92 277.336 1023.12C276.796 1020.68 273.562 1018.76 270.845 1017.94C271.41 1016.26 280.211 1010.62 281.38 1014.01C289.449 1000.35 269.845 1017.49 278.91 1004.26C276.092 995.33 265.43 1013.6 265.764 1002.24C261.554 1008.03 262.285 1004.05 258.366 1009.01C253.125 1019.62 265.419 1013.6 266.367 1019.3C265.301 1019.57 264.329 1020.13 263.553 1020.91C264.691 1024.31 266.605 1023.74 269.8 1022.74L270.08 1021.91C277.047 1018.3 268.751 1027.53 268.602 1031.3C269.882 1030.92 271.024 1034.29 273.71 1029.74L272.79 1037.46L277.362 1030.85C279.376 1031.73 276.652 1036.27 281.078 1033.47L285.359 1027.73L282.505 1022.6C286.069 1022.29 287.128 1017.5 290.416 1018C283.097 1022.41 290.015 1022.57 286.35 1028.14L290.499 1026.18L288.92 1027.39C288.134 1031.37 292.146 1026.4 293.215 1028.37C293.655 1023.74 295.36 1018.8 289.917 1021.14C294.066 1019.17 300.226 1018.09 301.232 1018.57C304.867 1017.54 302.945 1022.89 304.211 1024.86C299.174 1024.68 292.537 1043.23 288.913 1034.1C289.844 1033.08 290.204 1033.74 289.909 1034.58C294.426 1026.5 285.567 1032.11 282.072 1033.9C279.345 1038.42 277.064 1038.39 277.912 1042.58C279.054 1039.27 286.976 1034.63 286.87 1039.95L279.731 1048.76L282.46 1052.44L281.813 1052.63C278.83 1059.46 286.397 1054.29 286.276 1059.53C290.397 1057.57 295.201 1065.16 299.357 1053.56C297.319 1060.83 304.608 1055.06 307.898 1055.63L307.677 1049.74C316.031 1045.93 311.893 1049.33 322.445 1041.19C320.877 1043.86 319.981 1046.36 317.46 1048.51C321.895 1052.46 326.626 1060.19 335.009 1055.06C338.043 1058.04 330.455 1068.93 338.255 1068.44C340.205 1067.95 343.962 1059.54 345.06 1064.5C344.745 1065.31 336.955 1068.77 340.924 1070.74C348.714 1065.82 343.682 1078.97 351.509 1075.54C351.243 1079.29 354.879 1080.63 349.994 1085.52C348.328 1082.24 343.695 1080.44 341.091 1082.58C344.024 1079.62 341.697 1077.97 345.628 1077.01C344.837 1069.81 340.407 1078.32 339.004 1072.74C337.075 1074.71 336.168 1080.15 338.461 1078.81C332.683 1086.19 328.638 1076.89 324.889 1088.21C328.166 1091.79 341.372 1077.34 338.574 1087.65C333.723 1091.1 334.636 1085.69 326.897 1092.13L327.257 1097.18L333.408 1093.41L332.44 1094.4C331.862 1104.85 342.845 1090.24 350.034 1090.02C351.633 1082.92 360.758 1077.8 361.375 1073.16C365.002 1074.59 366.328 1077.3 360.465 1084.61C350.35 1086.19 353.942 1092.06 343.213 1095.35C341.913 1098.62 333.499 1105.09 335.755 1108.3C343.183 1105.77 339.662 1101.42 344.842 1101.69C344.501 1102.66 343.942 1103.55 343.207 1104.28C347.76 1101.72 343.843 1107.09 349.041 1104.39L347.427 1105.5C346.099 1111.73 353.928 1102.5 351.947 1108.89C355.573 1102.89 356.834 1105.53 360.784 1103.17C360.495 1099.52 365.735 1090.92 361.483 1088.13C357.552 1092.02 355.917 1094.62 352.655 1095.39L355.592 1096.93C354.369 1097.35 353.172 1097.83 352.007 1098.39L351.384 1094.19C356.913 1093.65 359.199 1087.91 364.107 1084.55C365.425 1088.74 367.403 1085.3 368.045 1088.15C362.781 1094.27 364.774 1103.3 364.675 1109.94C364.368 1109.29 363.608 1108.91 363.386 1108.46C357.815 1110.48 360.714 1114.98 359.38 1116.75L363.651 1115.04C362.97 1115.21 361.329 1116.29 361.325 1117.77C364.57 1118.5 369.564 1112.24 372.839 1112.98C370.161 1116.52 363.896 1120.11 363.827 1123.07C361.826 1126.45 356.753 1135.62 362.293 1135.09C362.846 1134.62 363.502 1134.29 364.208 1134.11C364.915 1133.94 365.651 1133.94 366.359 1134.11C366.074 1134.14 365.799 1134.23 365.551 1134.37L364.382 1139.78C357.822 1144.08 363.306 1134.11 356.678 1138.53L351.893 1143.93C350.532 1142.86 346.772 1143.79 343.538 1145.95C344.763 1148.54 346.397 1147.44 349.615 1148.15C347.886 1150.55 345.467 1152.37 342.679 1153.37L345.658 1150.5C346.811 1143.72 337.204 1152.52 334.773 1148.76C334.472 1148.12 335.108 1147.96 336.093 1147.01C328.962 1150.18 332.411 1140.62 323.977 1145.61L327.198 1143.38C323.479 1144.28 315.544 1146.93 307.836 1149.45L306.046 1151.52C305.365 1153.16 304.144 1152.02 304.172 1150.56C300.318 1151.82 296.737 1152.92 293.857 1153.74C293.216 1155.44 292.847 1157.03 293.231 1157.84C295.831 1155.69 297.25 1160.37 301.509 1154.19C300.127 1158.89 306.53 1155.76 305.794 1158.85C306.882 1153.52 311.585 1154.48 314.537 1151.55C312.211 1155.76 317.645 1153.66 313.376 1158.37C312.717 1159.96 315.083 1154.32 311.858 1156.59C306.095 1159.5 312.275 1163.67 306.197 1165.95C312.216 1165.13 315.209 1170.1 322.265 1168.33L322.066 1164.8C322.976 1166.72 327.346 1168.53 325.636 1171.1C324.066 1170.76 322.835 1169.64 320.595 1169.48C315.94 1174.93 323.977 1172.22 321.299 1175.74L333.006 1170.01L331.474 1168.23C335.45 1165.79 335.722 1172.98 337.765 1176.1C329.835 1182.24 333.585 1172.69 328.112 1173.33C323.608 1174.44 323.297 1181.6 319.805 1181.79C318.853 1183.96 320.318 1184.81 322.542 1183.46L322.2 1185.43C314.706 1190.75 312.026 1186.01 304.507 1189.75C305.378 1189.2 306.19 1188.57 306.929 1187.85C307.131 1183.55 304.98 1181.93 301.525 1182.17C300.769 1185.19 302.415 1184.05 303.642 1183.73C302.312 1185.49 299.819 1184.69 297.599 1186.01C297.76 1189.51 294.596 1190.35 294.808 1192.42C292.277 1193.09 291.722 1191.83 290.874 1189.93C292.263 1186.7 294.435 1186.85 297.082 1183.31C293.918 1184.15 299.918 1175.41 294.511 1177.56C296.238 1181.39 287.68 1184.37 284.82 1185.87L285.118 1186.5C280.96 1189.76 280.052 1189.29 282.395 1185.1C284.913 1184.42 285.121 1186.5 288.107 1182.13C287.556 1181.8 286.938 1181.58 286.296 1181.51C285.654 1181.43 285.003 1181.5 284.39 1181.71L287.581 1179.41L283.011 1177.08C279.523 1180.19 274.383 1184.51 269.558 1189.36C271.268 1185.32 267.743 1187.05 265.851 1187.6L267.47 1186.42C268.197 1181.95 262.256 1181.53 259.392 1184.51C260.374 1180.62 284.47 1170.91 273.22 1166.97C269.821 1164.36 263.013 1175.63 258.302 1177.71C258.815 1177.18 259.246 1176.57 259.581 1175.91C258.688 1174.03 255.495 1177.85 252.994 1178.57C252.639 1180.81 253.858 1181.87 255.424 1180.7C251.61 1184.67 252.693 1177.95 248.919 1180.49C255.557 1174.95 248.086 1175.75 251.86 1173.19C252.283 1166.62 245.079 1169.47 239.768 1173.25C244.239 1163.29 235.522 1171.65 235.165 1165.33C235.466 1165.97 237.356 1165.37 237.367 1166.8C243.315 1162.84 236.104 1161.46 242.711 1158.71C241.448 1159.09 240.497 1161.53 241.774 1161.15C243.328 1161.38 246.124 1159.83 247.718 1157.18L248.66 1150.41L250.588 1149.82L251.463 1140.2C250.642 1141.23 250.011 1142.4 249.599 1143.65C247.005 1137.17 238.815 1136.82 235.31 1132.83C223.207 1147.5 220.249 1131.73 209.997 1138.67C214.128 1134.92 220.28 1127.53 222.054 1123.93C223.276 1123.83 229.326 1118.77 230.108 1121.36C228.582 1124.02 228.639 1128.37 225.223 1130.17C231.194 1131.94 229.524 1123 235.092 1118.34C228.793 1115.87 219.09 1122.64 213.114 1123.85L214.35 1121.98L209.334 1123.6C210.657 1126.1 204.237 1134.74 203.799 1129.79L204.429 1129.59C205.598 1124.83 199.307 1126.88 197.36 1124.63L192.151 1128.49C190.218 1126.22 196.846 1116.73 200.103 1110.53C196.851 1107.19 189.187 1113.38 183.297 1116.09C185.055 1111.1 180.084 1106.18 186.628 1103.26C180.645 1104.51 165.758 1127.14 168.563 1110.81L172.898 1107.9C166.732 1104.83 153.26 1107.24 153.626 1101.24C165.672 1088.3 156.839 1081.75 165.586 1066.89C163.64 1070.31 160.771 1069.93 159.263 1071.44C159.941 1069.46 160.273 1067.32 157.444 1069.67C157.691 1074.02 145.781 1083.28 153.927 1080.47C145.11 1088.69 137.168 1094.41 132.828 1090.72L136.956 1084.86L139.415 1089.18C142.04 1084.58 143.71 1086.21 145.861 1084.73C141.274 1076.71 156.267 1071.54 148.709 1067.48C145.401 1070.85 146.925 1069.57 144.057 1069.83C145.087 1070.2 147.998 1066.25 146.665 1065.22L142.096 1069.03C146.393 1057.5 150.571 1065.42 153.217 1057.06C159.112 1054.26 165.554 1055.04 169.857 1046.92C167.276 1041.12 156.15 1058.27 153.843 1051.66L155.578 1048.1C152.437 1049.16 148.61 1054.18 145.566 1056.71C146.736 1054.83 147.252 1053.17 146.573 1051.95C138.617 1057.66 135.784 1057.92 127.566 1064.44C138.583 1062.86 129.396 1074.18 140.157 1073.43C137.386 1075.13 131.245 1073.55 125.358 1081.51L129.479 1075.64C125.073 1077.17 120.765 1078.66 119.257 1074.75L123.264 1072.61C116.691 1074.15 123.121 1059.32 113.396 1067.14C113.51 1067.41 113.678 1067.66 113.888 1067.86C114.099 1068.07 114.348 1068.23 114.622 1068.34C114.895 1068.45 115.188 1068.5 115.482 1068.5C115.777 1068.49 116.067 1068.43 116.337 1068.31C112.576 1069.62 110.521 1067.36 109.08 1064.91L98.0242 1071.71C100.064 1068.79 97.3761 1066.72 101.93 1062.94C101.826 1056.27 94.3237 1064.09 91.4665 1064.32C92.497 1055.82 96.177 1063.43 102.068 1055.46C99.4556 1049.67 93.0303 1048.93 86.8826 1052.54C87.0836 1054.16 86.6648 1055.78 85.7109 1057.1C86.8449 1055.14 84.7137 1054.39 83.7475 1053.65L80.4397 1057.04C80.5328 1053.3 82.3061 1051.19 85.7044 1049.24C84.6161 1047.41 77.662 1053.52 79.7742 1046.83C85.6695 1044.04 86.4181 1050.48 89.8021 1048.56C81.5166 1048.47 91.9938 1032.9 81.4154 1032.85C82.5689 1030.95 86.2366 1028.2 84.8645 1027.2C80.6565 1026.41 78.6307 1034.55 74.7031 1038.15C78.8353 1037.46 78.4267 1040.59 76.5566 1046.45L73.7727 1049.1C74.7696 1047.41 73.2766 1046.24 73.8591 1044.37L69.1318 1050.46C74.105 1043.53 75.2302 1036.44 71.4686 1037.74C69.9971 1044.21 69.6301 1043.58 64.7294 1051.98C56.7738 1057.7 66.6617 1042.37 58.0657 1048.29C59.8353 1046.2 63.7077 1046.35 62.5303 1043.02C60.7912 1041.39 57.3245 1047.05 54.8272 1047.92C60.2891 1043.05 62.8729 1038.43 69.2036 1032.55C73.1628 1034.15 70.544 1033.57 75.663 1033.31L76.1794 1026.4C79.7602 1027.42 82.874 1021.12 84.6609 1019.02C83.7323 1009.65 74.8455 1025.39 72.6703 1021.66C68.3754 1024.64 75.1017 1024.55 69.8094 1027.12C67.3816 1024.22 66.5193 1030.49 61.404 1030.74L63.8074 1028.43C65.1478 1024.23 61.2027 1027.84 59.603 1027.62C57.0811 1028.51 47.2076 1049.04 41.531 1045.76C42.4882 1044.79 43.3713 1043.75 44.1726 1042.65L83.01 996.909C77.4643 993.325 72.1011 987.651 68.0513 980.037C73.1552 969.392 77.9834 975.183 80.5598 970.58L82.0873 974.529C79.1407 978.494 75.199 971.65 72.8752 980.651C79.9787 981.203 79.0678 987.481 89.6352 982.342C94.7122 971.659 82.105 979.733 84.0583 970.111C84.9455 971.642 86.7807 971.346 88.7997 970.697C86.7302 967.421 84.4996 963.914 82.1079 960.175L79.7632 961.997C81.2737 964.628 82.2709 966.517 82.2364 967.004C79.8222 964.109 73.6469 967.721 68.6186 974.641L68.9789 975.258L66.386 976.718L65.1833 973.925ZM-122.196 830.17C-121.365 829.602 -120.581 828.967 -119.853 828.272C-120.766 829.125 -121.182 829.836 -122.196 830.17ZM140.029 990.221C136.73 986.47 133.994 981.793 130.728 978.326C128.195 997.055 125.843 1010.95 114.489 1002.79L113.016 1003.29C113.369 1006.04 115.834 1008.02 118.984 1008.67C124.332 1005.07 143.119 991.238 144.14 989.547C146.106 985.191 142.179 988.765 141.701 986.672L140.029 990.221ZM126.979 1015.6C128.189 1018.7 129.773 1015.26 132.019 1012.7L128.913 1012.12C128.58 1013.43 127.914 1014.63 126.979 1015.6V1015.6ZM133.774 1009.82C133.652 1009.69 133.569 1009.53 133.533 1009.36C133.498 1009.19 133.512 1009.01 133.573 1008.85L133.774 1009.82ZM92.0865 976.302C92.235 976.308 92.3118 976.272 92.4394 976.289C92.0471 975.713 91.6618 975.134 91.2562 974.53C91.2067 974.87 91.258 975.217 91.4038 975.529C91.5497 975.84 91.7836 976.101 92.0766 976.281L92.0865 976.302ZM92.0483 986.265L96.0555 981.524C95.6831 980.99 95.3106 980.456 94.9249 979.894C93.5082 982.304 92.315 984.444 92.0383 986.244L92.0483 986.265ZM95.4451 1013.11C100.54 1007.62 103.855 1009.47 108.845 1002.52C110.271 1000.84 110.077 999.705 109.741 998.615L107.516 996.246C106.818 997.218 105.976 998.078 105.021 998.798C105.335 1000.31 104.76 1002.49 101.437 1006.58C105.502 995.498 94.7348 1011.88 93.8238 1007.72C89.6165 1012.11 93.3368 1014.55 95.4352 1013.09L95.4451 1013.11ZM300.969 1132.36L298.478 1136.82L294.156 1138.82C292.28 1135 297.39 1123.39 288.152 1129.59C288.501 1126.5 291.255 1121.53 293.421 1117.36C293.881 1118.12 294.152 1118.99 294.211 1119.88C311.473 1113.72 288.192 1135.87 300.969 1132.36ZM274.717 1093.17C275.32 1092.88 275.86 1092.47 276.309 1091.97C259.918 1099.31 251.556 1098.75 248.172 1095.47C245.219 1101.03 245.706 1107.39 245.752 1110.65L240.145 1115.3L242.581 1110.16L236.338 1113.54C234.192 1117.9 236.733 1118.55 235.859 1122.47C236.775 1121.46 245.863 1117.93 249.653 1115.31L249.212 1108.87C248.943 1111.14 254.37 1113.15 257.232 1113.02C259.4 1110.19 259.58 1103.53 254.614 1109.42C257.393 1104.92 260.954 1107.51 262.099 1101.31C268.113 1098.79 269.539 1105.7 269.917 1109.25L264.922 1116.56C264.978 1120.91 272.793 1109.12 272.258 1115.11C268.084 1114.15 266.917 1123.25 264.041 1121.93C262.813 1125.19 258.409 1129.41 261.278 1130.72C270.432 1122.96 259.447 1138.51 267.614 1131.77C266.654 1135.65 261.959 1136.32 263.513 1139.51C270.117 1136.86 272.652 1133.23 278.044 1126.63C276.784 1122.61 268.264 1133.07 267.312 1129.7L280.596 1121.52C281.038 1119.24 280.565 1118.6 279.702 1118.68C281.105 1118.7 283.179 1117.57 285.642 1115.71L289.335 1113.1C286.851 1111.07 284.737 1109.15 286.541 1105.95L289.371 1102.9C290.778 1099.17 287.498 1100.41 284.975 1102.32C282.397 1100.98 276.618 1103.85 279.347 1099.19L282.509 1096.84C278.918 1095.63 278.292 1095.81 274.69 1093.19L274.717 1093.17ZM185.815 1018.12C178.979 1031.84 173.349 1044.18 183.017 1047.69L181.781 1048.1C180.448 1058.79 196.966 1043.35 195.926 1055.54C190.235 1058.53 190.657 1058.19 180.525 1067.07L185.557 1065.36C180.121 1071.63 185.153 1069.92 186.808 1071.61L179.512 1078.49C179.989 1075.38 177.624 1072.48 176.429 1074.38C177.703 1073.95 179.613 1061.47 175.51 1062.09C171.975 1067.74 178.701 1069.14 170.196 1076.48C174.843 1074.16 171.308 1079.79 174.778 1079.37C170.124 1081.68 169.085 1086.46 164.799 1089.38L169.582 1089.96C168.401 1091.84 161.685 1090.45 159.869 1099.16C163.255 1097.28 164.476 1103.48 168.644 1097.65L167.467 1099.52C169.189 1102.61 174.431 1092 175.301 1097.6C177.406 1094.67 178.229 1092.2 176.647 1092.01C174.763 1092.63 171.779 1096.57 169.212 1095.99C171.518 1090.76 171.224 1098.26 175.268 1089.51C177.262 1085.14 167.632 1089.15 175.19 1081.43L176.93 1084.53C181.109 1078.69 182.771 1080.35 186.036 1075.58C189.166 1074.53 186.04 1082.22 191.255 1078.24C194.61 1074.94 198.366 1067.03 198.945 1072.03C194.957 1082.21 202.445 1084.84 205.602 1085.31L210.28 1083.04C212.661 1079.34 206.062 1080.76 210.667 1077.01L214.835 1077.88L212.993 1079.95C213.689 1081.2 216.48 1079.57 218.356 1078.98C214.371 1082.46 213.298 1079.13 209.41 1085.55C210.04 1087.82 208.661 1090.24 210.857 1090.05C210.086 1090.33 209.433 1090.86 209.006 1091.56C210.133 1096.35 216.768 1086.84 218.924 1085.42C227.62 1079.68 221.111 1075.87 225.968 1069.89L237.265 1072.87C235.085 1074.3 232.915 1075.71 231.409 1078.4C231.572 1082.77 228.072 1083.15 231.344 1085.06C237.096 1076.61 238.925 1082.66 244.549 1079.44C243.079 1083.56 242.819 1084.38 240.538 1082.89C236.901 1088.45 241.346 1088.5 242.076 1089.75C243.658 1088.85 245.27 1088.82 246.796 1088.1C247.344 1086.37 248.314 1084.79 249.618 1083.52C250.922 1082.25 252.52 1081.32 254.27 1080.82L255.204 1079.78C253.137 1076.03 252.461 1066.63 246.497 1070.71L248.986 1068.45C248.67 1061.15 234.067 1072.4 239.688 1061.01C242.734 1057.09 239.622 1059.55 243.852 1053.78L237.895 1056.39L240.341 1054.15L234.807 1052.16L235.713 1051.15C229.774 1054.86 224.983 1057.95 221.139 1060.52C219.335 1063.09 218.916 1063.95 216.865 1065.31C215.258 1066.07 214.561 1065.87 214.295 1065.18L214.26 1065.19C213.66 1063.66 215.495 1059.47 215.16 1057L219.888 1059.36C223.3 1055.28 226.115 1050.53 226.148 1046.01C227.128 1046.45 229.874 1043.33 229.164 1042.08C228.246 1043.12 224.403 1042.87 222.966 1047.06C217.776 1045.79 219.143 1029.75 207.163 1033.67C215.092 1031.82 207.647 1025.34 213.848 1027.02C215.233 1017.63 206.093 1031.79 203.312 1028.25C204.756 1025.54 205.002 1029.92 209.254 1025.54C205.313 1018.64 191.557 1029.89 187.334 1023.9L190.849 1018.28L185.815 1018.12ZM169.871 1017.23L165.267 1016.85C165.34 1017 165.421 1017.08 165.455 1017.24L159.166 1019.37C159.721 1022.89 156.953 1029.83 152.213 1030.68C153.996 1028.57 155.063 1025.24 156.943 1024.59C157.335 1020 155.339 1013.98 150.768 1023C159.717 1017.68 144.437 1034.11 151.236 1030.26C146.031 1034.6 146.17 1031.14 143.094 1032.55C147.666 1029.08 149.708 1022.1 148.901 1018.41C146.999 1019.07 145.191 1015.99 142.074 1017.05C139.22 1022.51 135.819 1024.43 137.624 1027.52C135.739 1028.18 133.509 1028.21 133.599 1024.44C134.866 1024.03 136.467 1024.21 137.627 1022.32C139.695 1016.92 138.277 1016.26 138.914 1013.79L136.674 1013.45C136.495 1014.15 136.242 1014.82 135.919 1015.47L131.004 1018.65C135.119 1017.97 130.568 1021.78 128.521 1024.72C132.587 1018.85 127.437 1022.86 126.45 1022.47L124.029 1030C120.957 1032.55 123.928 1023.32 120.184 1029.85C122.44 1035.01 124.677 1034.97 129.509 1035.53L131.369 1029.68C137.724 1028.98 128.172 1039.71 132.839 1042.54C137.746 1039.36 139.797 1046.85 145.962 1038.03C143.558 1040.36 143.348 1047.83 147.642 1044.89C154.89 1037.94 160.786 1040.37 161.771 1035.62C160.411 1034.55 155.524 1037.73 158.02 1031.69L161.872 1031.86L163.129 1026.22C162.979 1028.4 165.848 1024.02 169.871 1017.23ZM143.077 925.99L143.049 925.806C143.066 925.853 143.1 925.892 143.144 925.915L143.077 925.99Z" fill="#F9E0D0"/>
<path d="M352.882 1145.85C355.204 1144.58 356.728 1146.44 359.789 1142.13C356.099 1146.56 355.978 1140.07 352.882 1145.85Z" fill="#F9E0D0"/>
<path d="M351.372 1152.01C352.388 1151.06 353.732 1149.29 354.665 1149.84L351.511 1149.05L351.372 1152.01Z" fill="#F9E0D0"/>
<path d="M327.923 1184.06C331.824 1181.73 334.101 1180.48 335.573 1182.29C327.016 1193.57 330.189 1182.83 320.864 1192.18C323.108 1195.91 332.105 1187.38 335.488 1188.74C338.061 1183.18 334.981 1175.97 327.923 1184.06Z" fill="#F9E0D0"/>
<path d="M314.976 1196.43L318.771 1195.52L319.133 1194.74L315.342 1195.65L314.976 1196.43Z" fill="#F9E0D0"/>
<path d="M352.42 1068.61C354.989 1065 351.064 1067.46 349.758 1067.79C350.111 1068.43 350.134 1069.92 352.42 1068.61Z" fill="#F9E0D0"/>
<path d="M285.447 1053.8C291.913 1053.42 298.23 1048.65 303.492 1050.15C303.389 1038.99 288.107 1056.01 289.018 1045.32L285.447 1053.8Z" fill="#F9E0D0"/>
<path d="M307.771 1026.53C303.471 1033.7 298.866 1032.03 295.81 1037.39C299.733 1037.78 301.803 1031.98 303.802 1034.4L307.771 1026.53Z" fill="#F9E0D0"/>
<path d="M243.347 1149.9L239.589 1152.49L241.464 1151.92L243.347 1149.9Z" fill="#F9E0D0"/>
<path d="M284.889 1018.92L286.442 1017.72L285.938 1014.12L284.889 1018.92Z" fill="#F9E0D0"/>
<path d="M288.011 1016.49L286.443 1017.72L288.011 1016.49Z" fill="#F9E0D0"/>
<path d="M231.127 1163.03L231.752 1165.71L234.894 1163.29L231.127 1163.03Z" fill="#F9E0D0"/>
<path d="M242.668 1116L245.804 1115.02C245.191 1115.21 245.097 1110.87 242.668 1116Z" fill="#F9E0D0"/>
<path d="M274.484 1007.09L270.636 1008.25L270.356 1009.07L274.204 1007.91L274.484 1007.09Z" fill="#F9E0D0"/>
<path d="M216.99 1125.51C214.302 1131.45 212.859 1124.67 211.75 1130.83C214.302 1131.45 215.471 1128.18 216.99 1125.51Z" fill="#F9E0D0"/>
<path d="M219.179 1073.74C218.92 1073.56 218.512 1073.54 217.84 1073.93C218.293 1073.93 218.743 1073.86 219.179 1073.74Z" fill="#F9E0D0"/>
<path d="M219.179 1073.74C220.02 1074.34 219.443 1076.94 221.094 1075.86C221.707 1072.71 220.688 1073.32 219.179 1073.74Z" fill="#F9E0D0"/>
<path d="M208.624 1068.03L209.13 1068.94C206.525 1070.97 207.164 1070.85 209.331 1069.27C210.276 1069.68 211.394 1067.97 212.288 1066.92L214.222 1065.24L212.217 1066.66C210.982 1065.73 210.034 1065.44 208.624 1068.03Z" fill="#F9E0D0"/>
<path d="M233.448 954.088C235.017 958.051 235.117 959.51 232.142 963.488C234.007 966.686 238.429 959.369 241.226 958.882C237.552 957.517 238.196 955.175 233.448 954.088Z" fill="#F9E0D0"/>
<path d="M241.223 958.875C241.657 959.047 242.1 959.193 242.551 959.315C242.394 959.124 242.185 958.981 241.95 958.903C241.715 958.825 241.463 958.816 241.223 958.875Z" fill="#F9E0D0"/>
<path d="M188.464 1120.25L182.346 1125.22L183.589 1124.81L188.464 1120.25Z" fill="#F9E0D0"/>
<path d="M230.529 949.062C230.893 949.685 231.89 950.128 231.353 951.795C234.328 947.8 230.166 948.438 230.529 949.062Z" fill="#F9E0D0"/>
<path d="M186.528 1036.82C185.095 1039.52 187.959 1039.3 188.035 1040.78C187.332 1039.52 191.66 1031.37 186.528 1036.82Z" fill="#F9E0D0"/>
<path d="M210.593 960.191C210.953 960.825 209.901 964.148 207.213 967.288C209.371 965.829 215.386 959.331 210.593 960.191Z" fill="#F9E0D0"/>
<path d="M181.78 1032.49L181.236 1034.16L185.004 1032.88L181.78 1032.49Z" fill="#F9E0D0"/>
<path d="M147.134 1097.58C152.661 1094.22 151.821 1083.43 158.398 1081.91C157.08 1073.46 154.015 1089.06 150.979 1085.81C151.951 1088.89 148.704 1095.76 147.134 1097.58Z" fill="#F9E0D0"/>
<path d="M151.014 1085.79C150.908 1085.36 150.661 1084.97 150.312 1084.69C150.49 1085.09 150.727 1085.46 151.014 1085.79V1085.79Z" fill="#F9E0D0"/>
<path d="M141.235 1033.67C141.9 1033.35 142.528 1032.96 143.109 1032.51C142.44 1032.82 141.81 1033.21 141.235 1033.67V1033.67Z" fill="#F9E0D0"/>
<path d="M136.767 1082L145.087 1076.88C139.542 1080.26 134.235 1076.18 129.578 1083.71C130.347 1086.41 133.824 1085.97 136.858 1083.4L136.767 1082Z" fill="#F9E0D0"/>
<path d="M189.098 923.387L192.509 921.47L191.284 919.389C191.057 920.84 186.475 925.58 189.098 923.387Z" fill="#F9E0D0"/>
<path d="M191.047 918.996L191.284 919.389C191.351 919.186 191.275 919.008 191.047 918.996Z" fill="#F9E0D0"/>
<path d="M149.914 1034.44C150.631 1035.68 151.618 1036.07 153.485 1035.44C154.025 1033.78 152.276 1030.65 149.914 1034.44Z" fill="#F9E0D0"/>
<path d="M171.71 927.128L174.946 927.495L171.978 926.266L171.71 927.128Z" fill="#F9E0D0"/>
<path d="M169.125 907.18L169.655 905.516L165.917 906.818L165.395 908.478L169.125 907.18Z" fill="#F9E0D0"/>
<path d="M85.8029 1061.1C86.8696 1062.98 92.5815 1057.25 93.1078 1055.58L89.7934 1053.72C86.6833 1060.02 90.7669 1054.12 91.5844 1056.82L85.8029 1061.1Z" fill="#F9E0D0"/>
<path d="M81.2689 862.518C84.5998 859.184 86.3541 863.684 83.9861 867.426C82.452 868.684 79.5768 868.951 79.1142 872.021L88.2696 864.496C87.6625 872.752 77.0398 874.955 72.9956 877.035C75.7006 880.726 81.0497 875.314 84.7928 877.981C84.2669 876.365 85.1777 873.519 86.0132 871.129C90.4831 864.457 91.9427 869.816 94.8071 871.043C95.2093 867.069 97.8087 865.297 100.771 863.516C101.212 863.388 101.611 863.143 101.924 862.807L102.958 862.155L102.651 861.958C103.329 861.008 103.908 859.991 104.378 858.922C100.949 859.375 103.174 852.766 101.913 851.729C95.7649 863.365 95.5842 851.006 91.605 853.115L88.894 852.809L88.144 852.309C88.8178 851.022 90.0526 849.692 92.6598 848.37C90.2467 849.831 87.6914 846.909 85.5432 850.555L78.4158 845.743C78.5334 844.995 78.7488 844.265 79.0564 843.574C78.4514 843.987 77.9386 844.522 77.5503 845.143L46.8701 824.076C47.697 826.004 47.2532 829.329 47.9482 831.61C40.5227 836.954 49.5528 834.692 44.0534 840.834C41.2628 842.491 40.2752 840.64 40.5445 838.372C37.7404 841.482 36.9043 845.37 33.8348 849.256C34.6412 856.234 46.8581 840.634 48.8412 845.762C45.7952 849.68 42.0974 852.383 44.9481 853.599L43.6982 854.012C50.8769 852.32 40.2153 865.334 50.6559 856.062L46.4123 861.84C51.3598 858.741 54.8617 861.206 57.3933 861.82L56.4758 862.863C66.7466 860.133 60.5485 863.68 68.7496 865.303L61.0523 870.091C61.1883 874.442 66.9531 867.362 67.958 869.213C67.054 870.267 64.3927 874.798 62.1688 874.833L77.1357 869.775C82.06 866.627 79.7875 865.205 81.2689 862.518Z" fill="#F9E0D0"/>
<path d="M84.793 877.981C84.8586 878.282 85.0126 878.557 85.2355 878.77C85.4583 878.983 85.7397 879.125 86.0435 879.177C85.6982 878.709 85.2752 878.305 84.793 877.981V877.981Z" fill="#F9E0D0"/>
<path d="M44.7637 822.645L46.8722 824.135C46.708 823.706 46.4199 823.335 46.0445 823.069C45.669 822.804 45.2232 822.656 44.7637 822.645V822.645Z" fill="#F9E0D0"/>
<path d="M104.628 872.763C105.421 868.801 108.562 869.186 110.356 867.086L105.576 863.909C104.021 866.187 101.792 868.399 100.454 870.539L104.628 872.763Z" fill="#F9E0D0"/>
<path d="M107.18 858.68C105.957 860.045 104.533 861.216 102.958 862.153L105.576 863.908C106.729 862.188 107.527 860.441 107.18 858.68Z" fill="#F9E0D0"/>
<path d="M23.6762 980.028L22.6717 979.623L20.1406 980.455L23.6762 980.028Z" fill="#F9E0D0"/>
<path d="M17.0873 960.601C15.72 964.758 19.4974 963.524 20.7745 963.132C18.4344 961.64 20.3214 961.019 17.0873 960.601Z" fill="#F9E0D0"/>
<path d="M12.5206 833.754L11.2559 833.395C11.4273 833.544 11.6296 833.653 11.8482 833.715C12.0668 833.777 12.2963 833.79 12.5206 833.754Z" fill="#F9E0D0"/>
<path d="M34.0186 841.262C33.9454 831.171 41.1359 838.23 45.6924 828.778L41.0598 829.579L42.9151 827.518L39.1956 825.858C37.0438 830.165 37.3699 830.763 34.2828 834.666C31.1752 829.909 36.4239 828.909 37.0259 821.546L31.7302 818.725L33.0113 817.818C32.5525 817.607 31.9985 817.973 31.3783 818.523L13.4836 809.034C8.25397 809.947 9.66297 817.367 3.15096 821.533C6.55475 824.061 8.46672 832.056 14.7009 824.359C13.7701 825.374 11.8703 827.413 11.8851 828.835L18.7394 823.856L18.4259 820.376C25.2775 815.356 30.5098 821.494 28.6764 826.437C23.407 825.966 19.3648 835.131 17.4981 827.124C16.2178 829.297 14.5031 833.533 12.5241 833.761C20.1891 835.879 22.8628 843.495 34.0186 841.262Z" fill="#F9E0D0"/>
<path d="M3.30509 811.488L0.64614 813.621L1.68046 815.553L3.30509 811.488Z" fill="#F9E0D0"/>
<path d="M0.638837 813.608L-0.381878 811.687C-1.66365 813.474 -2.84236 815.333 -3.91225 817.255L0.638837 813.608Z" fill="#F9E0D0"/>
<path d="M-0.374667 811.7C2.79732 807.055 6.10605 802.157 2.91197 801.643L-1.92154 808.83L-0.374667 811.7Z" fill="#F9E0D0"/>
</g>
<path d="M2202.56 1166.68C2167.35 1143.55 2153.12 1084.54 2111.31 1040.79C2069.16 997.232 1999.43 968.936 1982.35 927.112C1965.8 885.449 2001.91 830.258 2045.45 782.257C2089.17 734.602 2140.52 694.485 2197.32 684.539C2254.13 674.593 2316.93 694.979 2348.44 736.205C2380.49 777.592 2381.41 839.286 2373.22 884.845C2365.03 930.404 2347.55 959.482 2341.95 1003.2C2336.35 1046.92 2342.63 1105.28 2317.94 1140.92C2293.25 1176.56 2237.24 1189.65 2202.56 1166.68Z" fill="#E36515"/>
<path d="M2279.28 256.441C2323.72 314.181 2355.4 367.189 2391.33 439.128C2427.25 511.067 2467.91 601.937 2442.85 662.517C2417.33 723.571 2326.09 754.334 2239.57 776.578C2153.06 798.823 2071.28 812.075 1995.16 792.197C1919.05 771.846 1849.09 717.891 1821.67 649.739C1794.25 581.113 1809.38 498.288 1816.94 406.471C1824.03 314.654 1823.56 214.319 1872.72 157.051C1921.89 100.257 2020.69 87.0055 2098.7 111.616C2177.17 135.754 2234.85 198.7 2279.28 256.441Z" fill="#D399C1"/>
</g>
<defs>
<clipPath id="clip0_366_287">
<rect width="2237" height="1447" fill="white"/>
</clipPath>
<clipPath id="clip1_366_287">
<rect width="374.174" height="546.606" fill="white" transform="matrix(0.903596 -0.428386 0.427914 0.90382 -156.642 817.137)"/>
</clipPath>
</defs>
</svg>
