<svg preserveAspectRatio="none" viewBox="0 0 1728 912" fill="none" xmlns="http://www.w3.org/2000/svg">
<path d="M183.039 274.846C253.277 237.749 316.074 213.494 399.998 188.159C483.921 162.825 589.057 135.903 649.524 174.003C710.412 212.697 726.631 316.413 734.569 413.477C742.507 510.542 741.656 600.867 706.255 678.985C670.346 757.015 599.466 822.242 521.181 839.131C442.387 855.933 356.188 824.398 258.932 799.331C161.589 774.771 53.6963 756.768 1.23743 693.373C-50.713 630.065 -46.7214 521.452 -5.88658 442.176C34.527 362.304 112.801 311.944 183.039 274.846Z" fill="#F9DAC6"/>
<g clip-path="url(#clip0_366_1154)">
<path d="M-34.9217 510.375C12.0688 490.694 71.0442 484.357 118.204 460.986C184.734 427.931 188.195 345.16 168.791 284.238C149.278 222.995 114.151 182.937 59.3995 156.445C17.0885 136.133 -33.1162 124.182 -68.7995 92.0318C-107.047 57.514 -115.41 12.0588 -124.084 -39.916C-136.622 -115.337 -179.722 -246.056 -260.782 -250.309L-571.001 374.251L-101.416 607.493C-99.8185 560.599 -65.8348 523.314 -34.9217 510.375Z" fill="#D84592"/>
</g>
<g clip-path="url(#clip1_366_1154)">
<path fill-rule="evenodd" clip-rule="evenodd" d="M1664.12 744.213C1673.86 747.285 1682.6 748.967 1690.53 752.795C1699.26 757.085 1703 766.511 1700.23 776.727C1697.7 786.016 1694.5 795.584 1689.7 803.547C1687.29 807.547 1680.41 810.845 1675.95 810.227C1661.89 808.581 1650.38 801.313 1644.65 785.606C1643.18 781.588 1641.14 777.814 1639.39 773.916C1636.16 766.558 1636.71 758.755 1642.56 754.833C1649.51 750.114 1657.48 747.363 1664.12 744.213Z" fill="#D84592"/>
<path fill-rule="evenodd" clip-rule="evenodd" d="M1685.52 911.953C1681.18 911.489 1676.58 911.774 1672.53 910.288C1662.55 906.55 1658.01 889.999 1664.5 878.939C1671.71 866.756 1679.73 855.251 1694.24 852.154C1703.99 850.223 1711.85 853.028 1718.08 860.766C1723.59 867.553 1721.45 875.588 1718.35 883.105C1717.22 885.809 1716.17 888.543 1715.07 891.265C1708.09 908.636 1702.45 912.517 1685.52 911.953Z" fill="#D84592"/>
<path fill-rule="evenodd" clip-rule="evenodd" d="M1548 743.631C1550.07 734.532 1551.36 725.968 1554 718.076C1556.22 711.426 1562.01 707.378 1568.05 708.27C1572.49 709.078 1576.83 713.149 1580.41 716.768C1584 720.388 1586.52 725.291 1589.62 729.463C1595.41 737.313 1598.96 746.055 1594.88 755.998C1590.46 766.695 1583.83 775.639 1572.97 778.646C1565.01 780.697 1552.24 770.516 1550.12 760.592C1548.87 754.875 1548.59 748.771 1548 743.631Z" fill="#D84592"/>
<path fill-rule="evenodd" clip-rule="evenodd" d="M1741.8 687.005V689.472C1741.8 712.94 1727.55 722.301 1708.6 711.276C1700.84 706.665 1699.58 698.244 1698.74 689.692C1698.36 685.787 1697.77 681.633 1696.47 678.109C1691.73 664.589 1700.1 652.079 1713.14 653.576C1713.62 653.63 1714.09 653.968 1714.58 654.004C1738.19 655.656 1741.8 659.965 1741.8 687.005Z" fill="#D84592"/>
<path fill-rule="evenodd" clip-rule="evenodd" d="M1624.07 843.365C1623.48 847.912 1623.45 850.188 1622.89 852.161C1619.64 864.225 1598.74 873.859 1586.62 869.205C1575.93 864.926 1570.42 848.714 1576.1 835.235C1579.21 827.946 1583.33 821.13 1588.33 814.988C1597.19 804.237 1610.04 807.601 1614.62 821.234C1615.71 824.55 1617.78 827.337 1619.1 830.433C1621.11 835.289 1622.87 840.263 1624.07 843.365Z" fill="#D84592"/>
<path fill-rule="evenodd" clip-rule="evenodd" d="M1651.89 686.816C1651.96 701.614 1634.26 716.626 1623.02 712.816C1615.89 710.397 1611.65 704.912 1611.01 696.8C1610.49 690.465 1608.97 685.508 1604.72 680.998C1599.8 675.69 1600.12 665.807 1604.27 659.716C1608.51 653.505 1615.6 651.336 1622.03 654.641C1627.97 657.856 1633.91 661.13 1639.4 665.142C1642.84 667.718 1645.72 670.968 1647.87 674.694C1650.01 678.42 1651.38 682.544 1651.89 686.816Z" fill="#D84592"/>
</g>
<g clip-path="url(#clip2_366_1154)">
<path d="M1694.4 317.682C1694.11 318.433 1695.76 319.774 1696.59 320.452L1701.28 312.767C1699.15 311.74 1695.3 312.362 1695.04 310.157C1692.43 309.408 1693.05 312.583 1695.56 314.596L1692.88 312.121C1695.64 316.333 1687.27 312.678 1685.71 310.084L1685.66 310.258L1697.48 324.603C1699.47 323.359 1693.2 319.943 1694.4 317.682Z" fill="#F49C83"/>
<path d="M1579.81 464.483C1579.91 463.987 1579.84 463.473 1579.62 463.017C1579.4 462.562 1579.04 462.189 1578.59 461.954C1578.88 462.848 1579.29 463.699 1579.81 464.483V464.483Z" fill="#F49C83"/>
<path d="M1700.24 327.952L1703.92 332.46C1702.86 330.824 1701.63 329.312 1700.24 327.952V327.952Z" fill="#F49C83"/>
<path d="M1635.94 272.293C1635.69 272.109 1635.42 271.945 1635.13 271.804L1637.09 273.992C1636.73 273.391 1636.35 272.838 1635.94 272.293Z" fill="#F49C83"/>
<path d="M1695.26 373.875C1695.28 374.115 1695.23 374.289 1695.24 374.559C1695.32 374.339 1695.33 374.099 1695.26 373.875V373.875Z" fill="#F49C83"/>
<path d="M1622.09 235.071L1624.47 241.235C1622.62 239.446 1622.24 241.464 1620.2 239.192C1620.38 239.662 1620.47 241.392 1621.77 241.743L1622.04 240.981C1627.14 246.664 1630.2 247.099 1633.08 253.016C1637.9 253.522 1635.04 250.592 1632.82 247.847C1632.66 247.391 1632.55 246.916 1632.51 246.433L1625.59 238.168L1622.09 235.071Z" fill="#F49C83"/>
<path d="M1580.77 395.333L1580.34 394.965C1580.47 395.104 1580.61 395.227 1580.77 395.333Z" fill="#F49C83"/>
<path d="M1578.54 393.427L1580.33 394.96C1579.51 394.095 1579.07 392.776 1578.54 393.427Z" fill="#F49C83"/>
<path d="M1696.59 324.83C1697.89 325.771 1699.11 326.818 1700.23 327.96L1697.45 324.589C1697.18 324.71 1696.89 324.791 1696.59 324.83Z" fill="#F49C83"/>
<path d="M1684.72 313.632L1685.66 310.234L1683.11 307.143C1683.62 309.005 1683.65 310.805 1684.72 313.632Z" fill="#F49C83"/>
<path d="M1701.84 371.706C1698.93 378.27 1695.58 365.531 1692.07 367.096C1691.86 369.294 1694.87 372.133 1695.27 373.872C1695.47 367.228 1706.15 381.933 1707.45 375.974C1713.25 380.7 1711.96 383.857 1709.18 384.376C1701.99 382.278 1705.88 379.885 1700.3 375.624C1700.01 378.176 1701.31 378.557 1704.1 381.567C1700.71 383.651 1707.25 392.65 1697.83 388.95C1697.69 391.998 1700.63 393.754 1702.91 397.078C1709.09 401.585 1708.43 396.05 1713.97 398.581C1712.98 398.341 1712.04 397.913 1711.21 397.322L1713.81 396.322C1710.39 396.641 1707.61 391.834 1707.75 390.545C1708.08 389.758 1708.73 388.188 1710.36 389.547L1711.03 391.514C1713.96 391.481 1708.38 385.431 1712.8 386.281C1714.28 387.148 1714.59 388.138 1715.44 388.799C1712.15 384.308 1713.46 382.929 1711.9 378.533L1717.35 384.072C1711.57 377.563 1716.35 374.581 1722 374.008C1720.7 373.643 1719.56 373.741 1718.58 372.584C1718.19 369.839 1723.42 371.354 1726.24 374.345C1722.07 369.209 1734.93 370.683 1729.57 363.887L1703.98 332.397C1704.49 333.103 1704.82 333.92 1704.94 334.78C1698.72 332.154 1699.07 333.105 1694.85 328.036C1696.77 331.589 1701.67 333.84 1700.33 336.477C1698.12 333.697 1691.86 329.328 1689.66 331.274C1691.41 340.805 1704.76 355.058 1709.21 365.932C1704.78 363.341 1703.15 368.511 1700.73 370.001C1696.65 366.169 1696.36 363.729 1696.5 361.476C1695.54 362.314 1694.26 364.008 1693.21 365.191L1701.84 371.706Z" fill="#F49C83"/>
<path d="M1696.41 348.38C1696.04 348.303 1695.67 348.282 1695.3 348.32C1695.65 348.477 1696.04 348.498 1696.41 348.38Z" fill="#F49C83"/>
<path d="M1696.9 361.118L1696.45 360.793L1696.44 361.53C1696.58 361.378 1696.74 361.24 1696.9 361.118V361.118Z" fill="#F49C83"/>
<path d="M1685.94 319.984C1684.94 318.844 1684.75 318.36 1683.74 317.212C1683.99 317.686 1684.2 318.179 1684.38 318.685C1684.74 319.287 1685.29 319.746 1685.94 319.984V319.984Z" fill="#F49C83"/>
<path d="M1694.3 323.662L1695.96 324.983C1696.18 324.952 1696.39 324.901 1696.6 324.831C1695.92 324.285 1695.14 323.887 1694.3 323.662Z" fill="#F49C83"/>
<path d="M1648.24 368.503L1648.79 369.689C1648.94 369.298 1648.66 368.903 1648.24 368.503Z" fill="#F49C83"/>
<path d="M1690.2 373.532C1691.16 371.202 1683.97 369.066 1685.88 366.141L1684.92 366.736C1683.59 362.86 1687.19 360.015 1688.59 357.39C1690.94 359.351 1692.67 357.916 1696.45 360.793C1696.61 358.489 1696.83 356.225 1693.3 352.693C1695.32 352.509 1692.74 348.577 1695.31 348.335C1692.54 347.341 1688.39 341.154 1689.24 346.316C1689.08 345.845 1688.43 345.653 1688.26 345.175C1683.55 345.087 1688.7 349.613 1687.6 351.467C1684.55 351.026 1684.91 347.219 1683.32 347.632C1684.06 351.284 1675.91 352.803 1684.9 358.49C1684.47 360.533 1682.35 359.474 1680.4 358.902C1688.21 367.724 1669.98 365.786 1682.09 373.766C1682.24 372.507 1683.53 371.131 1681.86 368.039L1690.2 373.532Z" fill="#F49C83"/>
<path d="M1684.39 323.823C1684.24 323.9 1684.18 324.103 1684.02 324.143C1684.16 324.058 1684.28 323.949 1684.39 323.823V323.823Z" fill="#F49C83"/>
<path d="M1736.31 320.461L1743.78 326.382C1742.59 332.494 1739.18 332.867 1736.77 337.39C1736.34 337.27 1735.94 337.039 1735.61 336.72C1735.29 336.401 1735.05 336.005 1734.93 335.569C1733.93 339.181 1729.37 342.638 1731.64 347.185C1730.96 348.112 1726.81 349.005 1725.07 346.545C1725.48 347.463 1725.82 348.436 1725.22 348.818C1722.26 347.115 1725.17 347.08 1722.86 345.537C1722.4 345.84 1721.73 345.648 1722.6 346.342C1720.58 344.026 1712.38 340.868 1714.71 337.649C1722.24 340.643 1714.02 340.462 1721.89 344.431C1722.68 343.353 1719.71 341.648 1718.86 340.975C1719.93 339.672 1721.76 340.895 1723.4 342.051C1721.45 340.047 1725.78 340.305 1722.77 337.33C1723.95 334.217 1728.24 341.026 1729.3 339.175L1722.46 333.361L1725.77 331.28C1725.88 325.284 1712.42 323.647 1711.3 316.03C1714.81 319.161 1722.64 321.363 1725.66 320.034C1725.06 321.585 1728.34 327.23 1724.98 327.589C1732.46 328.821 1723.5 331.481 1731.05 334.461C1728.66 331.199 1729.54 328.862 1732.28 328.345L1732.64 329.31C1734.52 328.103 1727.49 321.828 1732 321.372C1732.5 320.051 1734.48 321.609 1736.1 322.926C1735.56 321.224 1734.65 319.412 1736.31 320.461ZM1736.29 323.994L1734.54 325.093C1736 325.504 1736.34 324.893 1736.29 323.994Z" fill="#F49C83"/>
<path d="M1682.41 206.825L1683.24 206.077C1683.05 206.135 1682.89 206.232 1682.74 206.361C1682.6 206.49 1682.49 206.648 1682.41 206.825V206.825Z" fill="#F49C83"/>
<path d="M1670.67 170.612L1669.79 168.148C1669.54 168.729 1669.99 169.609 1670.67 170.612Z" fill="#F49C83"/>
<path d="M1715 140.96C1715.69 141.18 1716.4 141.298 1717.12 141.312C1716.81 141.109 1716.46 140.973 1716.1 140.912C1715.74 140.852 1715.36 140.868 1715 140.96V140.96Z" fill="#F49C83"/>
<path d="M1670.84 171.069L1671.03 171.072L1670.66 170.591L1670.84 171.069Z" fill="#F49C83"/>
<path d="M1654.81 201.918C1654.91 202.276 1655.04 202.626 1655.18 202.968C1655.18 202.586 1655.05 202.216 1654.81 201.918V201.918Z" fill="#F49C83"/>
<path d="M1676.91 214.115C1676.97 214.483 1677.1 214.835 1677.3 215.152L1676.91 214.115Z" fill="#F49C83"/>
<path d="M1642.63 236.089L1642.93 237.986C1643.04 237.669 1643.07 237.33 1643.02 236.999C1642.96 236.669 1642.83 236.356 1642.63 236.089V236.089Z" fill="#F49C83"/>
<path d="M1669.95 214.209L1670.86 215.044C1670.67 214.667 1670.34 214.371 1669.95 214.209V214.209Z" fill="#F49C83"/>
<path d="M1644.24 220.178C1644 220.058 1643.79 219.932 1643.54 219.829C1643.56 219.9 1643.59 219.965 1643.64 220.021C1643.69 220.078 1643.75 220.124 1643.81 220.156C1643.88 220.189 1643.95 220.208 1644.02 220.211C1644.1 220.215 1644.17 220.204 1644.24 220.178V220.178Z" fill="#F49C83"/>
<path d="M1716.18 118.918C1716.02 119.081 1715.89 119.276 1715.81 119.491C1715.72 119.706 1715.68 119.935 1715.69 120.166C1715.89 120.031 1716.04 119.84 1716.13 119.617C1716.21 119.395 1716.23 119.151 1716.18 118.918Z" fill="#F49C83"/>
<path d="M1685.2 305.647C1686.69 306.505 1691.18 306.06 1687.36 303.698C1686.52 304.128 1685.67 304.567 1684.84 305.04L1685.2 305.647Z" fill="#F49C83"/>
<path d="M1682.7 306.021C1682.86 306.39 1683 306.769 1683.11 307.156L1682.3 306.186L1680.13 307.067C1680.26 307.399 1680.33 307.756 1680.31 308.114C1680.1 307.786 1679.83 307.5 1679.51 307.272L1678.74 307.507C1681.84 311.282 1682.68 316.302 1684.39 318.702C1685.29 320.997 1685.31 323.085 1684.4 323.839C1685.03 323.016 1684.97 321.364 1682.58 320.327C1679.2 320.649 1672.19 317.342 1675.8 323.944L1676.87 322.114L1682.67 331.499C1678.28 330.659 1679.78 326.813 1677.11 324.292C1679.23 330.065 1666.51 325.523 1672.84 331.643C1668.4 329.069 1661.01 324.762 1660.12 327.07C1665.97 328.785 1662.48 330.329 1668.51 332.523C1670.52 334.843 1665.49 333.793 1668.62 335.998L1666.97 334.647C1657.92 333.697 1667.83 341.768 1670.36 345.548C1669.4 350.864 1665.41 350.97 1663.85 354.816C1660.9 353.069 1652.41 348.784 1651.81 350.325C1655.26 353.514 1655.02 357.752 1659.76 361.364C1663.45 360.312 1656.94 356.621 1656.74 354.405C1662.74 356.639 1661.95 357.699 1666.17 358.103C1663.26 358.095 1664.84 365.939 1659 364.157L1658.66 363.184C1654.14 363.547 1641.63 355.796 1646.45 364.62L1648.24 368.498C1647.8 368.055 1647.23 367.675 1646.83 367.333C1644.28 369.992 1639.24 365.39 1641.43 371.716C1641.27 371.23 1640.62 371.022 1640.46 370.538C1636.44 370.548 1640.64 376.21 1640.81 378.422C1636.12 376.491 1636.93 375.455 1634.34 372.896C1630.48 375.104 1635.02 383.483 1638.56 389.002L1634.68 389.482C1633.88 387.041 1630.66 382.517 1627.92 381.202C1627.93 382.932 1630.01 384.045 1628.08 385.152C1625.65 383.047 1623.75 380.669 1620.98 377.624C1614.27 377.992 1629.69 384.813 1620.05 381.631C1619.24 382.667 1622.63 385.939 1625.68 388.254L1620.22 387.316C1624.07 390.334 1622.63 392.903 1622.13 394.912C1623.71 396.32 1627.26 396.642 1626.14 394.959C1629.18 397.282 1629.49 400.007 1628.67 401.04C1620.04 395.511 1624.79 408.899 1615.91 400.625C1615.14 407.33 1611.11 414.662 1612.25 420.369C1609.23 419.725 1607.55 421.771 1604.62 417.636C1601.84 421.464 1608.65 429.664 1603.55 431.773C1602.29 431.312 1604.78 430.016 1601.96 428.096C1603.33 433.028 1595.07 429.938 1594.34 435.389C1594.68 434.634 1593.15 433.162 1592.37 432.427C1593.77 433.391 1593.97 436.131 1594.52 438.119C1593.4 438.133 1594.11 436.631 1592.83 436.149C1583.43 440.485 1589.95 454.617 1583.62 461.541C1585.41 459.563 1580.76 454.531 1578.62 452.776L1576.91 454.683C1578.92 457.586 1577.68 459.085 1578.61 461.946C1577.5 461.295 1575.94 461.038 1575.21 459.4C1566.69 458.975 1579.7 473.472 1572.98 476.126L1567.29 461.477L1562.47 459.887L1559.77 453.364C1555.65 452.481 1561.24 459.326 1557.14 456.234C1556.29 454.988 1557.27 454.513 1555.16 452.714C1552.42 452.867 1555.26 455.436 1555.14 457.168C1549.47 447.584 1554.11 442.14 1554.57 437.528C1554.32 436.538 1556.21 439.514 1556.96 440.274C1557.71 438.824 1560.82 440.14 1560.67 437.456C1558.01 433.736 1557.55 436.154 1556.56 436.615C1553.66 434.082 1554.14 433.835 1554.39 432.662C1558.53 435.687 1559.57 429.182 1565.37 431.974C1567.72 426.386 1554.41 424.509 1559.62 421.389L1565.27 423.66C1563.71 418.243 1563.1 412.427 1566.35 410.243L1566.04 411.006C1567.71 412.939 1569.46 413.193 1570.71 413.671C1574.43 412.947 1570.3 406.64 1576.02 408.822C1573.02 402.532 1572.52 395.537 1572.06 390.633C1578.86 394.413 1574.54 398.408 1577.51 402.498L1579.47 399.775C1578.35 401.509 1580.22 403.936 1582.97 407.548C1585.91 406.033 1581.04 401.196 1581.08 397.772C1582.65 399.202 1583.91 399.671 1584.71 398.66L1580.79 395.309C1580.97 395.435 1581.17 395.521 1581.39 395.559C1581.61 395.597 1581.83 395.587 1582.04 395.53L1582.41 389.672C1580.02 389.228 1576.39 386.635 1575.6 387.622C1578.28 389.021 1578.12 390.249 1577.31 391.234C1575.26 388.345 1574.28 390.58 1572.08 388.91C1573.68 386.932 1574.96 383.988 1574.8 381.817L1578.94 384.182C1581.35 382.938 1580.71 379.286 1582.79 378.759L1584.52 380.63C1587.43 379.128 1586.62 375.016 1591.91 375.577C1589.01 370.314 1587.19 365.016 1583.78 360.032C1579.42 355.611 1594.41 358.131 1589.02 350.834C1589.67 351.042 1591.65 355.094 1593 357.228C1594.89 356.151 1589.55 350.56 1595.16 353.71C1590.89 356.091 1599.51 356.422 1599.88 359.087C1600.48 358.141 1600.8 357.046 1600.81 355.927C1600.82 354.808 1600.51 353.709 1599.93 352.753C1598.08 355.517 1593.29 346.773 1593.7 351.099C1590.74 345.906 1590.96 341.764 1594.46 340.418C1596.73 342.001 1598.01 342.409 1599.61 342.081L1596.8 339.055C1598.22 338.243 1599.17 344.066 1601.99 342.424C1597.97 336.065 1610.29 337.009 1600.47 328.836C1605.91 329.713 1602.25 335.307 1609.29 335.845C1611.98 340.087 1606.06 339.481 1610.95 343.583C1610.56 340.915 1615.8 345.974 1616.56 344.936L1614.56 340.906L1614.07 341.158C1611.17 334.72 1616.82 331.423 1618.61 326.903C1615.53 320.048 1609.32 312.677 1612.53 309.001C1614.88 312.249 1617.73 307.605 1621.82 313.915C1625.83 313.863 1623.75 309.836 1621.44 308.299C1619.57 309.434 1620.32 308.397 1618.27 309.043C1616.07 306.271 1617.6 304.197 1620.01 304.502C1619.53 304.754 1620.18 304.972 1621 305.637C1624.18 304.899 1618.82 302.873 1618.57 300.686C1622.8 302.794 1621.66 298.235 1624.55 298.269L1620.15 292.748C1623.17 296.172 1622.66 291.818 1626.27 293.717C1624.54 290.683 1620.68 286.618 1623 285.173C1624.38 287.267 1626.98 285.072 1630.79 287.434C1636.67 286.169 1624.27 274.966 1631.82 275.036C1632.63 275.703 1634.67 277.968 1636.26 277.581C1635.69 276.13 1637.01 275.056 1637.13 273.959L1637.22 274.054L1637.15 273.932C1637.21 273.397 1636.91 272.843 1636 272.252C1633.21 268.483 1629.89 265.328 1628.54 260.565C1624.08 258.031 1624.25 261.436 1625.01 263.359L1628.71 266.95C1621.63 263.657 1628.23 270.188 1625.63 269.437C1619.06 262.898 1624 259.268 1621.14 253.402C1613.99 251.353 1610.62 254.575 1609.22 258.375L1612.75 258.566L1611.73 260.366L1617.39 261.592C1615.54 262.738 1615.8 264.922 1614.59 266.254C1615.62 264.443 1621.99 267.567 1620.43 267.94C1614.95 267.2 1621.9 271.745 1620.68 273.077C1621.61 272.499 1622.37 271.453 1624.39 273.739C1617.32 273.359 1620.19 276.331 1612.95 275.48C1620.36 279.752 1611.55 279.285 1617.17 283.468L1618.56 282.603L1621.21 288.024C1613.8 286.674 1616.63 282.065 1610.12 283.061C1607.22 285.967 1614.79 290.727 1613.63 293.76C1609.96 290.142 1607.67 285.683 1609.18 283.628L1606.29 283.602C1604.27 281.324 1606.69 278.691 1607.91 277.388C1611.22 282.98 1610.15 277.202 1614.69 278.52C1610.7 275.667 1610.33 277.672 1608.22 273.681C1607.18 275.481 1607.39 275.972 1604.39 277.186C1609.34 273.589 1592.86 263.7 1598.99 261.721C1599.62 264.85 1605.37 264.845 1607.52 265.887C1607.6 264.66 1607.8 262.18 1607.25 260.761L1600.86 257.654C1599.84 253.565 1613.01 260.747 1608.66 254.013C1605.32 251.376 1605.86 255.727 1605.5 254.781C1604.21 248.531 1614.71 253.251 1621.38 252.624C1619.71 251.297 1615.9 248.944 1613.51 245.744C1616.85 248.392 1619.25 248.657 1621.02 251.67C1623.26 251.486 1621.51 248.422 1620.76 246.517C1617.12 247.614 1616.23 242.269 1614.36 240.464C1615.76 239.594 1617.7 243.11 1618.24 244.51C1619.84 244.11 1625.86 246.258 1620.87 242.281C1624.67 244.629 1629.02 251.381 1628.82 253.87L1630.22 252.992C1631.61 255.086 1630.95 254.905 1629.58 255.783C1633.27 256.413 1636.43 258.569 1638.94 260.557C1638.29 260.371 1638.1 259.901 1637.47 259.711C1635.87 260.12 1636.4 261.541 1638.57 262.57C1643.07 266.685 1642.61 263.172 1645.58 264.097L1645.54 261.913L1632.55 246.379C1632.07 242.941 1636.6 244.395 1640.12 244.264L1636.05 241.057C1637.73 239.39 1640.27 238.422 1645 243.153C1643.5 242.302 1643.69 242.778 1643.21 243.07C1643.65 243.394 1644.05 243.772 1644.39 244.195L1645.09 244.776C1645.09 243.078 1645 241.383 1644.82 239.695C1648.91 247.225 1652.62 244.864 1659.98 250.325L1659.71 245.153C1655.89 245.782 1655.91 242.815 1655.34 241.365C1659.83 243.891 1657.12 238.463 1658.52 237.582L1659.36 238.234C1661.61 238.012 1662.48 235.696 1662.22 233.491C1660.72 232.637 1654.79 226.285 1651.08 222.686C1647.87 224.17 1647.07 221.579 1644.24 220.081C1644.65 219.979 1645 219.545 1644.48 219.141C1643.47 218.003 1642.52 218.592 1641.04 217.752C1641.38 221.699 1640.23 224.804 1645.61 229.711C1648.87 230.627 1643.86 226.663 1646.28 226.906C1649.52 230.8 1647.64 231.999 1646.15 234.115L1642.07 232.641L1642.65 236.092C1641.3 233.957 1637.15 232.113 1637.88 229.339C1634.24 227.486 1637.21 232.125 1635.17 232.82L1639.55 236.605C1637.03 234.624 1634.59 237.335 1632.28 232.863L1630.53 226.867L1626.61 225.77L1627.55 222.219L1629.61 224.513C1629.27 217.633 1640.09 229.182 1637.46 220.736C1632.56 215.531 1632.96 213.505 1636.26 211.429C1636.21 214.405 1640.25 214.248 1643.12 217.193C1646.96 216.555 1642.59 212.762 1641.04 210.205C1644.48 211.592 1647.26 212.792 1645.58 214.461C1651.89 218.793 1646.08 211.183 1652.86 215.21C1656.75 208.595 1634.6 196.415 1647.74 194.08L1650.24 196.066C1649.99 189.084 1654.97 188.313 1655.73 182.477L1664.81 183.282C1665.35 184.744 1669.09 190.107 1673.01 191.215C1665.02 188.534 1666.27 191.901 1661.38 191.399C1663.05 192.729 1664.83 192.796 1666.15 193.171C1665.36 194.25 1661.94 192.836 1662.18 195.079C1663.65 195.914 1666.38 195.398 1666.45 197.141L1660.93 196.452C1661.24 200.424 1670.26 204.221 1666.3 206.136C1662.88 203.15 1658.16 198.475 1658.05 196.669C1656.3 197.573 1656.98 193.291 1653.87 193.169C1658.17 198.803 1653.06 197.009 1654.86 201.979C1654.27 201.159 1653.23 200.377 1653.31 199.489L1648.42 201.972C1652.34 203.059 1649.95 207.544 1655.08 210.259C1659.78 207.292 1656.04 206.679 1661.87 203.588C1662.1 205.665 1665.97 210.563 1670.01 214.286C1669.92 214.241 1669.82 214.217 1669.72 214.214C1669.61 214.211 1669.51 214.23 1669.42 214.269C1673.78 218.063 1675.56 218.133 1684 223.489C1679.38 217.485 1685.25 219.144 1683.46 214.363C1679.15 210.938 1676.6 212.141 1676.97 214.192L1675.37 209.954L1677.21 211.751L1682.47 206.902C1682.02 208.166 1684.45 210.241 1686.11 212.099C1686.77 211.463 1688.48 211.481 1690.31 211.55C1685.79 208.918 1682.75 206.834 1683.3 206.154C1686.72 203.041 1692.01 203.509 1697.93 205.319L1697.88 204.668C1692.97 202.418 1691.46 196.83 1687.59 192.72C1692.22 195.754 1691.62 192.574 1694.7 193.017C1689.71 189.012 1681.84 185.046 1676.62 183.571C1679.9 189.266 1680.65 188.156 1686.83 193.801L1688.86 200.813L1685.17 197.179C1681.99 198.014 1686.39 203.556 1680.92 199.867C1677.9 196.43 1681.28 196.095 1678.24 192.647L1675.35 192.701C1671.41 186.841 1681.38 194.839 1679.41 189.529C1674.01 187.573 1679.24 189.053 1676.85 185.795C1672.93 184.693 1674.97 191.731 1667.5 185.736C1664.95 181.993 1680.1 186.714 1673.4 179.618L1674.25 180.299C1677.12 178.05 1673.22 174.072 1671.07 171.112C1674.47 171.529 1671.94 167.447 1672.54 165.904L1674.84 167.441L1675.11 164.896C1678.77 168.546 1673.54 167.053 1673.09 169.112L1677.55 171.692C1671.19 170.277 1678.17 176.576 1680.96 180.427C1678.59 175.889 1685.93 175.088 1677.81 169.125L1683.04 170.624L1681.87 168.97C1685.81 170.094 1690.27 174.436 1690.03 176.96C1689.02 176.767 1688.06 176.342 1687.23 175.717C1688.6 177.849 1691.43 180.822 1689.05 182.313L1687.5 179.701C1685.45 182.163 1685.59 185.651 1689.28 189.291C1693.1 186.789 1696.24 183.372 1698.42 179.35C1689.33 171.978 1684.67 167.155 1675.94 160.716C1675.85 157.195 1676.76 153.071 1681.43 153.12L1683.08 154.479C1684.68 154.055 1684.81 152.784 1684.29 151.317C1687.38 151.782 1688.6 155.197 1690.37 155.281L1689.6 149.809C1693.55 152.713 1691.67 155.651 1691.06 157.229C1690.88 156.737 1690.55 155.762 1689.89 155.573C1687.15 156.092 1692.18 163.655 1685.79 160.497C1686.31 161.956 1682.45 156.046 1680.4 158.514C1677 158.852 1681.96 162.897 1683.63 164.242C1685.93 165.78 1688.63 163.515 1690.79 166.314C1691.4 164.736 1688.76 162.234 1692.16 161.92C1691.54 163.479 1695.05 168.408 1690.96 166.795C1693.53 172.329 1704.71 179.008 1706.13 178.127C1702.52 176.217 1705.12 170.458 1698.36 171.107C1695 166.654 1696.86 163.709 1695.48 159.825L1696.3 160.498L1696.89 157.177C1697.87 158.344 1698.39 159.801 1700.69 161.338L1696.81 153.672C1699.67 158.438 1700.5 154.323 1702.99 154.605C1699.7 151.89 1698.05 148.771 1695.12 148.786C1691.54 148.619 1696.44 150.937 1695.8 152.496L1691.54 146.848L1692.2 147.037L1688.43 142.846C1690.53 140.415 1698.27 151.019 1696.08 144.653L1689.56 140.984C1693.14 137.604 1703.52 137.175 1702.53 132.467C1705.54 135.616 1710.98 139.731 1715.04 140.936C1713.17 141.417 1711.78 143.964 1711.21 146.084C1709.9 145.692 1705.32 139.047 1707.91 138.055C1697.15 132.187 1710.89 146.868 1700.45 140.219C1693.63 142.631 1708.01 150.379 1699.23 150.422C1703.82 153.518 1700.72 153.06 1704.66 155.953C1712.98 159.719 1708.01 150.387 1712.38 149.505C1712.62 150.32 1713.07 151.056 1713.7 151.635C1716.29 150.666 1715.8 149.204 1714.94 146.764L1714.29 146.569C1711.33 141.286 1718.67 147.447 1721.58 147.462C1721.25 146.484 1723.82 145.513 1720.24 143.56L1726.22 144.066L1721 140.711C1721.63 139.133 1725.2 141.115 1722.92 137.773L1718.38 134.62L1714.5 136.959C1714.17 134.216 1710.45 133.525 1710.74 130.973C1714.34 136.507 1714.28 131.162 1718.67 133.844L1717.05 130.693L1718.03 131.879C1721.12 132.381 1717.18 129.415 1718.67 128.538C1715.08 128.321 1711.22 127.135 1713.17 131.275C1711.55 128.124 1710.55 123.397 1710.9 122.608C1710 119.829 1714.19 121.171 1715.67 120.142C1715.66 124.035 1730.15 128.668 1723.2 131.707C1722.39 131.016 1722.89 130.721 1723.54 130.926C1717.2 127.652 1721.75 134.343 1723.23 136.994C1726.79 138.98 1726.83 140.742 1730.04 139.976C1727.45 139.182 1723.66 133.189 1727.77 133.13L1734.75 138.408L1737.53 136.204L1737.69 136.698C1743.04 138.821 1738.85 133.116 1742.89 133.071C1741.27 129.941 1747 126.031 1737.94 123.13C1743.6 124.511 1738.95 119.036 1739.31 116.482L1734.77 116.808C1731.61 110.459 1734.34 113.564 1727.79 105.633C1729.89 106.773 1731.84 107.399 1733.56 109.288C1736.49 105.76 1742.34 101.902 1738.16 95.5668C1740.37 93.1452 1748.97 98.715 1748.39 92.7065C1747.96 91.214 1741.37 88.5365 1745.17 87.5576C1745.81 87.7789 1748.68 93.7014 1750.09 90.5854C1746.09 84.7016 1756.37 88.2389 1753.51 82.2867C1756.42 82.3929 1757.35 79.5501 1761.26 83.1921C1758.77 84.5651 1757.5 88.1893 1759.22 90.1428C1756.86 87.9574 1755.65 89.797 1754.8 86.788C1749.27 87.5894 1755.95 90.7837 1751.68 92.0145C1753.26 93.4519 1757.48 94.0082 1756.39 92.2734C1762.23 96.5389 1755.16 99.9078 1763.99 102.503C1766.67 99.8774 1755.17 90.065 1763.2 91.9519C1765.99 95.6058 1761.8 95.0439 1766.96 100.848L1770.86 100.437L1767.78 95.788L1768.57 96.5093C1776.65 96.6787 1765.09 88.5867 1764.72 83.0426C1759.2 81.996 1755.02 75.0865 1751.42 74.733C1752.43 71.8947 1754.48 70.7997 1760.27 75.1326C1761.76 82.8998 1766.19 79.9712 1769.02 88.1667C1771.58 89.0839 1776.79 95.4084 1779.21 93.5823C1777.06 87.9147 1773.8 90.7479 1773.86 86.7415C1774.63 86.979 1775.33 87.3871 1775.91 87.9351C1773.82 84.4884 1778.06 87.3703 1775.84 83.4285L1776.74 84.6451C1781.58 85.5057 1774.25 79.7055 1779.23 81.0663C1774.51 78.4258 1776.52 77.3821 1774.58 74.3953C1771.78 74.715 1765 70.897 1762.97 74.2536C1766.07 77.185 1768.12 78.3785 1768.8 80.877L1769.91 78.5687C1770.26 79.5018 1770.67 80.4131 1771.13 81.2978L1767.9 81.8901C1767.35 77.6356 1762.86 76.0227 1760.13 72.3226C1763.33 71.1939 1760.62 69.758 1762.81 69.1874C1767.67 73.0892 1774.58 71.3111 1779.71 71.212C1779.21 71.4668 1778.94 72.0631 1778.6 72.2465C1780.3 76.4941 1783.7 74.1372 1785.1 75.1203L1783.67 71.8678C1783.82 72.3893 1784.7 73.6274 1785.83 73.5912C1786.31 71.0669 1781.35 67.3773 1781.84 64.8288C1784.64 66.8029 1787.57 71.5444 1789.86 71.5198C1792.52 72.975 1799.73 76.6485 1799.17 72.3859C1798.8 71.9714 1798.52 71.4737 1798.37 70.933C1798.22 70.3923 1798.2 69.8237 1798.31 69.273C1798.34 69.492 1798.41 69.7021 1798.53 69.8896L1802.73 70.6491C1806.22 75.5995 1798.39 71.6298 1801.98 76.6298L1806.27 80.1812C1805.48 81.2597 1806.29 84.1383 1808.05 86.5773C1810.01 85.5636 1809.12 84.3309 1809.58 81.8282C1811.48 83.0988 1812.95 84.9181 1813.79 87.0442L1811.5 84.8205C1806.24 84.1095 1813.28 91.2941 1810.44 93.2698C1809.96 93.5192 1809.82 93.0323 1809.06 92.2972C1811.69 97.7182 1804.23 95.3084 1808.3 101.688L1806.5 99.2603C1807.29 102.107 1809.54 108.163 1811.69 114.047L1813.34 115.374C1814.62 115.857 1813.77 116.829 1812.65 116.847C1813.72 119.789 1814.67 122.524 1815.37 124.726C1816.7 125.176 1817.94 125.418 1818.55 125.101C1816.82 123.15 1820.39 121.931 1815.52 118.806C1819.18 119.749 1816.6 114.888 1819 115.375C1814.86 114.676 1815.47 111.02 1813.14 108.819C1816.45 110.503 1814.68 106.363 1818.43 109.534C1819.67 110.001 1815.26 108.324 1817.09 110.753C1819.49 115.125 1822.54 110.244 1824.47 114.876C1823.68 110.251 1827.43 107.809 1825.88 102.409L1823.16 102.655C1824.62 101.902 1825.9 98.4804 1827.92 99.733C1827.7 100.953 1826.87 101.934 1826.81 103.668C1831.14 107.117 1828.83 100.984 1831.62 102.958L1826.89 94.0721L1825.56 95.3018C1823.57 92.297 1829.11 91.8961 1831.46 90.2364C1836.41 96.1959 1828.94 93.5539 1829.58 97.762C1830.55 101.21 1836.09 101.26 1836.33 103.952C1838.02 104.629 1838.64 103.475 1837.54 101.794L1839.07 102.006C1843.37 107.651 1839.79 109.845 1842.87 115.551C1842.43 114.893 1841.92 114.283 1841.35 113.731C1838.02 113.689 1836.83 115.393 1837.1 118.054C1839.46 118.557 1838.53 117.317 1838.25 116.378C1839.64 117.359 1839.09 119.304 1840.17 120.983C1842.87 120.766 1843.59 123.187 1845.19 122.968C1845.77 124.905 1844.81 125.366 1843.37 126.071C1840.85 125.084 1840.9 123.404 1838.1 121.454C1838.83 123.874 1831.93 119.473 1833.73 123.591C1836.64 122.156 1839.17 128.684 1840.4 130.852L1840.87 130.606C1843.5 133.73 1843.17 134.442 1839.87 132.745C1839.28 130.819 1840.88 130.603 1837.43 128.413C1837.18 128.848 1837.04 129.331 1837 129.828C1836.96 130.326 1837.03 130.827 1837.2 131.295L1835.35 128.892L1833.67 132.481C1836.16 135.092 1839.62 138.946 1843.5 142.543C1840.33 141.329 1841.76 144.005 1842.24 145.451L1841.28 144.232C1837.82 143.789 1837.65 148.387 1840.02 150.519C1837 149.864 1828.87 131.519 1826.12 140.308C1824.2 143.001 1833.08 147.958 1834.81 151.54C1834.38 151.158 1833.9 150.842 1833.39 150.6C1831.95 151.34 1834.99 153.704 1835.61 155.615C1837.35 155.83 1838.13 154.861 1837.19 153.683C1840.36 156.523 1835.14 155.865 1837.2 158.711C1832.75 153.733 1833.56 159.479 1831.49 156.633C1826.41 156.481 1828.8 161.966 1831.85 165.967C1824.05 162.779 1830.73 169.287 1825.87 169.73C1826.35 169.481 1825.84 168.037 1826.95 167.991C1823.73 163.504 1822.86 169.107 1820.56 164.08C1820.89 165.045 1822.79 165.714 1822.47 164.738C1822.61 163.532 1821.33 161.415 1819.25 160.254L1814 159.706L1813.49 158.233L1806.05 157.813C1806.86 158.419 1807.78 158.875 1808.76 159.16C1803.83 161.334 1803.78 167.666 1800.79 170.477C1812.43 179.433 1800.34 182.134 1805.97 189.865C1802.96 186.775 1797.1 182.221 1794.27 180.947C1794.17 180.006 1790.1 175.469 1792.08 174.797C1794.17 175.904 1797.53 175.746 1799.01 178.335C1800.22 173.678 1793.36 175.205 1789.61 171.029C1787.88 175.957 1793.36 183.269 1794.45 187.85L1792.98 186.946L1794.36 190.776C1796.25 189.688 1803.09 194.416 1799.28 194.885L1799.11 194.404C1795.41 193.627 1797.15 198.43 1795.47 199.992L1798.59 203.912C1796.88 205.464 1789.39 200.598 1784.52 198.248C1782.03 200.847 1787.01 206.6 1789.26 211.075C1785.36 209.85 1781.7 213.818 1779.27 208.843C1780.39 213.429 1798.24 224.323 1785.57 222.59L1783.21 219.32C1781 224.161 1783.22 234.498 1778.58 234.375C1768.28 225.417 1763.46 232.41 1751.77 226.05C1754.46 227.462 1754.24 229.686 1755.44 230.811C1753.89 230.34 1752.24 230.14 1754.13 232.262C1757.48 231.956 1764.93 240.906 1762.55 234.691C1769.13 241.281 1773.75 247.261 1771.01 250.709L1766.38 247.677L1769.66 245.664C1766.03 243.759 1767.25 242.427 1766.05 240.806C1759.98 244.559 1755.6 233.121 1752.67 239.064C1755.35 241.528 1754.32 240.385 1754.6 242.592C1754.86 241.788 1751.74 239.644 1750.98 240.701L1754.04 244.127C1745.03 241.116 1751.03 237.68 1744.51 235.859C1742.2 231.382 1742.63 226.388 1736.24 223.281C1731.84 225.426 1745.36 233.562 1740.33 235.519L1737.53 234.273C1738.44 236.67 1742.41 239.492 1744.44 241.775C1742.96 240.921 1741.66 240.567 1740.74 241.124C1745.35 247.114 1745.63 249.295 1750.88 255.467C1749.37 247.003 1758.35 253.796 1757.48 245.508C1758.86 247.602 1757.81 252.385 1764.11 256.719L1759.47 253.693C1760.77 257.054 1762.03 260.341 1759.06 261.608L1757.3 258.571C1758.66 263.605 1747.05 259.034 1753.34 266.335C1753.55 266.239 1753.73 266.103 1753.88 265.935C1754.04 265.767 1754.16 265.57 1754.23 265.356C1754.31 265.142 1754.34 264.915 1754.33 264.688C1754.32 264.461 1754.26 264.238 1754.17 264.033C1755.27 266.902 1753.58 268.548 1751.73 269.726L1757.27 278.081C1754.96 276.583 1753.44 278.713 1750.4 275.297C1745.26 275.554 1751.49 281.139 1751.75 283.339C1745.16 282.768 1750.93 279.726 1744.63 275.389C1740.23 277.559 1739.83 282.539 1742.78 287.189C1744.02 286.991 1745.28 287.272 1746.32 287.973C1744.78 287.149 1744.27 288.815 1743.72 289.58L1746.42 292.044C1743.53 292.071 1741.86 290.758 1740.26 288.186C1738.88 289.075 1743.78 294.282 1738.56 292.828C1736.25 288.351 1741.2 287.602 1739.63 285.041C1739.78 291.439 1727.49 283.763 1727.73 291.931C1726.24 291.091 1724.02 288.332 1723.28 289.417C1722.78 292.687 1729.12 294.036 1731.99 296.973C1731.36 293.801 1733.78 294.033 1738.35 295.322L1740.47 297.401C1739.14 296.676 1738.28 297.86 1736.82 297.46L1741.64 300.948C1736.16 297.292 1730.67 296.611 1731.77 299.48C1736.8 300.445 1736.32 300.745 1742.93 304.306C1747.56 310.297 1735.47 303.069 1740.26 309.548C1738.6 308.238 1738.62 305.244 1736.08 306.241C1734.86 307.627 1739.33 310.153 1740.06 312.058C1736.16 307.97 1732.53 306.098 1727.82 301.366C1728.95 298.267 1728.57 300.305 1728.24 296.36L1722.89 296.144C1723.59 293.352 1718.64 291.115 1716.98 289.791C1709.77 290.756 1722.15 297.2 1719.33 298.978C1721.74 302.215 1721.5 297.024 1723.62 301.042C1721.44 302.993 1726.3 303.493 1726.63 307.436L1724.79 305.641C1721.51 304.717 1724.4 307.668 1724.28 308.908C1725.03 310.832 1741.13 317.911 1738.75 322.38C1737.97 321.667 1737.15 321.013 1736.28 320.423L1699.96 291.651C1697.34 296.027 1693.11 300.317 1687.34 303.645C1678.99 299.987 1683.33 296.106 1679.71 294.239L1682.72 292.955C1685.86 295.125 1680.68 298.349 1687.69 299.905C1687.92 294.406 1692.79 294.943 1688.55 286.921C1680.17 283.284 1686.73 292.804 1679.26 291.55C1680.42 290.825 1680.14 289.416 1679.59 287.874C1677.11 289.559 1674.47 291.373 1671.65 293.319L1673.11 295.081C1675.1 293.845 1676.53 293.025 1676.91 293.039C1674.74 294.979 1677.69 299.651 1683.16 303.35L1683.63 303.055L1684.82 305.019L1682.7 306.021ZM1576.76 454.482C1576.3 453.856 1575.79 453.268 1575.23 452.724C1575.91 453.407 1576.47 453.709 1576.76 454.482ZM1693.29 247.809C1690.49 250.454 1686.95 252.69 1684.36 255.303C1698.88 256.764 1709.66 258.212 1703.67 267.193L1704.09 268.317C1706.2 267.971 1707.66 266.016 1708.08 263.567C1705.16 259.533 1693.99 245.396 1692.66 244.652C1689.25 243.25 1692.11 246.187 1690.51 246.611L1693.29 247.809ZM1713.22 257.212C1715.58 256.195 1712.88 255.064 1710.85 253.397L1710.48 255.811C1711.5 256.033 1712.44 256.516 1713.22 257.212V257.212ZM1708.57 252.119C1708.48 252.216 1708.36 252.285 1708.23 252.317C1708.1 252.349 1707.96 252.343 1707.83 252.299L1708.57 252.119ZM1683.82 285.189C1683.82 285.074 1683.79 285.015 1683.8 284.916C1683.37 285.235 1682.93 285.547 1682.48 285.876C1682.74 285.906 1683.01 285.857 1683.24 285.736C1683.48 285.615 1683.68 285.428 1683.81 285.197L1683.82 285.189ZM1691.51 284.955L1687.75 281.986C1687.34 282.288 1686.94 282.59 1686.52 282.902C1688.42 283.932 1690.1 284.797 1691.49 284.963L1691.51 284.955ZM1712.13 281.622C1707.76 277.834 1709.1 275.226 1703.61 271.557C1702.27 270.501 1701.4 270.68 1700.57 270.969L1698.8 272.749C1699.57 273.263 1700.26 273.889 1700.84 274.608C1701.99 274.326 1703.69 274.712 1706.94 277.169C1698.28 274.324 1711.2 282.203 1708.01 283.016C1711.51 286.148 1713.3 283.211 1712.12 281.63L1712.13 281.622ZM1798.69 119.801L1802.2 121.606L1803.85 124.89C1800.96 126.439 1791.87 122.801 1796.89 129.769C1794.5 129.581 1790.59 127.587 1787.32 126.025C1787.89 125.649 1788.55 125.417 1789.24 125.348C1784.03 112.185 1801.74 129.572 1798.69 119.801ZM1769.15 141.104C1768.91 140.647 1768.58 140.24 1768.18 139.907C1774.28 152.367 1774.07 158.837 1771.63 161.537C1776 163.669 1780.89 163.125 1783.4 163.004L1787.14 167.209L1783.11 165.464L1785.88 170.194C1789.3 171.736 1789.74 169.757 1792.78 170.328C1791.98 169.647 1789.01 162.725 1786.89 159.868L1781.94 160.379C1783.69 160.527 1785.1 156.284 1784.93 154.078C1782.69 152.479 1777.54 152.517 1782.22 156.194C1778.68 154.168 1780.58 151.35 1775.77 150.63C1773.66 146.054 1778.96 144.77 1781.68 144.385L1787.46 148.048C1790.81 147.889 1781.51 142.168 1786.14 142.422C1785.52 145.67 1792.56 146.33 1791.62 148.586C1794.17 149.447 1797.54 152.735 1798.48 150.486C1792.25 143.624 1804.53 151.693 1799.12 145.566C1802.13 146.205 1802.77 149.812 1805.2 148.528C1802.97 143.5 1800.11 141.639 1794.87 137.651C1791.81 138.73 1800.1 145.03 1797.53 145.854L1790.87 135.816C1789.1 135.534 1788.62 135.917 1788.7 136.581C1788.67 135.497 1787.75 133.926 1786.25 132.074L1784.14 129.292C1782.64 131.264 1781.22 132.946 1778.7 131.638L1776.27 129.534C1773.35 128.547 1774.39 131.046 1775.94 132.943C1774.97 134.969 1777.34 139.355 1773.68 137.37L1771.78 134.992C1770.94 137.796 1771.09 138.275 1769.16 141.125L1769.15 141.104ZM1713.6 211.723C1724.37 216.637 1734.04 220.658 1736.49 213.101L1736.84 214.044C1745.12 214.79 1732.78 202.447 1742.2 202.927C1744.66 207.242 1744.39 206.925 1751.51 214.512L1750.05 210.672C1755.04 214.703 1753.59 210.864 1754.85 209.541L1760.35 214.992C1757.94 214.706 1755.76 216.609 1757.26 217.481C1756.89 216.508 1747.21 215.364 1747.8 218.515C1752.25 221.095 1753.15 215.866 1759.04 222.237C1757.13 218.711 1761.57 221.291 1761.15 218.624C1763.05 222.155 1766.77 222.831 1769.14 226.063L1769.46 222.355C1770.94 223.217 1770.04 228.438 1776.81 229.61C1775.27 227.045 1780.02 225.939 1775.41 222.875L1776.88 223.734C1779.23 222.323 1770.9 218.557 1775.2 217.737C1772.89 216.19 1770.96 215.619 1770.85 216.846C1771.38 218.284 1774.5 220.484 1774.12 222.481C1770.03 220.839 1775.81 220.867 1768.96 217.977C1765.54 216.553 1768.88 223.882 1762.73 218.25L1765.07 216.826C1760.45 213.754 1761.7 212.427 1757.93 210.033C1757.04 207.644 1763.05 209.853 1759.84 205.933C1757.21 203.43 1751.01 200.74 1754.85 200.161C1762.81 202.97 1764.64 197.119 1764.92 194.67L1763.04 191.119C1760.12 189.378 1761.39 194.435 1758.38 190.979L1758.94 187.738L1760.59 189.105C1761.53 188.535 1760.2 186.424 1759.69 184.991C1762.49 187.975 1759.95 188.892 1765 191.723C1766.74 191.177 1768.64 192.178 1768.44 190.487C1768.67 191.075 1769.1 191.565 1769.65 191.876C1773.31 190.88 1765.8 186.009 1764.64 184.382C1759.99 177.82 1757.22 182.946 1752.48 179.355L1754.48 170.554C1755.64 172.2 1756.79 173.838 1758.9 174.929C1762.27 174.688 1762.65 177.38 1764.04 174.803C1757.37 170.586 1761.99 169.014 1759.35 164.757C1762.57 165.784 1763.22 165.962 1762.12 167.763C1766.51 170.424 1766.43 166.991 1767.38 166.394C1766.64 165.196 1766.57 163.953 1765.98 162.794C1764.63 162.416 1763.39 161.709 1762.37 160.736C1761.36 159.763 1760.6 158.554 1760.16 157.217L1759.34 156.523C1756.49 158.218 1749.27 158.988 1752.57 163.484L1750.76 161.623C1745.14 162.06 1754.2 173.036 1745.26 168.998C1742.16 166.75 1744.14 169.088 1739.58 165.975L1741.75 170.505L1739.96 168.675L1738.57 173L1737.76 172.327C1740.79 176.814 1743.29 180.431 1745.38 183.331C1747.41 184.655 1748.09 184.956 1749.19 186.504C1749.82 187.724 1749.68 188.268 1749.15 188.491L1749.17 188.518C1748 189.022 1744.72 187.716 1742.82 188.04L1744.52 184.327C1741.28 181.801 1737.54 179.754 1734.05 179.847C1734.37 179.079 1731.89 177.042 1730.94 177.624C1731.77 178.304 1731.67 181.278 1734.94 182.276C1734.11 186.317 1721.69 185.686 1725.04 194.831C1723.39 188.759 1718.6 194.678 1719.73 189.845C1712.44 189.025 1723.62 195.707 1720.96 197.947C1718.83 196.904 1722.2 196.598 1718.71 193.432C1713.49 196.656 1722.53 206.979 1718.02 210.397L1713.59 207.833L1713.6 211.723ZM1713.34 224.056L1713.17 227.62C1713.28 227.56 1713.34 227.495 1713.47 227.464L1715.27 232.263C1717.97 231.742 1723.41 233.695 1724.18 237.332C1722.51 236.011 1719.91 235.276 1719.36 233.841C1715.81 233.66 1711.22 235.36 1718.3 238.651C1713.96 231.882 1727.03 243.244 1723.88 238.097C1727.37 242.001 1724.7 241.985 1725.87 244.322C1723.07 240.885 1717.63 239.493 1714.8 240.213C1715.36 241.664 1713.04 243.142 1713.94 245.52C1718.22 247.579 1719.8 250.153 1722.13 248.678C1722.69 250.116 1722.77 251.837 1719.86 251.867C1719.51 250.9 1719.61 249.659 1718.12 248.814C1713.9 247.36 1713.42 248.472 1711.5 248.046L1711.3 249.784C1711.84 249.903 1712.37 250.081 1712.88 250.313L1715.46 254.023C1714.83 250.865 1717.89 254.277 1720.21 255.78C1715.58 252.796 1718.81 256.666 1718.53 257.439L1724.41 259.108C1726.45 261.413 1719.26 259.362 1724.39 262.08C1728.31 260.203 1728.22 258.476 1728.52 254.731L1723.97 253.45C1723.25 248.562 1731.79 255.652 1733.85 251.975C1731.26 248.27 1736.99 246.489 1730.02 241.963C1731.88 243.758 1737.65 243.722 1735.26 240.485C1729.71 235.073 1731.43 230.457 1727.74 229.822C1726.95 230.9 1729.53 234.589 1724.81 232.822L1724.84 229.844L1720.45 229.023C1722.14 229.081 1718.68 226.982 1713.34 224.056ZM1643.66 247.155L1643.52 247.181C1643.55 247.166 1643.58 247.139 1643.6 247.105L1643.66 247.155Z" fill="#F49C83"/>
<path d="M1545.74 379.462L1540.33 391.929C1541.96 388.385 1543.75 385.334 1545.74 379.462Z" fill="#F49C83"/>
<path d="M1738.49 133.863C1738.03 128.88 1734.18 124.13 1735.2 120.028C1726.59 120.402 1740.12 131.75 1731.86 131.33L1738.49 133.863Z" fill="#F49C83"/>
<path d="M1716.86 117.349C1722.51 120.48 1721.35 124.079 1725.56 126.296C1725.76 123.257 1721.23 121.813 1723.04 120.206L1716.86 117.349Z" fill="#F49C83"/>
<path d="M1711.59 135.215L1710.63 134.048L1707.87 134.533L1711.59 135.215Z" fill="#F49C83"/>
<path d="M1709.64 132.871L1710.63 134.049L1709.64 132.871Z" fill="#F49C83"/>
<path d="M1702.75 143.562L1703.74 146.502L1704.38 146.697L1703.39 143.756L1702.75 143.562Z" fill="#F49C83"/>
<path d="M1662.94 176.644C1665.96 175.328 1667.08 175.212 1670.23 177.403C1672.65 175.879 1666.89 172.659 1666.44 170.512C1665.48 173.385 1663.66 172.949 1662.94 176.644Z" fill="#F49C83"/>
<path d="M1666.43 170.516C1666.55 170.176 1666.65 169.829 1666.73 169.478C1666.59 169.605 1666.49 169.77 1666.43 169.953C1666.38 170.137 1666.38 170.332 1666.43 170.516Z" fill="#F49C83"/>
<path d="M1659.14 179.03C1659.61 178.733 1659.93 177.952 1661.23 178.322C1658.07 176.131 1658.67 179.328 1659.14 179.03Z" fill="#F49C83"/>
<path d="M1728.02 210.678C1730.14 211.713 1729.89 209.508 1731.03 209.41C1730.07 209.986 1723.67 206.86 1728.02 210.678Z" fill="#F49C83"/>
<path d="M1668.26 194.126C1668.74 193.832 1671.33 194.556 1673.82 196.548C1672.64 194.921 1667.47 190.449 1668.26 194.126Z" fill="#F49C83"/>
<path d="M1724.79 214.459L1726.1 214.834L1725.01 211.959L1724.79 214.459Z" fill="#F49C83"/>
<path d="M1726.78 245.728C1726.52 245.223 1726.2 244.748 1725.84 244.312C1726.09 244.821 1726.41 245.296 1726.78 245.728V245.728Z" fill="#F49C83"/>
<path d="M1640.43 211.696L1638.86 209.113L1637.29 210.113C1638.41 210.251 1642.19 213.662 1640.43 211.696Z" fill="#F49C83"/>
<path d="M1636.99 210.307L1637.29 210.113C1637.13 210.067 1637 210.13 1636.99 210.307Z" fill="#F49C83"/>
<path d="M1727.14 239.008C1728.08 238.421 1728.36 237.649 1727.82 236.224C1726.53 235.851 1724.16 237.284 1727.14 239.008Z" fill="#F49C83"/>
<path d="M1643.78 225.019L1643.97 222.512L1643.1 224.836L1643.78 225.019Z" fill="#F49C83"/>
<path d="M1628.46 227.542L1627.16 227.177L1628.26 230.028L1629.56 230.388L1628.46 227.542Z" fill="#F49C83"/>
<path d="M1596.33 296.55C1593.67 294.067 1597.09 292.594 1600.04 294.323C1601.05 295.474 1601.33 297.686 1603.71 297.962L1597.67 291.093C1604.05 291.344 1606.03 299.486 1607.74 302.553C1610.52 300.367 1606.2 296.381 1608.16 293.421C1606.93 293.869 1604.71 293.242 1602.84 292.66C1597.58 289.386 1601.67 288.117 1602.54 285.873C1599.47 285.668 1598.03 283.708 1596.58 281.468C1596.47 281.131 1596.27 280.83 1596 280.597L1595.47 279.816L1595.33 280.058C1594.58 279.56 1593.78 279.14 1592.94 278.805C1593.38 281.44 1588.22 279.897 1587.46 280.898C1596.6 285.337 1587.07 285.803 1588.8 288.819L1588.63 290.92L1588.27 291.513C1587.26 291.027 1586.2 290.109 1585.11 288.131C1586.3 289.955 1584.11 292.005 1586.98 293.567L1583.46 299.197C1582.88 299.126 1582.31 298.979 1581.77 298.76C1582.1 299.216 1582.53 299.597 1583.02 299.881L1567.58 324.123C1569.04 323.434 1571.62 323.689 1573.36 323.092C1577.68 328.683 1575.7 321.772 1580.58 325.855C1581.93 327.965 1580.53 328.777 1578.78 328.629C1581.25 330.711 1584.27 331.254 1587.35 333.521C1592.71 332.714 1580.35 323.695 1584.26 322.028C1587.36 324.276 1589.54 327.059 1590.41 324.826L1590.76 325.78C1589.26 320.283 1599.58 328.17 1592.16 320.355L1596.73 323.478C1594.2 319.74 1596.01 316.972 1596.42 315.001L1597.25 315.682C1594.87 307.825 1597.77 312.516 1598.81 306.142L1602.7 311.957C1606.06 311.737 1600.44 307.474 1601.84 306.649C1602.68 307.319 1606.25 309.254 1606.33 310.97L1602.03 299.549C1599.47 295.831 1598.44 297.623 1596.33 296.55Z" fill="#F49C83"/>
<path d="M1608.16 293.421C1608.39 293.362 1608.6 293.236 1608.76 293.058C1608.92 292.881 1609.02 292.66 1609.05 292.424C1608.7 292.703 1608.4 293.04 1608.16 293.421V293.421Z" fill="#F49C83"/>
<path d="M1566.53 325.787L1567.62 324.12C1567.3 324.258 1567.02 324.49 1566.82 324.787C1566.63 325.084 1566.53 325.432 1566.53 325.787V325.787Z" fill="#F49C83"/>
<path d="M1603.61 278.245C1600.53 277.738 1600.75 275.303 1599.08 273.973L1596.76 277.748C1598.55 278.888 1600.32 280.55 1602.01 281.527L1603.61 278.245Z" fill="#F49C83"/>
<path d="M1592.68 276.648C1593.76 277.557 1594.71 278.625 1595.47 279.816L1596.76 277.748C1595.4 276.904 1594.03 276.334 1592.68 276.648Z" fill="#F49C83"/>
<path d="M1688.51 337.903L1688.22 338.689L1688.93 340.621L1688.51 337.903Z" fill="#F49C83"/>
<path d="M1673.7 343.504C1676.94 344.45 1675.89 341.566 1675.55 340.591C1674.46 342.437 1673.93 340.997 1673.7 343.504Z" fill="#F49C83"/>
<path d="M1704.16 360.172L1704.56 362.909L1705.2 363.098L1704.16 360.172Z" fill="#F49C83"/>
<path d="M1575.95 350.385L1575.71 351.371C1575.82 351.235 1575.9 351.076 1575.94 350.905C1575.98 350.735 1575.99 350.557 1575.95 350.385Z" fill="#F49C83"/>
<path d="M1581.18 333.59C1573.4 333.914 1578.65 328.176 1571.24 324.908L1571.98 328.464L1570.34 327.086L1569.16 330.001C1572.54 331.548 1572.99 331.281 1576.08 333.561C1572.49 336.086 1571.58 332.06 1565.89 331.79L1563.85 335.953L1563.12 334.988C1562.97 335.348 1563.26 335.766 1563.71 336.23L1556.86 350.296C1557.7 354.309 1563.39 353.025 1566.77 357.942C1568.64 355.248 1574.75 353.56 1568.65 348.951C1569.46 349.643 1571.08 351.055 1572.18 351.006L1568.15 345.847L1565.48 346.181C1561.42 341.024 1566.02 336.822 1569.88 338.107C1569.66 342.187 1576.84 345.065 1570.71 346.718C1572.42 347.649 1575.73 348.861 1575.96 350.383C1577.39 344.409 1583.2 342.144 1581.18 333.59Z" fill="#F49C83"/>
<path d="M1551.07 382.346L1550.55 381.899C1550.78 382.201 1550.98 382.393 1551.07 382.346Z" fill="#F49C83"/>
<path d="M1552.96 381.374L1548.56 374.676L1546.51 378.516L1550.54 381.905C1549.7 380.81 1548.44 377.994 1550.43 378.739L1552.96 381.374Z" fill="#F49C83"/>
<path d="M1546.79 369.4C1547.29 372.502 1552.33 376.097 1555.31 376.787C1556.41 380.159 1549.32 373.712 1553.75 378.733C1557.37 381.353 1556.74 377.746 1556.42 376.794L1546.79 369.4Z" fill="#F49C83"/>
<path d="M1559.02 358.089L1560.74 360.086L1562.2 359.236L1559.02 358.089Z" fill="#F49C83"/>
<path d="M1560.73 360.091L1559.27 360.93C1560.68 361.872 1562.15 362.733 1563.66 363.508L1560.73 360.091Z" fill="#F49C83"/>
<path d="M1555.48 363.121C1554.7 363.369 1553.98 363.788 1553.38 364.348L1555.48 363.121Z" fill="#F49C83"/>
<path d="M1557.79 362.629L1557.11 362.194L1555.49 363.118C1556.25 362.905 1557.01 362.742 1557.79 362.629Z" fill="#F49C83"/>
<path d="M1559.28 360.924C1555.62 358.599 1551.75 356.174 1551.44 358.653L1557.11 362.195L1559.28 360.924Z" fill="#F49C83"/>
<path d="M1690.47 369.238L1691.47 372.154L1692.14 372.359L1691.13 369.44L1690.47 369.238Z" fill="#F49C83"/>
<path d="M1681.15 376.083C1681.53 376.875 1681.98 377.631 1682.5 378.343C1682.28 377.473 1681.81 376.686 1681.15 376.083V376.083Z" fill="#F49C83"/>
<path d="M1701.26 399.29C1696.39 398.713 1698.17 393.493 1694.27 395.867C1690.71 393.906 1687.43 389.382 1690.18 388.895C1693.27 391.148 1691.17 391.833 1695.08 393.013C1692.12 389.473 1694.89 390.743 1689.86 387.914C1688.08 384.127 1684.8 381.649 1682.5 378.344C1683.16 381.932 1675.21 383.182 1679.5 390.063C1684.23 395.456 1692.67 399.819 1700.96 405.417C1703.06 406.498 1706.65 403.121 1701.26 399.29Z" fill="#F49C83"/>
<path d="M1711.51 401.9C1712.5 401.305 1712.34 400.803 1712.01 399.824C1709.07 398.071 1711.85 401.114 1711.51 401.9Z" fill="#F49C83"/>
<path d="M1635.97 379.188C1637.04 380.151 1637.45 382.645 1639.66 383.732L1639.78 380.436C1639.23 380.825 1637.66 380.028 1635.97 379.188Z" fill="#F49C83"/>
<path d="M1639.85 378.998L1639.78 380.436C1640.07 380.25 1640.13 379.822 1639.85 378.998Z" fill="#F49C83"/>
<path d="M1635.17 378.79L1635.97 379.188C1635.76 378.97 1635.47 378.831 1635.17 378.79V378.79Z" fill="#F49C83"/>
<path d="M1549.76 366.763C1547.56 365.115 1548.21 367.019 1548.53 367.97C1548.99 367.724 1550.11 367.72 1549.76 366.763Z" fill="#F49C83"/>
<path d="M1532.08 407.928L1529.73 407.356C1530.98 407.884 1531.59 408.151 1532.08 407.928Z" fill="#F49C83"/>
<path d="M1580.03 467.725C1580.38 468.046 1580.69 468.403 1580.97 468.789C1580.7 468.397 1580.38 468.039 1580.03 467.725V467.725Z" fill="#F49C83"/>
<path d="M1580.96 468.793C1582.23 470.825 1578.04 470.37 1580.18 473.231L1579.43 472.469L1580.03 475.006C1580.72 473.675 1582.99 471.563 1580.96 468.793Z" fill="#F49C83"/>
</g>
<defs>
<clipPath id="clip0_366_1154">
<rect width="677.03" height="703.71" fill="white" transform="translate(-486)"/>
</clipPath>
<clipPath id="clip1_366_1154">
<rect width="333" height="259" fill="white" transform="translate(1548 653)"/>
</clipPath>
<clipPath id="clip2_366_1154">
<rect width="289" height="422" fill="white" transform="translate(1567.61 481.42) rotate(-117.314)"/>
</clipPath>
</defs>
</svg>
