<svg width="138" height="250" viewBox="0 0 138 250" fill="none" xmlns="http://www.w3.org/2000/svg">
<g clip-path="url(#clip0_297_146)">
<path fill-rule="evenodd" clip-rule="evenodd" d="M-20.0781 87.4816C-14.976 92.0298 -10.1015 95.4568 -6.30471 99.9702C-2.15294 104.983 -2.45426 111.752 -6.9452 117.213C-11.0369 122.175 -15.6148 127.123 -20.7313 130.653C-23.3035 132.425 -28.4057 132.543 -30.9584 130.941C-39.0943 126.072 -44.1295 118.48 -43.3197 107.338C-43.1133 104.488 -43.3289 101.627 -43.3254 98.7724C-43.2832 93.4018 -40.806 88.801 -36.1562 88.0215C-30.6174 87.0589 -24.9982 87.5735 -20.0781 87.4816Z" fill="#D84592"/>
<path fill-rule="evenodd" clip-rule="evenodd" d="M99.402 137.191C109.821 143.389 113.276 150.404 105.322 160.953C102.075 165.26 98.9816 169.853 95.0679 173.432C86.3921 181.332 75.6555 178.579 72.933 167.536C71.4765 161.795 71.6478 155.324 71.801 149.107C71.8312 146.987 73.5639 144.311 75.1246 142.597C79.2406 137.968 94.2823 134.85 99.402 137.191Z" fill="#D84592"/>
<path fill-rule="evenodd" clip-rule="evenodd" d="M17.751 217.141C12.5937 214.884 7.56501 212.119 7.6942 204.841C7.84084 196.518 11.6869 189.565 18.0157 184.63C27.573 177.271 44.7178 183.202 48.0196 194.488C49.7393 200.487 48.3162 205.284 43.5096 209.558C41.66 211.167 39.7204 212.793 37.8366 214.478C31.3949 220.215 24.7522 221.412 17.751 217.141Z" fill="#D84592"/>
<path fill-rule="evenodd" clip-rule="evenodd" d="M43.0412 73.9979L42.3648 75.5C35.9285 89.7937 24.6618 91.5772 16.111 79.6511C12.6381 74.7089 14.1828 69.2356 16.0135 63.7952C16.8487 61.3111 17.6291 58.6194 17.8054 56.1171C18.6135 46.5768 27.1554 41.259 34.7085 45.7572C34.9874 45.922 35.1845 46.2589 35.472 46.4145C49.4385 53.9138 50.4572 57.5287 43.0412 73.9979Z" fill="#D84592"/>
<path fill-rule="evenodd" clip-rule="evenodd" d="M48.3484 143.866C44.2433 153.041 37.6638 156.033 30.9094 152.831C26.7551 150.846 22.9317 148.233 19.5742 145.084C14.1367 139.993 14.6511 131.357 20.8605 125.119C24.791 121.287 29.0896 117.851 33.6942 114.86C38.2835 111.746 45.3682 113.508 46.8335 118.726C49.2827 127.365 50.5748 136.501 48.3484 143.866Z" fill="#D84592"/>
<path fill-rule="evenodd" clip-rule="evenodd" d="M77.9011 101.985C70.8485 97.4593 69.4484 87.73 75.2817 81.2143C77.3559 78.8832 79.3871 76.6284 81.513 74.473C85.2587 70.6568 90.8513 69.5748 94.5112 72.5332C99.4729 76.6089 100.625 83.0834 100.431 89.5655C100.227 95.9734 95.9475 100.172 90.5585 101.663C86.4916 102.862 82.1271 101.972 77.9011 101.985Z" fill="#D84592"/>
</g>
<defs>
<clipPath id="clip0_297_146">
<rect width="223" height="173" fill="white" transform="translate(-65.9688) rotate(24.2417)"/>
</clipPath>
</defs>
</svg>
