<svg preserveAspectRatio="none" viewBox="0 0 390 760" fill="none" xmlns="http://www.w3.org/2000/svg">
<g clip-path="url(#clip0_366_153)">
<path d="M489.248 134.857C451.196 149.999 409.579 154.131 370.18 172.258C314.571 197.899 284.581 264.872 277.211 314.539C269.806 364.467 279.941 397.504 307.755 419.886C329.303 437.054 358.933 447.583 372.084 474.225C386.161 502.827 376.566 539.781 365.001 582.02C348.184 643.312 333.351 749.904 386.219 754.723L802.785 254.186L566.251 57.3336C549.504 95.284 514.278 124.903 489.248 134.857Z" fill="#C485B3"/>
</g>
<path d="M-33.9214 522.558C-18.3376 504.955 -3.47482 491.686 17.1266 475.913C37.7281 460.141 64.0394 441.716 84.7619 445.96C105.663 450.325 120.976 477.36 133.301 503.416C145.626 529.472 154.814 554.578 153.158 579.908C151.353 605.267 138.526 630.728 118.605 643.573C98.5343 656.447 71.3695 656.705 41.8169 659.909C12.2932 663.262 -19.4683 669.532 -40.6119 657.446C-61.6055 645.331 -71.8312 614.832 -68.7917 588.614C-65.931 562.275 -49.5052 540.161 -33.9214 522.558Z" fill="#F49C83"/>
<defs>
<clipPath id="clip0_366_153">
<rect width="397.361" height="657.132" fill="white" transform="translate(382.426 759.281) rotate(-140.232)"/>
</clipPath>
</defs>
</svg>
