<svg width="270" height="800" viewBox="0 0 270 800" fill="none" xmlns="http://www.w3.org/2000/svg">
<g clip-path="url(#clip0_366_149)">
<path fill-rule="evenodd" clip-rule="evenodd" d="M-29.478 799.954C-33.8175 799.49 -38.4241 799.775 -42.4668 798.289C-52.4458 794.551 -56.9871 778 -50.4987 766.94C-43.286 754.757 -35.2719 743.252 -20.7634 740.155C-11.01 738.224 -3.15027 741.029 3.07697 748.767C8.5859 755.554 6.45475 763.589 3.35003 771.106C2.22213 773.81 1.17139 776.544 0.0731697 779.266C-6.90799 796.637 -12.5475 800.518 -29.478 799.954Z" fill="#F49C83"/>
<path fill-rule="evenodd" clip-rule="evenodd" d="M142.285 626.627C160.272 628.683 169.277 636.136 164.914 655.427C163.133 663.301 161.738 671.473 158.604 678.765C151.634 694.882 135.327 697.723 124.849 684.321C119.346 677.38 115.612 668.442 112.009 659.86C110.751 656.948 111.469 652.229 112.543 648.931C115.31 640.082 133.879 626.58 142.285 626.627Z" fill="#F49C83"/>
<path fill-rule="evenodd" clip-rule="evenodd" d="M80.1245 785.957C71.7186 786.046 63.1761 785.363 58.8901 775.349C53.9867 763.897 54.9602 752.041 60.5523 741.415C69.0531 725.494 96.0339 723.051 107.45 736.429C113.469 743.56 114.472 750.983 110.548 759.773C109.017 763.107 107.372 766.518 105.841 769.977C100.587 781.768 92.2762 787.485 80.1245 785.957Z" fill="#F49C83"/>
<path fill-rule="evenodd" clip-rule="evenodd" d="M26.7984 575.006V577.473C26.7984 600.941 12.5511 610.302 -6.40367 599.277C-14.1625 594.666 -15.4151 586.244 -16.258 577.693C-16.6439 573.788 -17.2316 569.634 -18.5257 566.11C-23.2748 552.59 -14.9045 540.08 -1.86236 541.577C-1.38152 541.631 -0.906616 541.969 -0.419834 542.005C23.195 543.657 26.7984 547.966 26.7984 575.006Z" fill="#F49C83"/>
<path fill-rule="evenodd" clip-rule="evenodd" d="M76.8592 667.122C76.8948 682.17 69.7712 690.3 58.6108 690.08C51.7376 689.925 44.9296 688.708 38.4272 686.473C27.9021 682.865 23.3073 670.76 27.9377 658.428C30.9399 650.781 34.686 643.447 39.1218 636.534C43.4613 629.462 54.1883 627.513 59.3826 633.735C68.014 644.022 75.3751 655.7 76.8592 667.122Z" fill="#F49C83"/>
<path fill-rule="evenodd" clip-rule="evenodd" d="M91.4219 591.783C79.0446 589.941 71.173 577.52 75.1206 565.04C76.5157 560.583 77.8989 556.256 79.472 552.007C82.2324 544.495 89.1839 539.581 95.981 541.369C105.236 543.883 110.774 552.013 114.485 560.981C118.136 569.854 114.882 578.216 108.459 583.564C103.657 587.701 97.1683 589.169 91.4219 591.783Z" fill="#F49C83"/>
</g>
<g clip-path="url(#clip1_366_149)">
<path d="M137.448 24.6998C137.714 23.4466 140.84 24.7622 141.716 26.0164C140.153 21.6896 143.635 24.528 137.926 19.4196C135.981 15.8615 140.986 17.9537 142.3 21.253L141.43 14.9224L138.893 16.1519C134.479 11.5099 142.953 14.1895 137.774 8.78045L135.282 12.8159L133.814 11.2756C134.888 13.5634 132.826 14.5677 131.702 14.5503C130.968 13.7935 129.604 12.7646 129.989 12.0012C126.037 16.0584 137.596 20.2891 136.28 25.2358C136.348 24.9118 136.649 24.6888 137.448 24.6998Z" fill="#D84592"/>
<path d="M122.358 18.5629L127.301 25.1286L123.608 26.3972C125.733 28.1559 125.944 31.4136 128.858 31.6692C128.734 31.1554 128.485 30.1546 129 29.9156C133.403 33.9382 128.559 35.1632 133.856 38.1594C134.26 35.1687 135.53 35.6888 132.772 31.415C133.668 30.6951 134.718 30.1898 135.84 29.9377C136.961 29.6856 138.126 29.6934 139.244 29.9605C138.987 28.8503 136.227 26.4591 136.227 25.3028C136.185 25.5163 136.116 25.7236 136.022 25.9197L129.035 20.3287C130.02 22.1049 128.877 22.0905 128.494 22.8592L122.849 13.2292C115.583 8.91823 116.933 15.0076 113.256 14.0036C120.344 17.2914 115.236 17.5505 122.358 18.5629Z" fill="#D84592"/>
<path d="M136.238 25.3242L136.285 25.2328L136.238 25.3242Z" fill="#D84592"/>
<path d="M21.3951 286.683C21.1112 287.434 22.7576 288.775 23.5916 289.453L28.2845 281.768C26.1481 280.741 22.303 281.363 22.0445 279.158C19.4338 278.409 20.0521 281.584 22.5564 283.597L19.8805 281.122C22.6406 285.334 14.2747 281.679 12.7134 279.085L12.6622 279.259L24.479 293.604C26.4709 292.36 20.2043 288.944 21.3951 286.683Z" fill="#D84592"/>
<path d="M27.2436 296.953L30.9155 301.461C29.8647 299.825 28.633 298.313 27.2436 296.953Z" fill="#D84592"/>
<path d="M22.2604 342.876C22.2769 343.116 22.2258 343.29 22.2373 343.56C22.3172 343.34 22.3253 343.1 22.2604 342.876Z" fill="#D84592"/>
<path d="M23.5947 293.831C24.8904 294.772 26.1054 295.819 27.2272 296.961L24.4514 293.59C24.1789 293.711 23.8903 293.792 23.5947 293.831Z" fill="#D84592"/>
<path d="M11.7236 282.633L12.6566 279.235L10.1061 276.144C10.6244 278.006 10.6533 279.806 11.7236 282.633Z" fill="#D84592"/>
<path d="M28.8407 340.707C25.9277 347.271 22.5809 334.532 19.0685 336.097C18.8595 338.295 21.8714 341.134 22.2653 342.873C22.4695 336.229 33.1481 350.934 34.4455 344.975C40.2458 349.701 38.9599 352.858 36.1842 353.377C28.9922 351.279 32.8837 348.886 27.3031 344.625C27.008 347.177 28.3134 347.558 31.0978 350.568C27.7124 352.652 34.2548 361.651 24.8309 357.951C24.6918 360.999 27.6281 362.755 29.9093 366.079C36.0939 370.586 35.4261 365.051 40.9735 367.582C39.9797 367.342 39.0408 366.914 38.2066 366.323L40.8077 365.323C37.3912 365.642 34.6127 360.835 34.7534 359.546C35.0796 358.759 35.7266 357.189 37.3626 358.548L38.0292 360.515C40.9554 360.482 35.3782 354.432 39.7953 355.282C41.278 356.149 41.5874 357.139 42.4398 357.8C39.1527 353.309 40.4565 351.93 38.8983 347.534L44.3461 353.073C38.5652 346.564 43.3489 343.582 48.9998 343.009C47.7026 342.644 46.5636 342.742 45.5765 341.585C45.1935 338.84 50.4178 340.355 53.2394 343.346C49.068 338.21 61.9315 339.684 56.5742 332.888L30.984 301.398C31.4902 302.104 31.8179 302.921 31.9391 303.781C25.7176 301.155 26.0745 302.106 21.8506 297.037C23.7662 300.59 28.6717 302.841 27.3256 305.478C25.1236 302.698 18.8553 298.329 16.6617 300.275C18.4125 309.806 31.7608 324.059 36.2075 334.933C31.7783 332.342 30.1475 337.512 27.7316 339.001C23.6493 335.17 23.3638 332.73 23.4972 330.477C22.5388 331.315 21.2632 333.008 20.2078 334.192L28.8407 340.707Z" fill="#D84592"/>
<path d="M23.4064 317.381C23.043 317.304 22.6698 317.283 22.3001 317.321C22.6485 317.478 23.043 317.499 23.4064 317.381Z" fill="#D84592"/>
<path d="M23.9036 330.119L23.4534 329.794L23.4443 330.531C23.5836 330.379 23.7375 330.241 23.9036 330.119Z" fill="#D84592"/>
<path d="M12.9415 288.985C11.9359 287.845 11.7533 287.361 10.7369 286.213C10.9886 286.687 11.2047 287.18 11.3837 287.686C11.7355 288.288 12.2865 288.747 12.9415 288.985Z" fill="#D84592"/>
<path d="M21.3048 292.663L22.9617 293.984C23.177 293.953 23.3891 293.902 23.5952 293.832C22.9222 293.286 22.1418 292.888 21.3048 292.663Z" fill="#D84592"/>
<path d="M17.1975 342.533C18.1577 340.203 10.9733 338.067 12.8764 335.142L11.9202 335.737C10.5904 331.861 14.1876 329.015 15.5873 326.391C17.9441 328.352 19.6691 326.917 23.4532 329.794C23.6073 327.49 23.8287 325.226 20.2978 321.694C22.3195 321.51 19.7446 317.578 22.3077 317.336C19.5362 316.342 15.3938 310.155 16.2383 315.317C16.0826 314.846 15.4259 314.654 15.2594 314.176C10.5504 314.088 15.6966 318.614 14.6046 320.468C11.5547 320.027 11.9135 316.22 10.3193 316.633C11.056 320.284 2.90997 321.804 11.8952 327.491C11.4653 329.534 9.35256 328.475 7.40374 327.903C15.2123 336.725 -3.02476 334.787 9.09338 342.767C9.24248 341.508 10.5276 340.132 8.86365 337.04L17.1975 342.533Z" fill="#D84592"/>
<path d="M11.3896 292.824C11.241 292.901 11.1849 293.104 11.0172 293.144C11.158 293.058 11.2838 292.95 11.3896 292.824Z" fill="#D84592"/>
<path d="M63.3102 289.462L70.7764 295.383C69.5852 301.495 66.1827 301.868 63.7744 306.391C63.3365 306.27 62.9367 306.04 62.6132 305.721C62.2898 305.402 62.0534 305.006 61.9268 304.57C60.9299 308.182 56.3714 311.639 58.6392 316.186C57.9624 317.113 53.8136 318.006 52.0725 315.545C52.4797 316.464 52.8208 317.437 52.225 317.819C49.2627 316.116 52.1676 316.081 49.8589 314.538C49.4036 314.841 48.7335 314.649 49.6024 315.343C47.5801 313.027 39.3836 309.869 41.7128 306.65C49.2395 309.644 41.0152 309.463 48.8912 313.432C49.6782 312.354 46.7078 310.649 45.8632 309.976C46.9304 308.673 48.7649 309.896 50.4035 311.052C48.4547 309.048 52.7814 309.306 49.7731 306.331C50.9474 303.218 55.2368 310.027 56.2968 308.176L49.4568 302.362L52.7702 300.281C52.8788 294.285 39.4202 292.648 38.2953 285.031C41.8077 288.162 49.6445 290.364 52.6606 289.035C52.0641 290.586 55.3422 296.231 51.9796 296.59C59.4567 297.822 50.495 300.482 58.0483 303.462C55.6585 300.2 56.5412 297.863 59.2849 297.346L59.642 298.311C61.5248 297.104 54.4946 290.829 58.9961 290.373C59.4969 289.052 61.4773 290.61 63.1047 291.926C62.5618 290.225 61.6462 288.413 63.3102 289.462ZM63.2869 292.995L61.5362 294.094C63.0049 294.505 63.3414 293.894 63.2869 292.995Z" fill="#D84592"/>
<path d="M106.65 40.2354L107.571 40.21C107.425 40.1485 107.267 40.1189 107.108 40.1233C106.949 40.1277 106.793 40.1659 106.65 40.2354Z" fill="#D84592"/>
<path d="M9.41406 175.826L10.2374 175.078C10.0542 175.136 9.88568 175.233 9.74351 175.362C9.60135 175.491 9.48894 175.649 9.41406 175.826Z" fill="#D84592"/>
<path d="M98.1572 50.3069L98.0745 50.316C98.1641 50.4689 98.2455 50.6265 98.3184 50.7881L98.1572 50.3069Z" fill="#D84592"/>
<path d="M42.0047 109.961C42.6894 110.181 43.4026 110.299 44.1216 110.313C43.8127 110.11 43.4648 109.974 43.1003 109.913C42.7358 109.852 42.3626 109.869 42.0047 109.961Z" fill="#D84592"/>
<path d="M3.91279 183.116C3.97337 183.484 4.10495 183.836 4.30018 184.153L3.91279 183.116Z" fill="#D84592"/>
<path d="M133.237 49.1155L133.209 49.204L133.998 49.8719L133.237 49.1155Z" fill="#D84592"/>
<path d="M125.272 38.2852C125.325 37.7878 125.433 37.295 125.51 36.8187C125.337 37.0168 125.224 37.2591 125.182 37.5182C125.14 37.7772 125.171 38.0429 125.272 38.2852Z" fill="#D84592"/>
<path d="M65.8427 100.339C67.1271 100.744 68.9153 100.875 69.8786 102.051C68.7728 100.391 65.0415 97.8765 65.8427 100.339Z" fill="#D84592"/>
<path d="M172.912 88.8276C172.214 88.0522 171.567 87.233 170.974 86.3749C171.71 87.5803 172.279 88.5769 172.912 88.8276Z" fill="#D84592"/>
<path d="M170.994 86.3637L169.865 84.5413C170.2 85.1732 170.578 85.782 170.994 86.3637Z" fill="#D84592"/>
<path d="M121.265 149.919C120.706 149.657 120.213 149.495 119.973 149.565C121.007 150.2 121.312 150.218 121.265 149.919Z" fill="#D84592"/>
<path d="M127.254 36.9186C125.734 35.4325 125.716 28.1641 121.857 31.1786C116.816 26.9214 121.406 26.896 120.939 24.8861C119.149 24.6344 117.93 21.8706 115.916 20.6125C116.135 21.6084 117.138 23.3817 116.092 23.8813C113.434 22.378 112.849 19.8516 114.541 19.5757C110.848 18.5933 111.704 14.7716 108.238 14.8009C107.114 19.9106 106.8 23.9362 112.448 32.49C112.76 29.4124 113.15 25.9119 116.581 25.8804L120.468 30.1421C115.015 28.9263 116.93 32.3993 115.1 33.9694L120.827 31.6434C126.133 32.6528 125.918 34.645 125.506 36.8C125.852 36.5071 126.408 36.3876 127.254 36.9186Z" fill="#D84592"/>
<path d="M164.32 70.7205L164.499 70.7555C164.41 70.5765 164.304 70.4063 164.183 70.247L164.32 70.7205Z" fill="#D84592"/>
<path d="M67.4681 266.403L69.061 267.939C68.6491 267.316 68.1053 266.792 67.4681 266.403Z" fill="#D84592"/>
<path d="M140.731 56.0651C140.761 56.1234 140.753 56.1342 140.731 56.0651V56.0651Z" fill="#D84592"/>
<path d="M73.774 257.286L74.1546 257.593C74.0301 257.469 73.8848 257.383 73.774 257.286Z" fill="#D84592"/>
<path d="M73.3263 256.992L73.7735 257.286C73.6308 257.179 73.4815 257.081 73.3263 256.992Z" fill="#D84592"/>
<path d="M84.3118 200.506C84.3118 200.506 83.3935 200.12 82.4552 199.838C82.9726 200.279 83.6324 200.516 84.3118 200.506Z" fill="#D84592"/>
<path d="M71.5352 204.873L70.9 204.697L71.5352 204.873Z" fill="#D84592"/>
<path d="M43.1805 87.9189C43.0178 88.0824 42.8903 88.2775 42.8058 88.4921C42.7214 88.7068 42.6818 88.9365 42.6895 89.167C42.8869 89.032 43.0392 88.8409 43.1268 88.6184C43.2143 88.3959 43.233 88.1522 43.1805 87.9189Z" fill="#D84592"/>
<path d="M74.1465 257.578C74.6534 258.047 75.1242 258.554 75.5549 259.095C75.1302 258.549 74.659 258.042 74.1465 257.578Z" fill="#D84592"/>
<path d="M68.8426 171.348L69.1924 171.96L69.5314 171.953L68.8426 171.348Z" fill="#D84592"/>
<path d="M75.3784 168.987C75.8126 169.467 76.2723 169.923 76.7554 170.353C75.8357 167.401 79.9774 165.766 75.1253 162.083C74.8853 162.724 70.006 163.698 67.3545 161.258C67.8718 163.248 63.1908 162.642 63.62 163.811C67.643 163.716 68.0465 166.397 68.9325 168.802C66.6893 169 64.9774 165.919 63.3721 166.298L62.1839 169.371L64.3832 167.449L68.8215 171.346L68.5073 170.802C68.8311 165.34 75.9125 175.122 75.3784 168.987Z" fill="#D84592"/>
<path d="M76.7714 170.344C76.9418 170.864 77.2091 171.346 77.5591 171.765C77.7323 171.333 77.3204 170.874 76.7714 170.344Z" fill="#D84592"/>
<path d="M95.3975 159.516C95.3495 159.108 95.2491 158.708 95.0989 158.326C95.1955 158.565 95.2228 159.021 95.3975 159.516Z" fill="#D84592"/>
<path d="M12.1962 274.648C13.6948 275.506 18.1752 275.061 14.3551 272.699C13.5222 273.129 12.6735 273.568 11.8358 274.041L12.1962 274.648Z" fill="#D84592"/>
<path d="M103.549 101.279C103.272 101.44 103.052 101.685 102.923 101.979L103.39 102.531C104.033 102.749 103.708 101.768 103.549 101.279Z" fill="#D84592"/>
<path d="M66.0699 159.382C66.3444 160.101 66.7911 160.743 67.3707 161.25C67.1183 160.519 66.668 159.872 66.0699 159.382Z" fill="#D84592"/>
<path d="M112.355 107.294C113.978 107.78 115.539 108.453 117.006 109.3C117.508 108.685 115.917 106.866 115.707 105.718C115.703 106.842 114.707 107.437 112.355 107.294Z" fill="#D84592"/>
<path d="M9.701 275.022C9.86122 275.391 9.99641 275.77 10.1057 276.157L9.30261 275.187L7.12977 276.068C7.26283 276.4 7.32569 276.757 7.31436 277.115C7.1012 276.787 6.82846 276.501 6.51027 276.273L5.74429 276.508C8.84315 280.283 9.67513 285.303 11.3915 287.703C12.2947 289.998 12.3113 292.086 11.3972 292.84C12.0273 292.017 11.9737 290.365 9.58353 289.328C6.20174 289.65 -0.808385 286.343 2.80272 292.945L3.87366 291.115L9.6681 300.5C5.28311 299.66 6.78433 295.814 4.10508 293.293C6.22599 299.066 -6.48809 294.524 -0.162192 300.644C-4.59656 298.07 -11.9883 293.763 -12.8794 296.071C-7.02761 297.786 -10.5243 299.33 -4.49269 301.524C-2.48097 303.844 -7.51226 302.794 -4.37784 304.999L-6.02974 303.648C-15.0812 302.698 -5.16763 310.769 -2.63749 314.549C-3.60145 319.865 -7.59221 319.971 -9.14681 323.817C-12.099 322.07 -20.5879 317.785 -21.19 319.326C-17.7356 322.515 -17.9793 326.753 -13.2377 330.365C-9.54765 329.313 -16.0634 325.622 -16.2606 323.406C-10.2552 325.64 -11.0451 326.7 -6.83141 327.104C-9.74484 327.096 -8.16031 334.94 -13.9996 333.158L-14.3408 332.185C-18.8569 332.548 -31.3672 324.797 -26.5548 333.621L-24.7604 337.499C-25.2041 337.056 -25.7699 336.676 -26.1749 336.334C-28.7197 338.993 -33.7573 334.391 -31.5651 340.717C-31.729 340.231 -32.3806 340.023 -32.5365 339.539C-36.5632 339.549 -32.3555 345.211 -32.1878 347.423C-36.8808 345.492 -36.0718 344.456 -38.6635 341.897C-42.5226 344.105 -37.9804 352.484 -34.4448 358.003L-38.3159 358.483C-39.1195 356.042 -42.343 351.518 -45.0786 350.203C-45.072 351.933 -42.9852 353.046 -44.9201 354.153C-47.3509 352.048 -49.2512 349.67 -52.0201 346.625C-58.7312 346.993 -43.3143 353.814 -52.9478 350.632C-53.7567 351.668 -50.3734 354.94 -47.3229 357.255L-52.78 356.317C-48.93 359.335 -50.3651 361.904 -50.8729 363.913C-49.2924 365.321 -45.7393 365.643 -46.8642 363.96C-43.8163 366.283 -43.511 369.008 -44.328 370.041C-52.956 364.512 -48.2121 377.9 -57.0949 369.626C-57.8592 376.331 -61.8944 383.663 -60.7543 389.37C-63.7749 388.726 -65.4465 390.772 -68.3818 386.637C-71.1623 390.465 -64.3473 398.665 -69.4468 400.774C-70.7132 400.313 -68.2174 399.017 -71.0436 397.097C-69.6654 402.029 -77.9277 398.939 -78.6603 404.39C-78.3176 403.635 -79.851 402.163 -80.627 401.428C-79.2284 402.392 -79.0298 405.132 -78.4804 407.12C-79.6017 407.134 -78.8924 405.632 -80.1698 405.15C-89.5688 409.486 -83.05 423.618 -89.3791 430.542C-87.5917 428.564 -92.2398 423.532 -94.383 421.777L-96.0858 423.684C-94.0825 426.587 -95.3179 428.085 -94.3913 430.947C-95.5 430.296 -97.0575 430.039 -97.7892 428.401C-106.308 427.976 -93.3034 442.473 -100.017 445.127L-105.714 430.478L-110.534 428.888L-113.231 422.365C-117.349 421.482 -111.764 428.327 -115.861 425.235C-116.713 423.989 -115.728 423.514 -117.84 421.715C-120.583 421.868 -117.738 424.437 -117.865 426.169C-123.533 416.585 -118.886 411.141 -118.426 406.529C-118.682 405.539 -116.795 408.515 -116.04 409.275C-115.29 407.825 -112.178 409.141 -112.328 406.457C-114.988 402.737 -115.453 405.155 -116.438 405.616C-119.339 403.083 -118.861 402.836 -118.607 401.663C-114.471 404.688 -113.429 398.183 -107.633 400.975C-105.284 395.387 -118.59 393.51 -113.381 390.39L-107.733 392.661C-109.294 387.244 -109.899 381.428 -106.646 379.244L-106.964 380.007C-105.294 381.94 -103.536 382.194 -102.288 382.672C-98.5698 381.948 -102.7 375.641 -96.9842 377.823C-99.977 371.533 -100.485 364.538 -100.942 359.634C-94.1443 363.414 -98.4581 367.409 -95.486 371.499L-93.5321 368.776C-94.6524 370.51 -92.7808 372.937 -90.0286 376.549C-87.095 375.034 -91.9648 370.197 -91.9187 366.773C-90.3539 368.203 -89.09 368.672 -88.2888 367.661L-92.2099 364.31C-92.0307 364.436 -91.8257 364.522 -91.6097 364.56C-91.3936 364.598 -91.1718 364.588 -90.96 364.531L-90.5853 358.673C-92.9783 358.229 -96.6092 355.636 -97.4027 356.623C-94.7248 358.022 -94.877 359.25 -95.6919 360.235C-97.7351 357.346 -98.7179 359.58 -100.924 357.911C-99.3184 355.933 -98.043 352.989 -98.1969 350.818L-94.059 353.183C-91.6506 351.939 -92.2938 348.286 -90.2072 347.76L-88.4817 349.631C-85.5746 348.129 -86.3814 344.017 -81.0922 344.578C-83.9915 339.315 -85.8071 334.017 -89.2208 329.033C-93.5805 324.612 -78.591 327.132 -83.979 319.835C-83.3274 320.043 -81.3491 324.095 -80.0048 326.229C-78.1149 325.152 -83.4485 319.561 -77.837 322.711C-82.1105 325.092 -73.4863 325.423 -73.1177 328.088C-72.5209 327.142 -72.2002 326.047 -72.1917 324.928C-72.1832 323.809 -72.4873 322.71 -73.0696 321.754C-74.9215 324.518 -79.7061 315.774 -79.2998 320.1C-82.257 314.907 -82.044 310.765 -78.5395 309.419C-76.2703 311.002 -74.9913 311.41 -73.3934 311.082L-76.1994 308.056C-74.784 307.244 -73.8267 313.067 -71.0123 311.425C-75.0288 305.066 -62.7142 306.01 -72.533 297.837C-67.0874 298.714 -70.7501 304.308 -63.7121 304.846C-61.0237 309.088 -66.9411 308.482 -62.0542 312.584C-62.4442 309.916 -57.1976 314.975 -56.4368 313.936L-58.4441 309.907L-58.9322 310.159C-61.8335 303.721 -56.1781 300.424 -54.3866 295.904C-57.4697 289.049 -63.6757 281.678 -60.474 278.002C-58.1243 281.25 -55.2743 276.606 -51.1757 282.916C-47.1709 282.864 -49.2503 278.837 -51.5562 277.3C-53.4293 278.435 -52.6818 277.398 -54.7268 278.044C-56.9314 275.272 -55.4017 273.198 -52.9864 273.503C-53.4744 273.755 -52.8173 273.973 -51.9969 274.638C-48.8235 273.9 -54.1773 271.874 -54.4328 269.687C-50.1995 271.795 -51.3379 267.236 -48.4508 267.27L-52.8542 261.749C-49.8294 265.173 -50.3376 260.819 -46.7292 262.718C-48.4645 259.684 -52.3175 255.619 -49.9998 254.174C-48.6159 256.268 -46.0197 254.073 -42.2129 256.435C-36.328 255.17 -48.7259 243.967 -41.184 244.037C-40.3688 244.704 -38.3258 246.969 -36.7447 246.582C-37.3057 245.131 -35.9926 244.057 -35.8734 242.96L-35.784 243.055L-35.847 242.933C-35.7873 242.398 -36.0936 241.844 -37.0039 241.253C-39.7903 237.484 -43.1133 234.329 -44.4573 229.566C-48.9179 227.032 -48.7452 230.437 -47.9937 232.36L-44.2911 235.951C-51.3678 232.658 -44.7695 239.189 -47.3749 238.438C-53.9439 231.899 -48.9978 228.269 -51.8597 222.403C-59.0056 220.354 -62.3815 223.576 -63.7792 227.376L-60.2465 227.567L-61.2724 229.367L-55.6059 230.593C-57.4602 231.739 -57.1993 233.923 -58.413 235.255C-57.3792 233.444 -51.015 236.568 -52.5696 236.941C-58.0455 236.201 -51.1019 240.746 -52.3155 242.078C-51.3911 241.5 -50.6277 240.454 -48.6138 242.74C-55.6845 242.36 -52.8124 245.332 -60.0521 244.481C-52.6449 248.753 -61.4471 248.286 -55.8328 252.469L-54.4448 251.604L-51.7864 257.025C-59.2036 255.675 -56.3691 251.066 -62.8771 252.062C-65.7845 254.968 -58.2053 259.728 -59.3673 262.761C-63.0436 259.143 -65.3263 254.684 -63.8203 252.629L-66.71 252.603C-68.7265 250.325 -66.3095 247.692 -65.0875 246.389C-61.7833 251.981 -62.8522 246.203 -58.3141 247.521C-62.3008 244.668 -62.6698 246.673 -64.7781 242.682C-65.8174 244.482 -65.6107 244.973 -68.6123 246.187C-63.6631 242.59 -80.1402 232.701 -74.0055 230.722C-73.3772 233.851 -67.628 233.845 -65.4835 234.888C-65.398 233.661 -65.2008 231.181 -65.7454 229.762L-72.1414 226.655C-73.1642 222.566 -59.9937 229.748 -64.3382 223.014C-67.6758 220.377 -67.1357 224.728 -67.5032 223.782C-68.7892 217.532 -58.2945 222.252 -51.6162 221.625C-53.2891 220.298 -57.0984 217.945 -59.4901 214.745C-56.1469 217.393 -53.7455 217.658 -51.9811 220.671C-49.7378 220.487 -51.4948 217.423 -52.2434 215.518C-55.8767 216.615 -56.769 211.27 -58.6351 209.465C-57.2366 208.595 -55.3 212.111 -54.7583 213.511C-53.164 213.111 -47.1357 215.259 -52.1332 211.282C-48.3266 213.63 -43.9792 220.382 -44.179 222.871L-42.7779 221.993C-41.394 224.087 -42.0452 223.906 -43.4197 224.783C-39.7344 225.414 -36.5712 227.57 -34.0591 229.558C-34.7131 229.372 -34.8955 228.902 -35.5309 228.712C-37.1277 229.121 -36.6018 230.542 -34.4307 231.571C-29.9335 235.686 -30.3906 232.173 -27.4198 233.098L-27.459 230.914L-40.4476 215.38C-40.9332 211.941 -36.3986 213.396 -32.8781 213.265L-36.9469 210.058C-35.2677 208.391 -32.7302 207.423 -27.9953 212.154C-29.4964 211.303 -29.3113 211.779 -29.7855 212.071C-29.3473 212.395 -28.9513 212.773 -28.6065 213.195L-27.91 213.777C-27.9136 212.079 -28.0044 210.384 -28.182 208.696C-24.0914 216.226 -20.3785 213.865 -13.0224 219.326L-13.2876 214.154C-17.1086 214.783 -17.0887 211.816 -17.6631 210.366C-13.1732 212.892 -15.8825 207.464 -14.476 206.583L-13.6424 207.235C-11.3915 207.013 -10.5246 204.697 -10.783 202.492C-12.2789 201.638 -18.2073 195.286 -21.9207 191.687C-25.1324 193.171 -25.9326 190.58 -28.7561 189.082C-28.3515 188.98 -28.0047 188.546 -28.5227 188.142C-29.5336 187.004 -30.4792 187.593 -31.9615 186.753C-31.6162 190.7 -32.7746 193.805 -27.3912 198.712C-24.1294 199.628 -29.14 195.664 -26.7229 195.907C-23.4756 199.801 -25.3559 201 -26.8503 203.116L-30.9312 201.642L-30.352 205.093C-31.6964 202.958 -35.8542 201.114 -35.116 198.34C-38.7612 196.487 -35.7872 201.126 -37.8343 201.821L-33.4536 205.606C-35.9682 203.625 -38.4055 206.335 -40.715 201.864L-42.4677 195.868L-46.3941 194.771L-45.4525 191.22L-43.3877 193.514C-43.7286 186.634 -32.9123 198.183 -35.5409 189.737C-40.4395 184.532 -40.0414 182.506 -36.7386 180.43C-36.7878 183.406 -32.7497 183.249 -29.878 186.194C-26.041 185.556 -30.4058 181.763 -31.9614 179.206C-28.5172 180.593 -25.7404 181.793 -27.4249 183.462C-21.109 187.794 -26.9203 180.184 -20.1438 184.211C-16.2487 177.596 -38.3982 165.416 -25.2639 163.081L-22.7599 165.067C-23.006 158.084 -18.0279 157.314 -17.2657 151.478L-8.19469 152.283C-7.65488 153.745 -3.91038 159.108 0.0081358 160.216C-7.98184 157.535 -6.73352 160.902 -11.6161 160.4C-9.94849 161.73 -8.16649 161.797 -6.85045 162.172C-7.63745 163.251 -11.0553 161.837 -10.8177 164.08C-9.35142 164.915 -6.62106 164.399 -6.54755 166.142L-12.0708 165.453C-11.7599 169.425 -2.74328 173.222 -6.69972 175.137C-10.1167 172.151 -14.8429 167.476 -14.9493 165.67C-16.6999 166.574 -16.0215 162.292 -19.1287 162.17C-14.8279 167.804 -19.941 166.01 -18.1404 170.98C-18.7252 170.16 -19.7742 169.378 -19.695 168.49L-24.5813 170.973C-20.6604 172.06 -23.0478 176.545 -17.9227 179.26C-13.2189 176.293 -16.9627 175.68 -11.1337 172.589C-10.901 174.666 -7.0344 179.564 -2.98826 183.287C-3.08033 183.242 -3.1808 183.218 -3.28303 183.215C-3.38526 183.212 -3.48692 183.231 -3.58129 183.27C0.783554 187.064 2.56024 187.134 11.0044 192.49C6.37837 186.486 12.2481 188.145 10.4579 183.364C6.14861 179.939 3.59814 181.142 3.97208 183.193L2.3679 178.955L4.2099 180.752L9.47385 175.903C9.01772 177.167 11.4535 179.242 13.112 181.1C13.7713 180.464 15.4805 180.482 17.3106 180.551C12.7927 177.918 9.74801 175.835 10.2972 175.155C13.7226 172.042 19.0107 172.51 24.9251 174.32L24.8846 173.669C19.9657 171.419 18.4641 165.831 14.5945 161.721C19.2191 164.755 18.6248 161.575 21.6961 162.018C16.7117 158.013 8.84377 154.047 3.62001 152.572C6.90418 158.267 7.64804 157.157 13.8289 162.802L15.8645 169.814L12.1667 166.18C8.9892 167.015 13.3902 172.557 7.92392 168.868C4.89892 165.431 8.28051 165.096 5.23666 161.648L2.34808 161.702C-1.59249 155.842 8.38427 163.84 6.40827 158.53C1.00998 156.574 6.23647 158.054 3.85467 154.796C-0.0744468 153.694 1.97491 160.732 -5.50296 154.737C-8.05397 150.994 7.0978 155.715 0.395986 148.619L1.25138 149.3C4.12197 147.051 0.21936 143.073 -1.93422 140.113C1.47324 140.53 -1.05817 136.448 -0.464168 134.905L1.84174 136.442L2.11287 133.897C5.76554 137.547 0.538855 136.053 0.0904537 138.113L4.55426 140.693C-1.81429 139.278 5.16819 145.577 7.96361 149.428C5.58647 144.89 12.9275 144.089 4.81446 138.126L10.0439 139.625L8.87402 137.971C12.8141 139.095 17.2742 143.437 17.0322 145.961C16.0159 145.768 15.0579 145.343 14.2334 144.718C15.5965 146.85 18.4285 149.823 16.0473 151.314L14.4965 148.702C12.4484 151.164 12.5902 154.652 16.2774 158.292C20.1035 155.79 23.2447 152.373 25.4162 148.351C16.3342 140.979 11.6729 136.156 2.94483 129.717C2.85342 126.196 3.76085 122.072 8.42923 122.121L10.0786 123.48C11.6806 123.056 11.8108 121.785 11.295 120.318C14.3773 120.783 15.5969 124.198 17.3737 124.281L16.5973 118.809C20.5499 121.714 18.6737 124.652 18.0641 126.23C17.8841 125.738 17.5482 124.763 16.8862 124.574C14.1506 125.093 19.1788 132.656 12.7902 129.498C13.3086 130.957 9.45016 125.047 7.40488 127.515C4.00461 127.853 8.96289 131.898 10.6254 133.243C12.9313 134.781 15.6255 132.516 17.7903 135.315C18.3999 133.737 15.7636 131.235 19.1561 130.921C18.5437 132.48 22.0501 137.409 17.9648 135.796C20.5339 141.33 31.7111 148.009 33.1309 147.128C29.517 145.218 32.1201 139.459 25.3592 140.108C21.9978 135.655 23.8633 132.71 22.4827 128.826L23.3006 129.499L23.8901 126.178C24.8693 127.345 25.3931 128.802 27.6856 130.339L23.8069 122.673C26.665 127.439 27.5032 123.324 29.9876 123.606C26.697 120.891 25.046 117.772 22.1168 117.787C18.5364 117.62 23.4427 119.938 22.8035 121.497L18.5426 115.849L19.2047 116.038L15.4275 111.847C17.5319 109.416 25.273 120.02 23.0802 113.654L16.562 109.985C20.1388 106.605 30.5209 106.176 29.5274 101.468C32.5379 104.617 37.9831 108.732 42.0391 109.937C40.1708 110.418 38.7781 112.965 38.213 115.085C36.9021 114.693 32.3211 108.048 34.9064 107.056C24.1484 101.188 37.8922 115.869 27.4497 109.22C20.6318 111.632 35.0087 119.38 26.2345 119.423C30.8172 122.519 27.7243 122.061 31.6582 124.954C39.9801 128.72 35.0061 119.388 39.382 118.506C39.6205 119.321 40.0748 120.057 40.6969 120.636C43.2878 119.667 42.8014 118.205 41.9444 115.765L41.2929 115.57C38.3293 110.287 45.6704 116.448 48.5813 116.463C48.2507 115.485 50.8203 114.514 47.2379 112.561L53.218 113.067L48.0044 109.712C48.6273 108.134 52.2048 110.116 49.9207 106.774L45.3826 103.621L41.5038 105.96C41.1689 103.217 37.4454 102.526 37.7405 99.9742C41.3377 105.508 41.2785 100.163 45.6742 102.845L44.0469 99.6941L45.029 100.88C48.1172 101.382 44.1797 98.416 45.669 97.5393C42.0825 97.3219 38.2244 96.136 40.1745 100.276C38.5471 97.1251 37.5507 92.3984 37.8956 91.6088C37.0047 88.83 41.1853 90.1718 42.6699 89.143C42.6647 93.0364 57.1531 97.6694 50.2019 100.708C49.3944 100.017 49.8873 99.7218 50.5442 99.9269C44.1967 96.6533 48.7543 103.344 50.2309 105.995C53.7898 107.981 53.8261 109.743 57.0392 108.977C54.452 108.183 50.6645 102.19 54.7734 102.131L61.7532 107.409L64.5256 105.205L64.687 105.699C70.0367 107.822 65.8471 102.117 69.8894 102.072C68.273 98.9419 73.9952 95.0325 64.9369 92.1309C70.6027 93.5121 65.9542 88.0373 66.308 85.4826L61.7727 85.8089C58.6082 79.4603 61.3404 82.5648 54.7853 74.6343C56.8857 75.7738 58.8352 76.3998 60.5636 78.2891C63.4922 74.7607 69.3353 70.9031 65.1562 64.5677C67.373 62.1461 75.9748 67.716 75.3916 61.7074C74.9635 60.215 68.3728 57.5375 72.168 56.5585C72.8064 56.7798 75.677 62.7024 77.0916 59.5863C73.092 53.7026 83.3656 57.2398 80.5133 51.2876C83.4174 51.3938 84.3549 48.5511 88.2584 52.193C85.7689 53.5661 84.5025 57.1902 86.2237 59.1438C83.8586 56.9584 82.6516 58.798 81.8032 55.7889C76.27 56.5903 82.9529 59.7847 78.6831 61.0155C80.2587 62.4529 84.4771 63.0092 83.3862 61.2744C89.2313 65.5399 82.1616 68.9088 90.9942 71.5036C93.6703 68.8784 82.1718 59.0659 90.2021 60.9529C92.9896 64.6068 88.7952 64.0448 93.9634 69.8492L97.8567 69.4378L94.7838 64.789L95.573 65.5103C103.65 65.6797 92.0861 57.5877 91.7226 52.0436C86.2027 50.9969 82.0161 44.0875 78.4199 43.734C79.4269 40.8956 81.4821 39.8007 87.2746 44.1336C88.7593 51.9008 93.1939 48.9721 96.0221 57.1677C98.5789 58.0849 103.794 64.4094 106.211 62.5833C104.056 56.9157 100.796 59.7489 100.863 55.7425C101.628 55.98 102.328 56.3881 102.911 56.936C100.815 53.4894 105.059 56.3712 102.842 52.4295L103.739 53.6461C108.578 54.5067 101.255 48.7065 106.231 50.0673C101.508 47.4268 103.516 46.3831 101.583 43.3963C98.7783 43.716 92.0018 39.898 89.9655 43.2545C93.072 46.1859 95.1197 47.3795 95.7986 49.878L96.9113 47.5697C97.264 48.5028 97.6718 49.4141 98.1326 50.2988L94.9039 50.8911C94.3463 46.6366 89.8578 45.0237 87.1337 41.3236C90.3341 40.1949 87.6236 38.759 89.8085 38.1883C94.6661 42.0902 101.583 40.3121 106.706 40.213C106.213 40.4678 105.943 41.0641 105.601 41.2475C107.304 45.4951 110.696 43.1382 112.098 44.1212L110.667 40.8688C110.815 41.3903 111.697 42.6284 112.834 42.5922C113.311 40.0678 108.354 36.3782 108.839 33.8298C111.639 35.8039 114.572 40.5454 116.857 40.5208C119.517 41.976 126.73 45.6495 126.175 41.3869C125.796 40.9724 125.521 40.4747 125.37 39.934C125.219 39.3933 125.197 38.8246 125.306 38.274C125.337 38.493 125.414 38.7031 125.531 38.8906L129.733 39.65C133.224 44.6005 125.388 40.6308 128.978 45.6307L133.265 49.1822C132.478 50.2606 133.293 53.1393 135.05 55.5783C137.012 54.5646 136.12 53.3319 136.582 50.8291C138.483 52.0998 139.952 53.9191 140.794 56.0452L138.503 53.8214C133.244 53.1105 140.281 60.2951 137.444 62.2708C136.962 62.5201 136.824 62.0333 136.062 61.2982C138.693 66.7192 131.233 64.3094 135.301 70.689L133.496 68.2612C134.294 71.108 136.541 77.1643 138.693 83.0482L140.339 84.3751C141.617 84.8578 140.775 85.8301 139.648 85.8475C140.718 88.7895 141.667 91.5249 142.374 93.7266C143.701 94.1766 144.935 94.4195 145.551 94.1016C143.824 92.1509 147.395 90.9319 142.515 87.8074C146.18 88.7501 143.596 83.8893 145.998 84.3759C141.86 83.677 142.472 80.0213 140.139 77.8195C143.448 79.5039 141.68 75.364 145.427 78.5354C146.67 79.0024 142.255 77.3245 144.095 79.7544C146.494 84.1264 149.544 79.2452 151.465 83.8771C150.676 79.2518 154.428 76.8101 152.875 71.4097L150.16 71.6561C151.619 70.9027 152.896 67.4814 154.921 68.734C154.704 69.9545 153.873 70.9346 153.808 72.6685C158.136 76.118 155.829 69.9851 158.616 71.9594L153.885 63.0731L152.558 64.3028C150.57 61.298 156.108 60.8971 158.463 59.2374C163.409 65.1969 155.943 62.5549 156.577 66.763C157.552 70.2109 163.088 70.2613 163.329 72.9525C165.022 73.63 165.643 72.4763 164.539 70.7951L166.067 71.0074C170.373 76.6522 166.789 78.846 169.87 84.5522C169.427 83.8939 168.916 83.284 168.346 82.7323C165.018 82.6904 163.828 84.3936 164.1 87.055C166.457 87.5582 165.527 86.318 165.251 85.379C166.644 86.3595 166.09 88.3054 167.172 89.9842C169.869 89.7673 170.595 92.1878 172.189 91.9694C172.772 93.9057 171.814 94.3669 170.371 95.072C167.845 94.085 167.898 92.4047 165.103 90.4546C165.829 92.875 158.933 88.4738 160.731 92.5919C163.639 91.1573 166.17 97.6851 167.397 99.8534L167.875 99.6068C170.5 102.731 170.165 103.443 166.869 101.746C166.278 99.82 167.88 99.6041 164.431 97.4142C164.184 97.8486 164.036 98.3316 163.996 98.8293C163.956 99.3271 164.025 99.8276 164.199 100.296L162.346 97.8927L160.665 101.482C163.156 104.093 166.624 107.947 170.498 111.543C167.331 110.33 168.76 113.006 169.238 114.452L168.28 113.233C164.819 112.79 164.646 117.388 167.024 119.52C163.998 118.865 155.867 100.52 153.122 109.309C151.2 112.002 160.077 116.959 161.806 120.541C161.382 120.159 160.904 119.843 160.387 119.601C158.954 120.341 161.989 122.705 162.607 124.616C164.351 124.831 165.134 123.862 164.189 122.684C167.356 125.524 162.138 124.866 164.199 127.712C159.747 122.734 160.564 128.48 158.489 125.634C153.411 125.482 155.801 130.967 158.854 134.968C151.053 131.78 157.734 138.288 152.869 138.731C153.351 138.482 152.841 137.038 153.946 136.992C150.728 132.505 149.859 138.108 147.558 133.081C147.889 134.046 149.793 134.715 149.471 133.739C149.607 132.533 148.333 130.416 146.248 129.255L140.999 128.707L140.494 127.234L133.046 126.814C133.863 127.42 134.781 127.876 135.758 128.161C130.833 130.335 130.777 136.667 127.793 139.478C139.427 148.434 127.342 151.135 132.968 158.866C129.961 155.776 124.101 151.222 121.273 149.948C121.17 149.007 117.1 144.47 119.078 143.798C121.175 144.905 124.527 144.747 126.005 147.336C127.216 142.679 120.357 144.206 116.614 140.03C114.879 144.958 120.355 152.27 121.451 156.851L119.976 155.947L121.356 159.777C123.254 158.689 130.09 163.417 126.28 163.886L126.106 163.405C122.405 162.628 124.153 167.431 122.467 168.993L125.586 172.913C123.882 174.465 116.389 169.599 111.52 167.249C109.025 169.848 114.006 175.601 116.256 180.076C112.358 178.851 108.695 182.819 106.267 177.844C107.392 182.43 125.242 193.324 112.567 191.591L110.206 188.321C108.003 193.162 110.223 203.499 105.583 203.376C95.2788 194.418 90.4567 201.41 78.7657 195.051C81.4572 196.463 81.2352 198.687 82.4409 199.812C80.8939 199.341 79.2383 199.141 81.1273 201.263C84.4773 200.957 91.935 209.907 89.5519 203.692C96.127 210.282 100.747 216.262 98.0126 219.71L93.3827 216.678L96.6569 214.665C93.0324 212.76 94.246 211.428 93.0525 209.807C86.9812 213.56 82.5992 202.122 79.6674 208.065C82.3512 210.529 81.3243 209.386 81.6041 211.593C81.8607 210.789 78.7377 208.645 77.9798 209.702L81.0394 213.128C72.025 210.117 78.0258 206.681 71.5077 204.86C69.1954 200.383 69.6268 195.389 63.2442 192.282C58.8421 194.427 72.3642 202.563 67.3269 204.52L64.5334 203.274C65.4353 205.671 69.4056 208.493 71.4381 210.776C69.9556 209.922 68.6639 209.568 67.7419 210.124C72.3544 216.115 72.6339 218.296 77.8844 224.468C76.3692 216.004 85.3475 222.797 84.4808 214.509C85.8647 216.603 84.8137 221.386 91.1109 225.72L86.4703 222.694C87.7693 226.055 89.0299 229.342 86.0557 230.609L84.299 227.572C85.6626 232.606 74.0483 228.035 80.3389 235.336C80.5453 235.24 80.7306 235.104 80.8841 234.936C81.0376 234.768 81.1562 234.571 81.2332 234.357C81.3101 234.143 81.3438 233.916 81.3323 233.689C81.3207 233.462 81.2642 233.239 81.166 233.034C82.2716 235.903 80.5814 237.549 78.7303 238.727L84.2683 247.082C81.9629 245.584 80.4419 247.714 77.4011 244.298C72.2588 244.555 78.4895 250.14 78.7453 252.34C72.1608 251.769 77.9343 248.727 71.6291 244.39C67.2327 246.559 66.8278 251.54 69.7805 256.19C71.0183 255.992 72.2849 256.272 73.3236 256.974C71.7828 256.15 71.2651 257.815 70.7197 258.581L73.4169 261.045C70.5279 261.072 68.8552 259.759 67.2647 257.187C65.8824 258.076 70.7758 263.283 65.563 261.829C63.2507 257.352 68.1997 256.603 66.6281 254.042C66.7812 260.44 54.4908 252.764 54.731 260.932C53.2354 260.091 51.0176 257.333 50.2815 258.418C49.7794 261.688 56.1204 263.036 58.9947 265.974C58.3578 262.802 60.7828 263.034 65.3526 264.323L67.4679 266.402C66.1393 265.677 65.2789 266.861 63.8157 266.461L68.6412 269.949C63.1646 266.293 57.6655 265.612 58.7711 268.481C63.7986 269.446 63.3219 269.746 69.9321 273.307C74.558 279.298 62.4657 272.07 67.2635 278.549C65.5988 277.239 65.6184 274.245 63.0759 275.242C61.863 276.628 66.3261 279.154 67.0613 281.059C63.1626 276.971 59.5279 275.099 54.8196 270.367C55.9541 267.268 55.5748 269.305 55.2375 265.361L49.8914 265.145C50.5866 262.353 45.6412 260.116 43.9763 258.792C36.7737 259.757 49.1468 266.201 46.3288 267.979C48.7397 271.216 48.4983 266.025 50.6203 270.043C48.4428 271.994 53.304 272.494 53.6332 276.437L51.7859 274.642C48.5134 273.718 51.4012 276.669 51.2758 277.909C52.0273 279.833 68.1285 286.912 65.7462 291.381C64.9735 290.668 64.1482 290.014 63.2773 289.424L26.9612 260.652C24.3427 265.028 20.1075 269.318 14.3404 272.646C5.99315 268.988 10.3325 265.107 6.71378 263.24L9.71985 261.956C12.8565 264.126 7.68076 267.35 14.6867 268.906C14.9246 263.407 19.7916 263.944 15.5478 255.922C7.17148 252.285 13.7341 261.805 6.25942 260.551C7.41689 259.826 7.13945 258.417 6.58523 256.875C4.11315 258.56 1.46652 260.374 -1.35464 262.32L0.113042 264.082C2.10231 262.846 3.53358 262.026 3.91028 262.04C1.74061 263.98 4.69098 268.652 10.1628 272.351L10.6289 272.056L11.8242 274.02L9.701 275.022ZM-96.2433 423.483C-96.7037 422.857 -97.2142 422.269 -97.7697 421.725C-97.0878 422.408 -96.5284 422.71 -96.2433 423.483ZM20.2919 216.81C17.4852 219.455 13.9495 221.691 11.3614 224.304C25.8778 225.765 36.6581 227.213 30.6658 236.194L31.0917 237.318C33.2048 236.972 34.6613 235.017 35.0832 232.568C32.1599 228.534 20.9947 214.397 19.6632 213.653C16.2508 212.251 19.1118 215.188 17.5098 215.612L20.2919 216.81ZM40.2207 226.213C42.5787 225.196 39.8775 224.065 37.8476 222.398L37.4813 224.812C38.5002 225.034 39.444 225.517 40.2207 226.213ZM35.5745 221.12C35.481 221.217 35.3618 221.286 35.2307 221.318C35.0997 221.35 34.9623 221.344 34.8345 221.3L35.5745 221.12ZM10.8227 254.19C10.8238 254.075 10.7937 254.016 10.8031 253.917C10.3693 254.236 9.93279 254.548 9.47781 254.877C9.74153 254.907 10.008 254.858 10.2443 254.737C10.4805 254.616 10.6761 254.429 10.8068 254.198L10.8227 254.19ZM18.5102 253.955L14.7463 250.987C14.3443 251.289 13.9424 251.591 13.5192 251.903C15.4153 252.933 17.0982 253.798 18.4943 253.964L18.5102 253.955ZM39.1324 250.623C34.7569 246.835 36.0981 244.227 30.608 240.558C29.2697 239.502 28.4015 239.681 27.5695 239.97L25.8009 241.75C26.5691 242.264 27.2552 242.89 27.836 243.609C28.9939 243.327 30.6919 243.713 33.9365 246.17C25.2768 243.325 38.2027 251.204 35.0143 252.017C38.5133 255.149 40.2961 252.212 39.1165 250.631L39.1324 250.623ZM125.692 88.8019L129.197 90.6065L130.853 93.8907C127.957 95.44 118.868 91.8018 123.891 98.7697C121.496 98.582 117.59 96.5877 114.317 95.0256C114.895 94.6502 115.554 94.4182 116.239 94.349C111.033 81.1857 128.735 98.5728 125.692 88.8019ZM96.153 110.105C95.9074 109.648 95.5768 109.241 95.1787 108.908C101.278 121.368 101.071 127.838 98.6284 130.538C102.996 132.67 107.889 132.126 110.4 132.005L114.137 136.21L110.111 134.465L112.884 139.195C116.3 140.737 116.737 138.758 119.78 139.329C118.978 138.648 116.015 131.726 113.894 128.869L108.937 129.38C110.693 129.528 112.104 125.285 111.925 123.079C109.688 121.48 104.54 121.518 109.221 125.195C105.675 123.169 107.58 120.351 102.766 119.631C100.659 115.055 105.956 113.771 108.68 113.386L114.455 117.049C117.807 116.89 108.509 111.169 113.143 111.423C112.515 114.671 119.563 115.331 118.618 117.587C121.166 118.448 124.544 121.736 125.478 119.487C119.247 112.625 131.532 120.694 126.116 114.567C129.134 115.206 129.774 118.813 132.196 117.529C129.975 112.501 127.112 110.64 121.874 106.652C118.809 107.731 127.103 114.031 124.531 114.855L117.869 104.817C116.097 104.535 115.616 104.918 115.697 105.582C115.675 104.498 114.749 102.927 113.248 101.075L111.14 98.293C109.638 100.265 108.215 101.947 105.699 100.639L103.268 98.5348C100.352 97.5475 101.394 100.047 102.939 101.944C101.969 103.97 104.341 108.355 100.676 106.371L98.7756 103.993C97.939 106.797 98.0921 107.276 96.164 110.126L96.153 110.105ZM40.6036 180.724C51.3732 185.638 61.0363 189.659 63.4904 182.102L63.8365 183.045C72.1243 183.791 59.7755 171.448 69.2028 171.928C71.6598 176.243 71.3886 175.926 78.5054 183.513L77.0533 179.673C82.0381 183.704 80.586 179.865 81.8451 178.542L87.3478 183.993C84.9355 183.706 82.76 185.61 84.2587 186.482C83.8909 185.509 74.2147 184.365 74.8006 187.516C79.251 190.096 80.152 184.867 86.0433 191.238C84.1279 187.712 88.5651 190.292 88.1483 187.625C90.0531 191.156 93.7683 191.831 96.1364 195.064L96.4591 191.356C97.9391 192.218 97.0406 197.439 103.815 198.611C102.275 196.046 107.019 194.94 102.413 191.876L103.885 192.735C106.227 191.324 97.9049 187.558 102.199 186.738C99.8874 185.19 97.9599 184.62 97.8478 185.847C98.382 187.285 101.5 189.485 101.121 191.482C97.0268 189.84 102.814 189.868 95.9586 186.978C92.5354 185.554 95.8836 192.883 89.7296 187.251L92.0716 185.827C87.4545 182.755 88.6976 181.428 84.9278 179.034C84.0367 176.645 90.0498 178.854 86.8423 174.934C84.206 172.431 78.005 169.741 81.8454 169.162C89.8077 171.971 91.6378 166.12 91.9183 163.671L90.0373 160.12C87.1226 158.379 88.3904 163.436 85.3758 159.98L85.9396 156.739L87.5863 158.106C88.5349 157.536 87.1961 155.425 86.6914 153.992C89.4889 156.976 86.9454 157.893 92.0026 160.724C93.7365 160.178 95.6375 161.179 95.4365 159.488C95.6712 160.076 96.0997 160.566 96.651 160.877C100.31 159.881 92.8011 155.01 91.645 153.383C86.9929 146.821 84.224 151.947 79.48 148.356L81.4799 139.555C82.6389 141.201 83.7872 142.839 85.903 143.93C89.2725 143.689 89.6549 146.381 91.0391 143.804C84.3723 139.587 88.9901 138.015 86.3549 133.758C89.5728 134.784 90.2159 134.963 89.1233 136.764C93.508 139.425 93.4285 135.992 94.3767 135.395C93.6373 134.197 93.573 132.954 92.9811 131.795C91.6266 131.417 90.3866 130.71 89.3716 129.737C88.3567 128.764 87.5984 127.555 87.1643 126.218L86.3355 125.523C83.495 127.219 76.2658 127.989 79.569 132.485L77.7609 130.624C72.1402 131.061 81.2025 142.037 72.2629 137.999C69.1599 135.751 71.1398 138.089 66.5756 134.976L68.7471 139.506L66.9554 137.676L65.5672 142.001L64.7627 141.328C67.7854 145.815 70.292 149.432 72.3808 152.332C74.4088 153.656 75.0883 153.957 76.1901 155.505C76.8202 156.725 76.6778 157.269 76.1546 157.492L76.1683 157.519C74.9973 158.023 71.7224 156.717 69.82 157.041L71.5179 153.328C68.2778 150.802 64.5393 148.755 61.053 148.848C61.3688 148.08 58.8855 146.043 57.9424 146.625C58.7711 147.305 58.6738 150.279 61.9446 151.277C61.1082 155.318 48.6936 154.687 52.0389 163.832C50.3947 157.76 45.596 163.678 46.7292 158.846C39.4444 158.026 50.6163 164.708 47.9566 166.948C45.8254 165.905 49.202 165.599 45.7052 162.433C40.4894 165.657 49.5299 175.98 45.019 179.398L40.5901 176.834L40.6036 180.724ZM40.3401 193.057L40.1651 196.621C40.2818 196.561 40.3424 196.496 40.4675 196.465L42.2739 201.264C44.9748 200.742 50.4051 202.696 51.1816 206.333C49.5114 205.012 46.9143 204.277 46.3615 202.842C42.8076 202.661 38.2154 204.361 45.2974 207.652C40.9551 200.883 54.0334 212.245 50.8846 207.098C54.3723 211.002 51.6964 210.986 52.8699 213.323C50.0665 209.886 44.6302 208.494 41.8037 209.214C42.3647 210.665 40.0368 212.143 40.9357 214.521C45.2245 216.579 46.7963 219.154 49.1322 217.679C49.6931 219.117 49.769 220.838 46.8614 220.868C46.5096 219.901 46.6082 218.66 45.1231 217.814C40.8984 216.361 40.4242 217.473 38.504 217.047L38.2998 218.785C38.8429 218.904 39.3716 219.082 39.8769 219.314L42.4648 223.024C41.8281 219.866 44.8875 223.278 47.2089 224.781C42.577 221.797 45.8052 225.667 45.5323 226.44L51.4075 228.109C53.451 230.414 46.257 228.363 51.3902 231.081C55.3125 229.204 55.2205 227.477 55.524 223.732L50.965 222.451C50.2549 217.563 58.7885 224.653 60.8474 220.976C58.2621 217.271 63.9881 215.49 57.0208 210.964C58.8814 212.759 64.6489 212.723 62.2647 209.486C56.7144 204.074 58.4299 199.458 54.7419 198.823C53.9549 199.901 56.5319 203.59 51.809 201.823L51.8368 198.845L47.4547 198.024C49.1378 198.082 45.6817 195.983 40.3401 193.057ZM-29.3422 216.156L-29.4834 216.182C-29.4477 216.167 -29.4186 216.14 -29.4016 216.106L-29.3422 216.156Z" fill="#D84592"/>
<path d="M134.726 48.3675C133.683 46.608 135.08 45.3828 131.667 43.1337C135.188 45.8647 130.184 46.1304 134.726 48.3675Z" fill="#D84592"/>
<path d="M139.511 49.3699C138.756 48.6107 137.357 47.6196 137.751 46.8855L137.225 49.341L139.511 49.3699Z" fill="#D84592"/>
<path d="M164.859 66.6254C162.959 63.6755 161.941 61.9505 163.298 60.7658C172.227 67.0737 163.851 64.9082 171.312 71.8602C174.13 70.0289 167.312 63.3088 168.277 60.6606C163.913 58.8218 158.433 61.3902 164.859 66.6254Z" fill="#D84592"/>
<path d="M174.751 76.2928L173.949 73.3873L173.331 73.1283L174.138 76.0311L174.751 76.2928Z" fill="#D84592"/>
<path d="M75.1446 50.7673C72.2948 48.8793 74.2962 51.8439 74.5843 52.8442C75.0665 52.5548 76.2194 52.497 75.1446 50.7673Z" fill="#D84592"/>
<path d="M65.4939 102.864C65.0309 97.8815 61.1796 93.1306 62.1995 89.029C53.5899 89.4034 67.1246 100.751 58.857 100.331L65.4939 102.864Z" fill="#D84592"/>
<path d="M43.8625 86.3504C49.5111 89.4809 48.3458 93.0797 52.5619 95.297C52.7598 92.2582 48.2307 90.8141 50.0416 89.2069L43.8625 86.3504Z" fill="#D84592"/>
<path d="M140.746 132.822L142.847 135.655L142.355 134.222L140.746 132.822Z" fill="#D84592"/>
<path d="M38.5947 104.216L37.6288 103.049L34.8687 103.534L38.5947 104.216Z" fill="#D84592"/>
<path d="M36.6444 101.872L37.6291 103.05L36.6444 101.872Z" fill="#D84592"/>
<path d="M151.204 141.909L153.25 141.356L151.304 138.994L151.204 141.909Z" fill="#D84592"/>
<path d="M114.613 134.244L113.773 131.849C113.934 132.317 110.59 132.505 114.613 134.244Z" fill="#D84592"/>
<path d="M29.747 112.563L30.7414 115.503L31.3795 115.698L30.3851 112.757L29.747 112.563Z" fill="#D84592"/>
<path d="M122.632 153.816C127.285 155.733 122.087 157.027 126.873 157.72C127.285 155.733 124.727 154.918 122.632 153.816Z" fill="#D84592"/>
<path d="M82.6312 153.496C82.495 153.7 82.4965 154.016 82.8129 154.524C82.7975 154.175 82.7364 153.829 82.6312 153.496Z" fill="#D84592"/>
<path d="M82.6313 153.496C83.0739 152.83 85.0895 153.207 84.2107 151.961C81.765 151.571 82.2637 152.342 82.6313 153.496Z" fill="#D84592"/>
<path d="M78.5054 161.795L79.1916 161.38C80.8274 163.338 80.7222 162.848 79.4431 161.217C79.7325 160.476 78.3893 159.658 77.5502 158.996L76.2041 157.548L77.3534 159.057C76.6692 160.035 76.4733 160.775 78.5054 161.795Z" fill="#D84592"/>
<path d="M119.328 175.978L123.318 180.569L122.97 179.62L119.328 175.978Z" fill="#D84592"/>
<path d="M55.0153 179.679C57.1357 180.714 56.8906 178.509 58.0296 178.411C57.0704 178.987 50.6715 175.861 55.0153 179.679Z" fill="#D84592"/>
<path d="M-4.74382 163.127C-4.26433 162.833 -1.67266 163.557 0.82076 165.549C-0.362096 163.922 -5.53422 159.45 -4.74382 163.127Z" fill="#D84592"/>
<path d="M51.7933 183.46L53.096 183.835L52.0143 180.96L51.7933 183.46Z" fill="#D84592"/>
<path d="M102.927 208.484C100.191 204.306 91.8907 205.239 90.5458 200.202C84.057 201.443 96.1739 203.397 93.7462 205.827C96.0986 204.995 101.486 207.319 102.927 208.484Z" fill="#D84592"/>
<path d="M93.7317 205.801C93.3984 205.894 93.1053 206.095 92.898 206.372C93.2026 206.224 93.4836 206.031 93.7317 205.801Z" fill="#D84592"/>
<path d="M53.7773 214.729C53.5168 214.224 53.2017 213.749 52.8375 213.313C53.0919 213.822 53.4075 214.297 53.7773 214.729Z" fill="#D84592"/>
<path d="M91.1851 216.9L87.0173 210.612C89.7665 214.803 86.7639 219.008 92.691 222.405C94.7598 221.74 94.327 219.067 92.2652 216.792L91.1851 216.9Z" fill="#D84592"/>
<path d="M54.144 208.009C55.0843 207.422 55.3573 206.65 54.8233 205.225C53.5287 204.852 51.1574 206.285 54.144 208.009Z" fill="#D84592"/>
<path d="M76.4112 256.798C77.8284 255.925 73.2572 251.666 71.9547 251.304L70.6135 253.912C75.5508 256.147 70.892 253.15 72.955 252.447L76.4112 256.798Z" fill="#D84592"/>
<path d="M15.5089 306.904L15.2228 307.69L15.9316 309.622L15.5089 306.904Z" fill="#D84592"/>
<path d="M0.695727 312.505C3.93919 313.451 2.88678 310.567 2.55092 309.592C1.46151 311.438 0.932658 309.998 0.695727 312.505Z" fill="#D84592"/>
<path d="M31.1626 329.173L31.5615 331.91L32.1968 332.099L31.1626 329.173Z" fill="#D84592"/>
<path d="M17.4725 338.239L18.4746 341.155L19.1448 341.36L18.1347 338.441L17.4725 338.239Z" fill="#D84592"/>
<path d="M8.14722 345.084C8.52888 345.876 8.98022 346.632 9.4959 347.344C9.28119 346.474 8.81161 345.687 8.14722 345.084Z" fill="#D84592"/>
<path d="M28.2556 368.291C23.388 367.714 25.1677 362.494 21.2733 364.868C17.7068 362.907 14.4299 358.383 17.182 357.896C20.2744 360.149 18.1684 360.834 22.0772 362.014C19.1202 358.474 21.8926 359.744 16.8568 356.915C15.0823 353.128 11.8001 350.65 9.4951 347.345C10.1588 350.933 2.20956 352.183 6.50259 359.064C11.2301 364.457 19.672 368.82 27.9591 374.418C30.0561 375.499 33.6543 372.122 28.2556 368.291Z" fill="#D84592"/>
<path d="M38.5146 370.901C39.4976 370.306 39.3388 369.804 39.0082 368.825C36.0666 367.072 38.8542 370.115 38.5146 370.901Z" fill="#D84592"/>
</g>
<defs>
<clipPath id="clip0_366_149">
<rect width="333" height="259" fill="white" transform="translate(-167 541.001)"/>
</clipPath>
<clipPath id="clip1_366_149">
<rect width="289" height="422" fill="white" transform="translate(-105.387 450.421) rotate(-117.314)"/>
</clipPath>
</defs>
</svg>
