<svg width="390" height="783" viewBox="0 0 390 783" fill="none" xmlns="http://www.w3.org/2000/svg">
<path d="M155.565 308.309C183.537 270.436 194.471 226.583 249.766 203.482C279.168 191.292 314.188 183.882 339.937 167.688C370.44 148.467 388.309 119.557 394.785 90.9364C401.721 60.5342 399.404 30.222 394.279 -0.000152588H-9L-9 352.015C52.7434 362.007 125.344 349.291 155.565 308.309Z" fill="#CC8ABA"/>
<path d="M309.203 681.483C287.349 671.134 278.517 644.732 252.572 625.16C226.412 605.671 183.139 593.011 172.539 574.3C162.271 555.66 184.677 530.968 211.696 509.492C238.832 488.172 270.696 470.223 305.95 465.774C341.204 461.324 380.179 470.445 399.735 488.889C419.622 507.405 420.191 535.006 415.11 555.389C410.028 575.772 399.18 588.781 395.706 608.342C392.231 627.902 396.131 654.013 380.808 669.956C365.485 685.9 330.726 691.759 309.203 681.483Z" fill="#E36515"/>
<path d="M389.886 109.373C430.899 144.899 460.132 177.514 493.291 221.776C526.451 266.038 563.973 321.948 540.849 359.222C517.288 396.786 433.081 415.714 353.236 429.401C273.392 443.087 197.911 451.24 127.665 439.01C57.4196 426.489 -7.15399 393.292 -32.4599 351.359C-57.7657 309.135 -43.8039 258.176 -36.8229 201.683C-30.2783 145.19 -30.7146 83.4563 14.6614 48.2212C60.0374 13.2773 151.226 5.12378 223.217 20.2661C295.644 35.1173 348.873 73.8467 389.886 109.373Z" fill="#F7CBB0"/>
</svg>
