<svg preserveAspectRatio="none" viewBox="0 0 1728 953" fill="none" xmlns="http://www.w3.org/2000/svg">
<g clip-path="url(#clip0_366_1156)">
<path fill-rule="evenodd" clip-rule="evenodd" d="M718.122 147.213C727.857 150.285 736.595 151.967 744.532 155.795C753.259 160.085 756.999 169.511 754.232 179.727C751.703 189.016 748.504 198.584 743.701 206.547C741.285 210.547 734.411 213.845 729.953 213.227C715.889 211.581 704.379 204.313 698.65 188.606C697.184 184.588 695.136 180.814 693.391 176.916C690.155 169.558 690.707 161.755 696.561 157.833C703.512 153.114 711.479 150.363 718.122 147.213Z" fill="#D84592"/>
<path fill-rule="evenodd" clip-rule="evenodd" d="M739.522 314.953C735.183 314.489 730.576 314.774 726.533 313.288C716.554 309.55 712.013 292.999 718.501 281.939C725.714 269.756 733.728 258.251 748.237 255.154C757.99 253.223 765.85 256.028 772.077 263.766C777.586 270.553 775.455 278.588 772.35 286.105C771.222 288.809 770.171 291.543 769.073 294.265C762.092 311.636 756.452 315.517 739.522 314.953Z" fill="#D84592"/>
<path fill-rule="evenodd" clip-rule="evenodd" d="M911.285 141.626C929.272 143.682 938.277 151.135 933.914 170.426C932.133 178.3 930.738 186.472 927.604 193.764C920.634 209.881 904.327 212.722 893.849 199.32C888.346 192.379 884.612 183.441 881.009 174.859C879.751 171.947 880.469 167.228 881.543 163.93C884.31 155.081 902.879 141.579 911.285 141.626Z" fill="#D84592"/>
<path fill-rule="evenodd" clip-rule="evenodd" d="M849.124 300.956C840.719 301.046 832.176 300.362 827.89 290.348C822.987 278.896 823.96 267.04 829.552 256.414C838.053 240.493 865.034 238.05 876.45 251.428C882.469 258.559 883.472 265.982 879.548 274.772C878.017 278.106 876.372 281.517 874.841 284.976C869.587 296.767 861.276 302.484 849.124 300.956Z" fill="#D84592"/>
<path fill-rule="evenodd" clip-rule="evenodd" d="M602 146.631C604.072 137.532 605.36 128.968 607.996 121.076C610.222 114.426 616.01 110.378 622.053 111.27C626.487 112.078 630.827 116.149 634.413 119.768C637.998 123.388 640.515 128.291 643.62 132.463C649.414 140.313 652.958 149.055 648.879 158.998C644.463 169.695 637.826 178.639 626.974 181.646C619.008 183.697 606.239 173.516 604.119 163.592C602.873 157.875 602.594 151.771 602 146.631Z" fill="#D84592"/>
<path fill-rule="evenodd" clip-rule="evenodd" d="M795.798 90.0054V92.4717C795.798 115.94 781.551 125.301 762.596 114.276C754.838 109.665 753.585 101.244 752.742 92.6916C752.356 88.7871 751.768 84.633 750.474 81.1088C745.725 67.5886 754.095 55.0786 767.138 56.5763C767.618 56.6297 768.093 56.9685 768.58 57.0041C792.195 58.6563 795.798 62.9649 795.798 90.0054Z" fill="#D84592"/>
<path fill-rule="evenodd" clip-rule="evenodd" d="M678.075 246.365C677.481 250.912 677.451 253.188 676.887 255.161C673.64 267.225 652.738 276.859 640.616 272.205C629.931 267.926 624.416 251.714 630.103 238.235C633.211 230.946 637.328 224.13 642.332 217.988C651.189 207.237 664.041 210.601 668.618 224.234C669.71 227.55 671.776 230.337 673.1 233.433C675.112 238.289 676.87 243.263 678.075 246.365Z" fill="#D84592"/>
<path fill-rule="evenodd" clip-rule="evenodd" d="M845.859 182.121C845.895 197.169 838.771 205.299 827.611 205.079C820.738 204.924 813.93 203.707 807.427 201.472C796.902 197.864 792.307 185.759 796.938 173.427C799.94 165.78 803.686 158.446 808.122 151.533C812.461 144.461 823.188 142.512 828.383 148.734C837.014 159.021 844.375 170.699 845.859 182.121Z" fill="#D84592"/>
<path fill-rule="evenodd" clip-rule="evenodd" d="M705.887 89.8157C705.964 104.614 688.262 119.626 677.018 115.816C669.895 113.397 665.65 107.912 665.009 99.7999C664.492 93.4647 662.967 88.5083 658.716 83.9976C653.795 78.6905 654.116 68.8074 658.271 62.7158C662.51 56.5054 669.604 54.3363 676.033 57.6405C681.969 60.8557 687.905 64.1302 693.397 68.1417C696.837 70.7182 699.719 73.9682 701.866 77.6941C704.013 81.42 705.381 85.5441 705.887 89.8157Z" fill="#D84592"/>
<path fill-rule="evenodd" clip-rule="evenodd" d="M860.422 106.783C848.045 104.94 840.173 92.5194 844.121 80.0392C845.516 75.582 846.899 71.2555 848.472 67.0063C851.232 59.4944 858.184 54.5796 864.981 56.3684C874.236 58.8823 879.774 67.0122 883.485 75.9802C887.136 84.853 883.882 93.2147 877.459 98.5634C872.657 102.7 866.168 104.168 860.422 106.783Z" fill="#D84592"/>
</g>
<g clip-path="url(#clip1_366_1156)">
<path d="M321.074 816.307C322.332 816.551 321.074 819.7 319.836 820.599C324.133 818.958 321.359 822.491 326.362 816.689C329.884 814.68 327.884 819.722 324.609 821.096L330.923 820.11L329.647 817.596C334.208 813.099 331.683 821.62 336.997 816.343L332.917 813.925L334.43 812.43C332.162 813.545 331.121 811.502 331.117 810.378C331.861 809.63 332.865 808.247 333.635 808.619C329.506 804.741 325.487 816.375 320.517 815.149C320.842 815.211 321.071 815.509 321.074 816.307Z" fill="#F49C83"/>
<path d="M326.934 801.108L320.46 806.17L319.124 802.501C317.405 804.658 314.151 804.928 313.949 807.846C314.46 807.712 315.456 807.446 315.705 807.957C311.763 812.432 310.45 807.611 307.551 812.962C310.548 813.311 310.051 814.59 314.274 811.755C315.01 812.638 315.535 813.678 315.807 814.795C316.08 815.912 316.093 817.077 315.846 818.2C316.952 817.922 319.292 815.119 320.448 815.098C320.234 815.06 320.026 814.995 319.828 814.904L325.291 807.817C323.533 808.834 323.526 807.69 322.751 807.322L332.276 801.502C336.454 794.159 330.39 795.62 331.327 791.925C328.169 799.071 327.817 793.969 326.934 801.108Z" fill="#F49C83"/>
<path d="M320.428 815.109L320.52 815.155L320.428 815.109Z" fill="#F49C83"/>
<path d="M57.021 705.047C56.2646 704.777 54.9545 706.447 54.2918 707.293L62.0611 711.845C63.0488 709.691 62.3571 705.858 64.557 705.559C65.2576 702.935 62.0945 703.611 60.1277 706.152L62.5537 703.431C58.3923 706.267 61.895 697.836 64.4599 696.228L64.2848 696.18L50.1572 708.256C51.437 710.225 54.7384 703.897 57.021 705.047Z" fill="#F49C83"/>
<path d="M46.8576 711.082L42.4178 714.835C44.034 713.755 45.5234 712.496 46.8576 711.082Z" fill="#F49C83"/>
<path d="M101.338 645.778C101.517 645.518 101.676 645.244 101.811 644.959L99.6594 646.955C100.254 646.586 100.8 646.19 101.338 645.778Z" fill="#F49C83"/>
<path d="M0.852177 706.935C0.612405 706.956 0.437264 706.908 0.167969 706.925C0.389162 707.001 0.628732 707.004 0.852177 706.935Z" fill="#F49C83"/>
<path d="M138.3 631.248L132.181 633.736C133.936 631.86 131.911 631.514 134.146 629.433C133.679 629.624 131.951 629.742 131.624 631.045L132.391 631.31C126.802 636.504 126.422 639.572 120.559 642.561C120.141 647.393 123.018 644.476 125.722 642.209C126.175 642.036 126.648 641.924 127.13 641.877L135.268 634.805L138.3 631.248Z" fill="#F49C83"/>
<path d="M49.9132 707.377C48.9964 708.689 47.9717 709.923 46.8498 711.065L50.1697 708.229C50.0437 707.958 49.9574 707.671 49.9132 707.377Z" fill="#F49C83"/>
<path d="M60.8936 695.303L64.3081 696.174L67.3521 693.567C65.4994 694.119 63.7008 694.181 60.8936 695.303Z" fill="#F49C83"/>
<path d="M3.14068 713.476C-3.47564 710.683 9.20026 707.104 7.57118 703.621C5.37001 703.452 2.58615 706.515 0.855059 706.941C7.50141 707.024 -7.00616 717.969 -1.02511 719.157C-5.64399 725.043 -8.82399 723.814 -9.39411 721.049C-7.42724 713.82 -4.96398 717.667 -0.805451 712.01C-3.36174 711.761 -3.71869 713.073 -6.67786 715.912C-8.82359 712.565 -17.7017 719.27 -14.1734 709.781C-17.2241 709.697 -18.9263 712.665 -22.2083 715.006C-26.6015 721.272 -21.0798 720.503 -23.5093 726.096C-23.2868 725.098 -22.8768 724.151 -22.301 723.306L-21.2531 725.889C-21.6351 722.479 -16.8789 719.613 -15.5876 719.73C-14.7951 720.042 -13.213 720.661 -14.5421 722.321L-16.497 723.023C-16.4107 725.949 -10.4633 720.262 -11.2328 724.694C-12.0728 726.192 -13.0563 726.519 -13.7024 727.384C-9.27183 724.015 -7.8694 725.294 -3.50221 723.656L-8.94109 729.204C-2.53813 723.305 0.52974 728.034 1.20586 733.673C1.54706 732.37 1.42864 731.233 2.56715 730.225C5.30513 729.792 3.88541 735.043 0.946088 737.918C6.00575 733.654 4.76638 746.542 11.4629 741.062L42.4815 714.902C41.7854 715.421 40.9739 715.764 40.1165 715.901C42.629 709.632 41.6844 710.007 46.6757 705.691C43.158 707.671 40.9968 712.617 38.3355 711.319C41.0753 709.067 45.3297 702.72 43.3441 700.562C33.8461 702.486 19.8386 716.092 9.04738 720.736C11.5573 716.26 6.35872 714.724 4.82536 712.336C8.58225 708.184 11.0162 707.854 13.2711 707.947C12.4161 707.004 10.6995 705.759 9.4971 704.725L3.14068 713.476Z" fill="#F49C83"/>
<path d="M26.3639 707.617C26.4346 707.252 26.4482 706.879 26.404 706.51C26.2532 706.861 26.2389 707.256 26.3639 707.617Z" fill="#F49C83"/>
<path d="M13.637 708.346L13.954 707.89L13.2168 707.895C13.3712 708.031 13.512 708.182 13.637 708.346Z" fill="#F49C83"/>
<path d="M54.5638 696.636C55.6857 695.61 56.1659 695.418 57.2955 694.381C56.8256 694.641 56.3371 694.867 55.8339 695.055C55.239 695.417 54.7897 695.977 54.5638 696.636Z" fill="#F49C83"/>
<path d="M51.0401 705.065L49.749 706.746C49.7844 706.96 49.8393 707.172 49.913 707.376C50.4466 706.694 50.8306 705.906 51.0401 705.065Z" fill="#F49C83"/>
<path d="M5.36658 659.828L4.19043 660.401C4.58483 660.541 4.97396 660.257 5.36658 659.828Z" fill="#F49C83"/>
<path d="M1.10238 701.867C3.44988 702.785 5.45437 695.563 8.4134 697.412L7.80144 696.467C11.6525 695.067 14.5631 698.612 17.2127 699.963C15.2947 702.355 16.7611 704.054 13.9533 707.89C16.2596 708.002 18.5279 708.182 21.995 704.587C22.2158 706.605 26.1 703.959 26.3884 706.518C27.3323 703.728 33.4421 699.474 28.297 700.412C28.7647 700.248 28.9444 699.588 29.4197 699.413C29.4219 694.703 24.9908 699.931 23.117 698.873C23.5022 695.815 27.3153 696.105 26.8729 694.518C23.2356 695.321 21.5683 687.204 16.0452 696.292C13.9946 695.899 15.0152 693.767 15.5522 691.809C6.87392 699.777 8.47908 681.507 0.720599 693.769C1.98277 693.895 3.38195 695.155 6.44294 693.435L1.10238 701.867Z" fill="#F49C83"/>
<path d="M50.6982 695.154C50.6188 695.007 50.4141 694.955 50.3715 694.788C50.4596 694.927 50.57 695.051 50.6982 695.154Z" fill="#F49C83"/>
<path d="M55.0062 747.005L49.222 754.578C43.0894 753.499 42.6545 750.103 38.0884 747.778C38.2007 747.338 38.424 746.934 38.7368 746.605C39.0497 746.276 39.4417 746.032 39.8755 745.897C36.2453 744.967 32.7065 740.472 28.2014 742.822C27.2618 742.162 26.2936 738.03 28.7221 736.245C27.811 736.669 26.8445 737.027 26.4521 736.439C28.1001 733.446 28.1884 736.35 29.6887 734.013C29.3781 733.563 29.5573 732.89 28.8797 733.771C31.1579 731.707 34.1666 723.455 37.4273 725.725C34.5712 733.305 34.6021 725.079 30.7771 733.025C31.8696 733.793 33.5201 730.792 34.1771 729.935C35.5001 730.978 34.3107 732.835 33.1846 734.494C35.1527 732.509 34.973 736.84 37.8932 733.778C41.027 734.895 34.297 739.308 36.167 740.334L41.856 733.389L43.9968 736.664C49.9941 736.664 51.3857 723.177 58.981 721.914C55.9137 725.483 53.8549 733.358 55.2389 736.35C53.677 735.782 48.0928 739.162 47.6725 735.807C46.5769 743.305 43.7547 734.393 40.9128 741.999C44.1299 739.551 46.483 740.391 47.0495 743.124L46.0915 743.499C47.3332 745.36 53.4781 738.216 54.0168 742.709C55.346 743.185 53.8248 745.194 52.5381 746.845C54.2298 746.271 56.0247 745.323 55.0062 747.005ZM51.4732 747.047L50.3425 745.316C49.9586 746.792 50.5752 747.117 51.4732 747.047Z" fill="#F49C83"/>
<path d="M304.98 785.798L305.022 786.719C305.081 786.571 305.108 786.413 305.1 786.254C305.093 786.095 305.052 785.94 304.98 785.798Z" fill="#F49C83"/>
<path d="M167.64 691.049L168.402 691.858C168.341 691.676 168.242 691.51 168.11 691.37C167.978 691.23 167.818 691.12 167.64 691.049Z" fill="#F49C83"/>
<path d="M203.633 678.643L206.081 677.723C205.496 677.482 204.624 677.953 203.633 678.643Z" fill="#F49C83"/>
<path d="M294.756 777.49L294.745 777.408C294.594 777.5 294.438 777.584 294.277 777.66L294.756 777.49Z" fill="#F49C83"/>
<path d="M234.088 722.434C233.88 723.123 233.775 723.838 233.775 724.557C233.972 724.245 234.102 723.894 234.156 723.529C234.209 723.163 234.186 722.79 234.088 722.434Z" fill="#F49C83"/>
<path d="M203.179 678.821L203.18 679.01L203.654 678.632L203.179 678.821Z" fill="#F49C83"/>
<path d="M172.044 663.358C171.688 663.466 171.34 663.597 171.001 663.751C171.383 663.741 171.75 663.603 172.044 663.358Z" fill="#F49C83"/>
<path d="M160.252 685.68C159.886 685.747 159.536 685.885 159.223 686.086L160.252 685.68Z" fill="#F49C83"/>
<path d="M137.656 651.8L135.765 652.143C136.084 652.244 136.423 652.266 136.753 652.206C137.082 652.147 137.393 652.007 137.656 651.8Z" fill="#F49C83"/>
<path d="M160.031 678.723L159.213 679.646C159.586 679.445 159.876 679.118 160.031 678.723Z" fill="#F49C83"/>
<path d="M296.585 812.543L296.496 812.516L295.842 813.317L296.585 812.543Z" fill="#F49C83"/>
<path d="M307.27 804.382C307.768 804.425 308.262 804.524 308.74 804.592C308.539 804.424 308.295 804.315 308.035 804.278C307.775 804.24 307.51 804.276 307.27 804.382Z" fill="#F49C83"/>
<path d="M244.143 746.092C243.762 747.384 243.663 749.174 242.505 750.159C244.144 749.023 246.591 745.246 244.143 746.092Z" fill="#F49C83"/>
<path d="M257.603 852.934C258.366 852.222 259.173 851.559 260.02 850.951C258.828 851.709 257.842 852.296 257.603 852.934Z" fill="#F49C83"/>
<path d="M260.032 850.972L261.833 849.81C261.207 850.157 260.606 850.545 260.032 850.972Z" fill="#F49C83"/>
<path d="M195.581 802.408C195.833 801.845 195.986 801.348 195.911 801.11C195.295 802.155 195.283 802.46 195.581 802.408Z" fill="#F49C83"/>
<path d="M308.671 806.338C310.13 804.791 317.397 804.642 314.312 800.838C318.477 795.72 318.586 800.309 320.587 799.805C320.806 798.011 323.547 796.742 324.768 794.706C323.777 794.942 322.022 795.978 321.503 794.941C322.958 792.256 325.473 791.625 325.78 793.311C326.695 789.602 330.532 790.387 330.439 786.923C325.31 785.892 321.279 785.652 312.83 791.454C315.912 791.71 319.419 792.036 319.513 795.466L315.323 799.43C316.44 793.956 313.002 795.934 311.399 794.133L313.829 799.816C312.916 805.14 310.92 804.962 308.758 804.589C309.057 804.929 309.187 805.484 308.671 806.338Z" fill="#F49C83"/>
<path d="M275.55 844.014L275.518 844.193C275.696 844.101 275.864 843.992 276.021 843.868L275.55 844.014Z" fill="#F49C83"/>
<path d="M78.1371 750.743L76.6304 752.364C77.2455 751.94 77.7599 751.387 78.1371 750.743Z" fill="#F49C83"/>
<path d="M289.774 820.162C289.717 820.193 289.706 820.185 289.774 820.162V820.162Z" fill="#F49C83"/>
<path d="M87.3667 756.881L87.0662 757.267C87.1878 757.14 87.2714 756.994 87.3667 756.881Z" fill="#F49C83"/>
<path d="M153.596 653.124C153.711 652.885 153.833 652.67 153.931 652.414C153.861 652.436 153.796 652.473 153.741 652.521C153.686 652.57 153.641 652.629 153.609 652.696C153.578 652.762 153.56 652.835 153.558 652.909C153.556 652.982 153.568 653.056 153.596 653.124Z" fill="#F49C83"/>
<path d="M87.652 756.429L87.367 756.882C87.4715 756.737 87.5667 756.586 87.652 756.429Z" fill="#F49C83"/>
<path d="M144.329 766.382C144.329 766.382 144.699 765.457 144.963 764.514C144.532 765.039 144.307 765.703 144.329 766.382Z" fill="#F49C83"/>
<path d="M139.73 753.687L139.894 753.049L139.73 753.687Z" fill="#F49C83"/>
<path d="M256.148 723.207C255.982 723.048 255.785 722.924 255.568 722.843C255.352 722.763 255.122 722.727 254.892 722.739C255.03 722.934 255.224 723.083 255.448 723.167C255.672 723.25 255.916 723.264 256.148 723.207Z" fill="#F49C83"/>
<path d="M87.082 757.259C86.6218 757.774 86.1233 758.254 85.5909 758.695C86.1285 758.26 86.6274 757.78 87.082 757.259Z" fill="#F49C83"/>
<path d="M173.201 750.385L172.595 750.746L172.608 751.085L173.201 750.385Z" fill="#F49C83"/>
<path d="M175.68 756.877C175.208 757.32 174.761 757.788 174.34 758.279C177.275 757.306 178.985 761.417 182.579 756.498C181.933 756.27 180.87 751.409 183.262 748.714C181.281 749.267 181.802 744.576 180.641 745.027C180.809 749.047 178.136 749.499 175.748 750.429C175.509 748.19 178.558 746.422 178.15 744.824L175.056 743.692L177.018 745.856L173.202 750.364L173.74 750.04C179.207 750.265 169.556 757.523 175.68 756.877Z" fill="#F49C83"/>
<path d="M174.349 758.295C173.833 758.474 173.356 758.75 172.942 759.108C173.378 759.273 173.829 758.853 174.349 758.295Z" fill="#F49C83"/>
<path d="M185.515 776.72C185.921 776.664 186.319 776.557 186.699 776.4C186.461 776.5 186.006 776.536 185.515 776.72Z" fill="#F49C83"/>
<path d="M68.8861 695.63C68.0547 697.144 68.582 701.615 70.8733 697.753C70.4281 696.928 69.9744 696.087 69.4863 695.258L68.8861 695.63Z" fill="#F49C83"/>
<path d="M243.89 783.81C243.724 783.535 243.475 783.32 243.179 783.197L242.636 783.673C242.429 784.321 243.404 783.978 243.89 783.81Z" fill="#F49C83"/>
<path d="M185.114 747.395C184.4 747.682 183.767 748.14 183.27 748.729C183.997 748.464 184.635 748.002 185.114 747.395Z" fill="#F49C83"/>
<path d="M238.035 792.724C237.579 794.355 236.935 795.928 236.115 797.411C236.739 797.901 238.529 796.277 239.673 796.046C238.549 796.063 237.936 795.078 238.035 792.724Z" fill="#F49C83"/>
<path d="M68.4667 693.143C68.1008 693.31 67.7242 693.452 67.3393 693.568L68.294 692.747L67.3743 690.591C67.0442 690.73 66.689 690.799 66.3308 690.794C66.6551 690.575 66.9354 690.297 67.1573 689.975L66.9091 689.214C63.1908 692.381 58.1869 693.304 55.819 695.064C53.5405 696.009 51.4532 696.063 50.6824 695.163C51.5164 695.778 53.1674 695.694 54.1605 693.286C53.777 689.91 56.9563 682.841 50.4214 686.572L52.2704 687.609L42.9924 693.574C43.7523 689.174 47.6252 690.605 50.0964 687.88C44.3638 690.106 48.6729 677.311 42.6688 683.748C45.1625 679.267 49.3337 671.798 47.0098 670.949C45.4014 676.831 43.7942 673.363 41.7109 679.434C39.427 681.488 40.3856 676.438 38.2383 679.612L39.5589 677.936C40.3436 668.869 32.4547 678.928 28.7213 681.526C23.3888 680.659 23.2105 676.671 19.3359 675.187C21.0297 672.203 25.1586 663.638 23.6073 663.064C20.4822 666.576 16.2401 666.409 12.7148 671.216C13.8341 674.886 17.4054 668.304 19.6179 668.067C17.4938 674.112 16.4198 673.341 16.0924 677.562C16.0466 674.649 8.23347 676.376 9.90894 670.505L10.8754 670.146C10.4297 665.637 17.9517 652.988 9.21698 657.96L5.37246 659.825C5.80712 659.373 6.17654 658.801 6.51094 658.39C3.80682 655.894 8.31608 650.773 2.03041 653.08C2.51387 652.907 2.70973 652.252 3.19077 652.087C3.10746 648.062 -2.47703 652.372 -4.6851 652.58C-2.84026 647.852 -1.78971 648.642 0.721613 646.004C-1.55642 642.186 -9.85103 646.88 -15.3044 650.516L-15.8554 646.654C-13.4296 645.806 -8.96501 642.501 -7.69968 639.742C-9.42954 639.78 -10.5043 641.886 -11.6461 639.972C-9.58631 637.503 -7.2429 635.56 -4.24853 632.736C-4.73891 626.033 -11.2782 641.571 -8.27169 631.882C-9.32223 631.092 -12.5323 634.534 -14.7917 637.626L-13.9533 632.153C-16.9004 636.057 -19.4951 634.669 -21.5134 634.198C-22.8923 635.804 -23.1495 639.362 -21.4867 638.207C-23.7541 641.297 -26.4732 641.652 -27.5213 640.854C-22.1499 632.126 -35.4495 637.113 -27.3388 628.081C-34.0561 627.439 -41.4605 623.538 -47.1463 624.782C-46.5573 621.75 -48.6334 620.116 -44.5523 617.106C-48.4305 614.396 -56.5045 621.359 -58.7065 616.299C-58.2683 615.024 -56.9273 617.496 -55.0587 614.635C-59.9655 616.103 -57.0256 607.786 -62.4897 607.153C-61.7288 607.481 -60.2843 605.922 -59.5637 605.132C-60.5025 606.548 -63.2382 606.797 -65.2154 607.382C-65.2505 606.261 -63.7358 606.943 -63.2765 605.657C-67.7838 596.339 -81.7941 603.114 -88.8324 596.912C-86.8221 598.663 -81.8761 593.924 -80.1597 591.749L-82.098 590.081C-84.9641 592.137 -86.4845 590.929 -89.3283 591.908C-88.6982 590.788 -88.4693 589.226 -86.8449 588.464C-86.5749 579.939 -100.833 593.206 -103.609 586.542L-89.066 580.578L-87.5641 575.731L-81.0914 572.916C-80.2831 568.782 -87.026 574.49 -84.0091 570.338C-82.7782 569.463 -82.2855 570.439 -80.5254 568.295C-80.7288 565.555 -83.2455 568.447 -84.9795 568.352C-75.5001 562.509 -69.9722 567.056 -65.3522 567.433C-64.3671 567.159 -67.3089 569.1 -68.0542 569.868C-66.5917 570.592 -67.8506 573.727 -65.1694 573.529C-61.4988 570.801 -63.9243 570.38 -64.4036 569.404C-61.9233 566.457 -61.6681 566.93 -60.4907 567.163C-63.4397 571.353 -56.9166 572.277 -59.6026 578.123C-53.9731 580.37 -52.3391 567.031 -49.1244 572.182L-51.2918 577.871C-45.9048 576.212 -40.1008 575.501 -37.8577 578.714L-38.6259 578.409C-40.528 580.114 -40.7507 581.877 -41.2055 583.133C-40.4137 586.838 -34.1833 582.593 -36.2605 588.348C-30.0265 585.241 -23.0421 584.606 -18.1465 584.06C-21.8024 590.925 -25.8754 586.684 -29.91 589.731L-27.1523 591.634C-28.9068 590.546 -31.2991 592.461 -34.86 595.279C-33.2918 598.185 -28.545 593.227 -25.1208 593.211C-26.5215 594.802 -26.9679 596.074 -25.9416 596.857L-22.6629 592.875C-22.7861 593.057 -22.8678 593.263 -22.9021 593.48C-22.9364 593.697 -22.9225 593.918 -22.8614 594.129L-16.9973 594.397C-16.597 591.996 -14.0701 588.319 -15.0722 587.543C-16.4221 590.246 -17.6523 590.116 -18.6523 589.319C-15.8008 587.224 -18.0528 586.282 -16.4238 584.046C-14.4166 585.615 -11.4505 586.837 -9.28204 586.643L-11.5714 590.824C-10.2839 593.209 -6.64369 592.499 -6.07911 594.576L-7.91804 596.335C-6.36397 599.215 -2.26696 598.333 -2.7315 603.632C2.47744 600.637 7.74166 598.725 12.6622 595.221C17.0031 590.782 14.757 605.814 21.9545 600.294C21.7586 600.95 17.7437 603.001 15.6338 604.385C16.7449 606.254 22.2381 600.82 19.1912 606.488C16.732 602.258 16.5587 610.887 13.9004 611.304C14.8579 611.884 15.9581 612.184 17.0772 612.173C18.1963 612.161 19.2899 611.837 20.2348 611.237C17.4376 609.436 26.093 604.493 21.7752 604.978C26.9129 601.926 31.0579 602.064 32.4678 605.543C30.9262 607.841 30.5417 609.127 30.8988 610.719L33.8733 607.858C34.7105 609.259 28.9068 610.322 30.5995 613.106C36.8842 608.974 36.1643 621.304 44.1576 611.338C43.3802 616.798 37.7203 613.238 37.3104 620.285C33.1175 623.05 33.6157 617.123 29.6037 622.084C32.264 621.645 27.3021 626.983 28.3538 627.725L32.3465 625.644L32.0856 625.161C38.4692 622.143 41.8687 627.737 46.4209 629.446C53.218 626.239 60.4753 619.899 64.2092 623.034C61.0042 625.442 65.6989 628.207 59.4649 632.42C59.5902 636.423 63.578 634.271 65.073 631.937C63.9037 630.085 64.955 630.813 64.2716 628.781C67.0033 626.526 69.1043 628.018 68.8435 630.438C68.5826 629.955 68.3762 630.616 67.7264 631.448C68.5226 634.607 70.4509 629.218 72.6322 628.922C70.6021 633.193 75.1399 631.972 75.1582 634.859L80.5977 630.356C77.2296 633.443 81.5736 632.855 79.7402 636.498C82.7428 634.707 86.7365 630.781 88.2241 633.072C86.1555 634.494 88.3967 637.05 86.105 640.899C87.4772 646.76 98.4522 634.16 98.52 641.702C97.8674 642.529 95.6406 644.613 96.0558 646.187C97.496 645.599 98.5944 646.893 99.6928 646.992L99.5994 647.083L99.7203 647.018C100.256 647.068 100.805 646.751 101.379 645.83C105.097 642.976 108.191 639.596 112.928 638.165C115.381 633.659 111.98 633.894 110.07 634.68L106.547 638.448C109.711 631.312 103.302 638.028 104.005 635.41C110.423 628.723 114.142 633.602 119.956 630.634C121.874 623.452 118.591 620.135 114.766 618.807L114.639 622.342L112.821 621.349L111.698 627.037C110.519 625.204 108.34 625.505 106.986 624.316C108.815 625.316 105.808 631.736 105.407 630.189C106.047 624.7 101.63 631.725 100.275 630.536C100.87 631.45 101.93 632.194 99.6811 634.249C99.9324 627.173 97.0134 630.099 97.7319 622.845C93.5958 630.329 93.9024 621.519 89.8223 627.209L90.7121 628.581L85.3408 631.338C86.5557 623.897 91.2152 626.647 90.1011 620.158C87.1427 617.304 82.5207 624.969 79.4674 623.862C83.0181 620.121 87.4347 617.757 89.5163 619.226L89.4899 616.336C91.7309 614.278 94.407 616.647 95.7321 617.845C90.2021 621.25 95.9596 620.076 94.724 624.638C97.504 620.6 95.4927 620.267 99.4449 618.087C97.6262 617.08 97.1388 617.296 95.8701 614.317C99.5572 619.2 109.144 602.545 111.235 608.643C108.117 609.328 108.228 615.076 107.224 617.24C108.452 617.303 110.936 617.455 112.345 616.884L115.335 610.433C119.404 609.336 112.463 622.635 119.117 618.168C121.693 614.783 117.353 615.403 118.292 615.018C124.518 613.618 119.99 624.197 120.738 630.863C122.034 629.166 124.317 625.315 127.473 622.865C124.887 626.256 124.665 628.662 121.685 630.481C121.91 632.72 124.941 630.908 126.832 630.125C125.669 626.512 130.997 625.522 132.768 623.624C133.663 625.006 130.183 627.006 128.793 627.573C129.222 629.16 127.184 635.227 131.07 630.158C128.792 634.006 122.12 638.476 119.628 638.322L120.531 639.706C118.463 641.128 118.632 640.474 117.729 639.116C117.166 642.812 115.068 646.014 113.126 648.562C113.3 647.904 113.767 647.713 113.945 647.075C113.507 645.485 112.095 646.037 111.106 648.227C107.074 652.798 110.579 652.277 109.708 655.264L111.89 655.185L127.185 641.916C130.614 641.368 129.242 645.928 129.438 649.446L132.571 645.319C134.268 646.968 135.282 649.487 130.637 654.307C131.461 652.791 130.989 652.985 130.688 652.516C130.372 652.96 130.001 653.363 129.585 653.715L129.017 654.422C130.714 654.388 132.407 654.266 134.092 654.058C126.637 658.285 129.066 661.954 123.74 669.408L128.906 669.049C128.207 665.24 131.174 665.206 132.613 664.605C130.17 669.14 135.547 666.333 136.454 667.723L135.818 668.568C136.08 670.815 138.412 671.639 140.611 671.341C141.438 669.83 147.681 663.786 151.212 660.008C149.67 656.824 152.245 655.977 153.692 653.126C153.801 653.529 154.241 653.868 154.636 653.343C155.755 652.311 155.149 651.376 155.962 649.879C152.022 650.296 148.897 649.195 144.088 654.666C143.232 657.944 147.104 652.862 146.905 655.284C143.071 658.601 141.837 656.743 139.695 655.287L141.094 651.18L137.655 651.822C139.765 650.439 141.533 646.249 144.319 646.936C146.106 643.258 141.522 646.316 140.79 644.282L137.085 648.731C139.02 646.18 136.265 643.793 140.695 641.402L146.658 639.541L147.683 635.595L151.25 636.472L148.994 638.578C155.867 638.112 144.516 649.137 152.914 646.355C158.028 641.362 160.061 641.723 162.197 644.988C159.221 644.993 159.451 649.027 156.559 651.952C157.266 655.777 160.98 651.344 163.507 649.742C162.184 653.211 161.035 656.009 159.335 654.355C155.119 660.749 162.621 654.8 158.719 661.649C165.404 665.422 177.179 643.055 179.752 656.144L177.812 658.684C184.789 658.311 185.65 663.274 191.499 663.93L190.859 673.014C189.408 673.58 184.113 677.422 183.077 681.36C185.612 673.323 182.268 674.632 182.681 669.741C181.382 671.433 181.347 673.216 180.996 674.538C179.904 673.771 181.254 670.328 179.016 670.606C178.208 672.088 178.774 674.808 177.033 674.913L177.621 669.378C173.655 669.762 170.023 678.846 168.036 674.925C170.959 671.454 175.548 666.644 177.352 666.504C176.416 664.771 180.709 665.371 180.775 662.262C175.22 666.665 176.921 661.52 171.984 663.411C172.794 662.811 173.557 661.748 174.445 661.811L171.874 656.971C170.859 660.911 166.331 658.605 163.709 663.779C166.761 668.428 167.306 664.674 170.503 670.445C168.43 670.716 163.604 674.671 159.956 678.784C159.998 678.691 160.021 678.591 160.022 678.488C160.023 678.386 160.002 678.285 159.961 678.191C156.248 682.624 156.21 684.402 151.009 692.942C156.927 688.208 155.376 694.107 160.123 692.23C163.469 687.859 162.22 685.331 160.176 685.742L164.384 684.061L162.621 685.935L167.565 691.11C166.293 690.677 164.263 693.15 162.435 694.842C163.083 695.49 163.097 697.199 163.061 699.03C165.61 694.465 167.638 691.383 168.328 691.92C171.502 695.288 171.131 700.583 169.429 706.53L170.079 706.477C172.24 701.518 177.8 699.915 181.838 695.971C178.888 700.65 182.058 699.998 181.671 703.077C185.583 698.021 189.406 690.082 190.786 684.832C185.151 688.219 186.274 688.943 180.744 695.226L173.769 697.389L177.335 693.625C176.443 690.463 170.982 694.965 174.57 689.432C177.952 686.345 178.349 689.72 181.74 686.614L181.634 683.727C187.421 679.68 179.607 689.801 184.879 687.728C186.737 682.295 185.352 687.548 188.566 685.107C189.597 681.159 182.597 683.336 188.455 675.75C192.151 673.131 187.707 688.366 194.679 681.537L194.014 682.404C196.315 685.233 200.221 681.259 203.142 679.052C202.786 682.466 206.821 679.861 208.375 680.427L206.88 682.76L209.43 682.985C205.847 686.703 207.245 681.45 205.178 681.04L202.68 685.55C203.978 679.156 197.808 686.253 194.008 689.118C198.502 686.658 199.436 693.983 205.251 685.763L203.848 691.019L205.48 689.819C204.428 693.779 200.168 698.318 197.64 698.122C197.814 697.102 198.222 696.136 198.831 695.301C196.725 696.702 193.804 699.588 192.269 697.234L194.853 695.636C192.354 693.633 188.869 693.839 185.298 697.591C187.868 701.371 191.342 704.45 195.403 706.548C202.608 697.333 207.345 692.584 213.624 683.741C217.143 683.585 221.283 684.417 221.319 689.086L219.991 690.76C220.444 692.354 221.716 692.461 223.174 691.918C222.766 695.008 219.373 696.29 219.322 698.068L224.779 697.192C221.947 701.197 218.975 699.375 217.387 698.794C217.875 698.605 218.844 698.251 219.021 697.586C218.452 694.86 210.982 700.025 214.023 693.58C212.573 694.125 218.412 690.16 215.908 688.16C215.507 684.766 211.554 689.797 210.239 691.484C208.744 693.818 211.057 696.47 208.298 698.686C209.887 699.266 212.341 696.585 212.716 699.971C211.146 699.387 206.282 702.983 207.82 698.869C202.334 701.538 195.859 712.835 196.766 714.239C198.61 710.591 204.416 713.088 203.643 706.341C208.034 702.899 211.013 704.71 214.871 703.259L214.213 704.089L217.545 704.618C216.395 705.618 214.949 706.168 213.453 708.489L221.048 704.471C216.334 707.415 220.464 708.178 220.227 710.668C222.882 707.328 225.97 705.621 225.902 702.692C226.004 699.109 223.776 704.057 222.204 703.446L227.774 699.083L227.597 699.749L231.719 695.896C234.187 697.955 223.726 705.888 230.052 703.58L233.602 696.996C237.046 700.511 237.664 710.883 242.353 709.804C239.26 712.872 235.244 718.391 234.113 722.468C233.598 720.609 231.026 719.263 228.897 718.736C229.264 717.419 235.825 712.717 236.864 715.284C242.535 704.421 228.107 718.43 234.564 707.868C232.028 701.095 224.543 715.611 224.341 706.839C221.329 711.477 221.731 708.377 218.909 712.362C215.296 720.752 224.535 715.608 225.497 719.967C224.686 720.221 223.959 720.688 223.392 721.321C224.407 723.894 225.861 723.381 228.285 722.48L228.467 721.825C233.696 718.765 227.67 726.217 227.707 729.128C228.68 728.78 229.697 731.331 231.585 727.714L231.187 733.702L234.447 728.428C236.036 729.022 234.119 732.635 237.42 730.291L240.489 725.696L238.08 721.86C240.817 721.476 241.44 717.74 243.996 717.989C238.529 721.686 243.872 721.53 241.27 725.973L244.391 724.289L243.223 725.293C242.778 728.389 245.671 724.398 246.575 725.872C246.727 722.282 247.843 718.403 243.739 720.428C246.859 718.743 251.567 717.661 252.363 717.991C255.125 717.05 253.86 721.254 254.915 722.72C251.022 722.786 246.654 737.356 243.489 730.461C244.166 729.641 244.47 730.129 244.277 730.789C247.434 724.383 240.827 729.062 238.204 730.587C236.283 734.181 234.522 734.25 235.346 737.448C236.093 734.847 242.016 730.951 242.15 735.058L237 742.133L239.254 744.865L238.763 745.035C236.738 750.422 242.366 746.13 242.485 750.171C245.584 748.497 249.598 754.147 252.334 745.038C251.056 750.728 256.445 745.98 259.006 746.287L258.597 741.759C264.887 738.479 261.833 741.268 269.642 734.569C268.541 736.69 267.951 738.65 266.093 740.413C269.675 743.277 273.638 749.049 279.896 744.755C282.358 746.927 276.945 755.629 282.942 754.936C284.427 754.481 286.984 747.843 288.032 751.62C287.822 752.262 281.953 755.24 285.094 756.598C290.904 752.491 287.555 762.828 293.454 759.868C293.401 762.773 296.26 763.659 292.69 767.628C291.271 765.164 287.625 763.964 285.703 765.72C287.845 763.316 285.984 762.142 288.977 761.239C288.075 755.722 285.003 762.461 283.694 758.215C282.286 759.816 281.806 764.044 283.521 762.922C279.363 768.844 275.866 761.836 273.432 770.715C276.106 773.343 285.707 761.667 283.967 769.731C280.364 772.584 280.85 768.38 275.14 773.653L275.623 777.539L280.215 774.382L279.508 775.184C279.486 783.263 287.366 771.553 292.902 771.089C293.848 765.551 300.68 761.239 300.968 757.637C303.824 758.592 304.957 760.627 300.73 766.497C292.991 768.123 296 772.504 287.857 775.481C286.987 778.054 280.758 783.383 282.628 785.766C288.256 783.509 285.363 780.301 289.37 780.295C289.147 781.064 288.752 781.771 288.214 782.365C291.622 780.206 288.818 784.501 292.719 782.213L291.519 783.132C290.747 787.986 296.412 780.559 295.142 785.559C297.696 780.788 298.777 782.777 301.728 780.79C301.357 777.992 305.051 771.147 301.658 769.172C298.783 772.331 297.627 774.4 295.142 775.125L297.47 776.195C296.543 776.565 295.64 776.989 294.763 777.466L294.112 774.249C298.356 773.613 299.887 769.096 303.537 766.305C304.724 769.485 306.11 766.748 306.72 768.922C302.908 773.85 304.811 780.734 305.004 785.854C304.74 785.366 304.139 785.107 303.949 784.768C299.733 786.548 302.152 789.897 301.194 791.316L304.42 789.826C303.902 789.984 302.68 790.888 302.737 792.024C305.269 792.455 308.868 787.432 311.425 787.871C309.502 790.706 304.815 793.725 304.881 796.009C303.474 798.696 299.933 805.974 304.185 805.341C304.592 804.955 305.085 804.67 305.623 804.51C306.161 804.349 306.729 804.317 307.281 804.416C307.063 804.451 306.854 804.531 306.669 804.652L305.986 808.867C301.1 812.448 304.926 804.541 299.993 808.221L296.52 812.572C295.427 811.805 292.564 812.672 290.157 814.473C291.207 816.417 292.423 815.503 294.934 815.918C293.698 817.842 291.906 819.345 289.795 820.225L291.977 817.894C292.592 812.623 285.537 819.789 283.51 816.989C283.251 816.511 283.736 816.365 284.457 815.589C279.085 818.319 281.358 810.816 275.054 814.999L277.448 813.15C274.616 814 268.602 816.358 262.758 818.616L261.462 820.286C261.002 821.572 260.015 820.748 259.977 819.622C257.055 820.745 254.337 821.744 252.149 822.491C251.723 823.826 251.503 825.065 251.832 825.674C253.751 823.912 255.034 827.46 258.07 822.524C257.194 826.206 262.007 823.534 261.564 825.944C262.187 821.794 265.854 822.34 268.013 819.966C266.389 823.306 270.496 821.462 267.393 825.267C266.949 826.518 268.546 822.074 266.15 823.957C261.822 826.435 266.758 829.396 262.162 831.402C266.772 830.528 269.282 834.235 274.653 832.584L274.357 829.874C275.137 831.319 278.581 832.533 277.366 834.58C276.142 834.386 275.146 833.573 273.412 833.539C270.042 837.93 276.131 835.511 274.208 838.334L283.007 833.442L281.753 832.138C284.721 830.095 285.223 835.625 286.925 837.949C281.057 843.003 283.563 835.49 279.367 836.201C275.937 837.238 275.987 842.774 273.301 843.064C272.655 844.77 273.819 845.369 275.48 844.235L275.296 845.766C269.73 850.175 267.472 846.631 261.823 849.816C262.473 849.361 263.073 848.839 263.614 848.258C263.596 844.93 261.871 843.771 259.215 844.092C258.755 846.457 259.978 845.506 260.912 845.212C259.957 846.623 258.001 846.104 256.342 847.217C256.608 849.909 254.201 850.679 254.449 852.269C252.523 852.888 252.045 851.938 251.314 850.508C252.254 847.965 253.935 847.987 255.834 845.157C253.427 845.927 257.702 838.952 253.618 840.824C255.105 843.705 248.624 846.355 246.479 847.622L246.734 848.095C243.659 850.777 242.94 850.455 244.577 847.128C246.492 846.502 246.737 848.1 248.864 844.611C248.425 844.373 247.939 844.233 247.441 844.202C246.942 844.171 246.443 844.25 245.978 844.432L248.347 842.536L244.728 840.92C242.162 843.458 238.373 846.996 234.847 850.935C236.003 847.747 233.354 849.224 231.916 849.728L233.117 848.748C233.497 845.279 228.897 845.191 226.809 847.607C227.408 844.569 245.603 836.106 236.765 833.521C234.038 831.649 229.243 840.614 225.692 842.408C226.067 841.978 226.375 841.493 226.607 840.972C225.841 839.553 223.533 842.631 221.633 843.284C221.45 845.031 222.433 845.796 223.594 844.83C220.812 848.048 221.375 842.819 218.567 844.932C223.463 840.389 217.732 841.311 220.54 839.185C220.6 834.105 215.159 836.594 211.215 839.72C214.26 831.862 207.874 838.66 207.343 833.804C207.601 834.282 209.035 833.745 209.102 834.849C213.529 831.55 207.911 830.783 212.896 828.391C211.937 828.739 211.302 830.656 212.272 830.316C213.481 830.43 215.574 829.117 216.697 827.011L217.149 821.753L218.612 821.221L218.897 813.767C218.306 814.595 217.866 815.521 217.599 816.503C215.336 811.619 209.004 811.678 206.139 808.746C197.396 820.541 194.476 808.507 186.848 814.273C189.883 811.21 194.33 805.269 195.552 802.418C196.491 802.297 200.953 798.145 201.661 800.111C200.592 802.228 200.812 805.576 198.25 807.102C202.928 808.227 201.277 801.397 205.383 797.579C200.425 795.934 193.214 801.542 188.653 802.722L189.531 801.23L185.727 802.68C186.849 804.557 182.246 811.479 181.708 807.678L182.186 807.495C182.895 803.781 178.125 805.616 176.532 803.958L172.67 807.149C171.087 805.473 175.816 797.893 178.077 792.981C175.433 790.534 169.771 795.619 165.338 797.951C166.492 794.03 162.458 790.441 167.388 787.922C162.823 789.131 152.256 807.176 153.758 794.472L156.984 792.052C152.104 789.937 141.809 792.345 141.848 787.704C150.616 777.238 143.537 772.544 149.683 760.739C148.32 763.456 146.092 763.274 144.99 764.5C145.432 762.945 145.602 761.286 143.515 763.213C143.881 766.557 135.069 774.177 141.239 771.681C134.77 778.375 128.876 783.103 125.378 780.432L128.325 775.748L130.398 778.985C132.236 775.326 133.59 776.515 135.189 775.292C131.326 769.29 142.682 764.701 136.688 761.878C134.273 764.606 135.396 763.558 133.195 763.878C134.004 764.12 136.09 760.959 135.019 760.22L131.65 763.342C134.497 754.274 138.04 760.211 139.743 753.661C144.177 751.267 149.178 751.608 152.169 745.17C149.943 740.807 142.055 754.476 140.007 749.475L141.201 746.659C138.821 747.604 136.073 751.625 133.827 753.699C134.654 752.201 134.984 750.903 134.411 749.992C128.505 754.713 126.33 755.032 120.255 760.394C128.69 758.725 122.061 767.825 130.332 766.808C128.263 768.229 123.462 767.266 119.243 773.641L122.184 768.946C118.847 770.306 115.584 771.626 114.263 768.676L117.268 766.864C112.259 768.319 116.619 756.623 109.433 763.046C109.533 763.25 109.672 763.433 109.843 763.584C110.013 763.734 110.212 763.849 110.428 763.922C110.643 763.995 110.871 764.025 111.098 764.009C111.325 763.993 111.546 763.933 111.75 763.831C108.901 764.989 107.225 763.329 106.013 761.499L97.7607 767.189C99.2157 764.856 97.0589 763.374 100.419 760.272C100.068 755.135 94.5976 761.466 92.403 761.762C92.8537 755.168 96.0006 760.886 100.222 754.502C97.9724 750.146 92.9858 749.832 88.3899 752.869C88.6103 754.103 88.3531 755.375 87.6705 756.426C88.466 754.87 86.7918 754.383 86.0165 753.852L83.6019 756.593C83.5221 753.705 84.8047 752.009 87.3474 750.372C86.4337 749.006 81.3166 753.993 82.6753 748.755C87.1096 746.362 87.948 751.296 90.4806 749.678C84.0857 749.948 91.5371 737.519 83.3748 737.908C84.1877 736.398 86.9056 734.13 85.8066 733.414C82.5283 732.971 81.2958 739.336 78.4115 742.263C81.5714 741.569 81.3829 743.998 80.1777 748.59L78.1374 750.743C78.838 749.401 77.639 748.563 78.0124 747.092L74.6125 751.981C78.1682 746.438 78.749 740.928 75.9002 742.085C75.0269 747.13 74.7183 746.658 71.2782 753.332C65.373 758.067 72.3794 745.845 65.9884 750.76C67.2686 749.071 70.2621 749.037 69.2187 746.513C67.8111 745.325 65.3664 749.834 63.4751 750.603C67.4914 746.631 69.2972 742.963 73.9423 738.169C77.0615 739.247 75.0179 738.905 78.956 738.496L79.0744 733.146C81.8781 733.791 84.0248 728.805 85.3183 727.117C84.2225 719.933 78.0045 732.421 76.1755 729.636C72.9831 732.105 78.1684 731.77 74.19 733.964C72.1995 731.823 71.7883 736.692 67.8526 737.093L69.6129 735.214C70.477 731.925 67.5798 734.866 66.3371 734.763C64.4276 735.55 57.6428 751.777 53.1309 749.477C53.8301 748.691 54.4692 747.854 55.0427 746.972L83.1491 710.138C78.726 707.6 74.359 703.444 70.9266 697.738C74.4326 689.325 78.3916 693.593 80.1926 689.941L81.5309 692.923C79.4184 696.099 76.1006 690.983 74.6726 698.016C80.1746 698.154 79.7262 703.03 87.6698 698.64C91.1534 690.199 81.7553 696.934 82.8723 689.438C83.6187 690.582 85.0224 690.279 86.5536 689.697C84.8245 687.256 82.9617 684.643 80.9654 681.857L79.2305 683.357C80.5022 685.323 81.348 686.739 81.3411 687.116C79.3615 684.982 74.7442 688.017 71.1456 693.556L71.4486 694.016L69.5076 695.247L68.4667 693.143ZM-81.9 589.92C-81.282 589.449 -80.7033 588.927 -80.1696 588.362C-80.8398 589.056 -81.132 589.621 -81.9 589.92ZM126.862 702.671C124.166 699.913 121.866 696.419 119.206 693.879C118.01 708.419 116.759 719.224 107.67 713.397L106.554 713.843C106.938 715.949 108.919 717.37 111.376 717.747C115.356 714.751 129.287 703.33 130.006 701.985C131.347 698.548 128.462 701.462 128.009 699.868L126.862 702.671ZM117.824 722.768C118.883 725.107 119.965 722.386 121.594 720.326L119.174 720.004C118.971 721.026 118.506 721.979 117.824 722.768ZM122.831 718.03C122.732 717.938 122.662 717.82 122.627 717.69C122.593 717.559 122.596 717.422 122.637 717.293L122.831 718.03ZM89.316 693.885C89.4309 693.884 89.4887 693.852 89.5877 693.86C89.2618 693.432 88.9411 693.001 88.6038 692.552C88.5794 692.817 88.633 693.082 88.7581 693.316C88.8832 693.55 89.0743 693.742 89.3075 693.869L89.316 693.885ZM89.6901 701.567L92.5893 697.749C92.2803 697.353 91.9714 696.956 91.6511 696.539C90.6559 698.454 89.8221 700.152 89.6816 701.551L89.6901 701.567ZM93.3979 722.125C97.1055 717.681 99.7373 718.974 103.306 713.418C104.337 712.061 104.142 711.196 103.838 710.37L102.026 708.634C101.527 709.411 100.913 710.109 100.205 710.702C100.508 711.855 100.153 713.56 97.7554 716.848C100.443 708.138 92.8001 721.206 91.9287 718.033C88.8611 721.588 91.8297 723.317 93.3894 722.109L93.3979 722.125ZM256.769 805.722L255.028 809.26L251.775 810.975C250.173 808.108 253.645 798.954 246.77 804.103C246.914 801.705 248.837 797.763 250.339 794.463C250.725 795.033 250.969 795.688 251.05 796.372C264.117 790.927 247.055 808.943 256.769 805.722ZM234.931 776.576C235.384 776.322 235.784 775.984 236.11 775.58C223.763 781.905 217.291 781.817 214.547 779.423C212.494 783.829 213.128 788.711 213.295 791.219L209.159 795.033L210.829 790.976L206.15 793.834C204.671 797.278 206.658 797.678 206.142 800.732C206.808 799.917 213.676 796.828 216.493 794.656L215.892 789.709C215.776 791.468 220.044 792.801 222.246 792.582C223.805 790.316 223.673 785.17 220.082 789.917C222.043 786.335 224.895 788.188 225.527 783.362C230.064 781.171 231.444 786.444 231.879 789.161L228.322 795.002C228.542 798.35 234.092 788.95 233.922 793.587C230.664 793.019 230.132 800.077 227.86 799.173C227.045 801.737 223.819 805.174 226.085 806.068C232.832 799.712 224.988 812.142 231.015 806.616C230.432 809.645 226.837 810.35 228.164 812.748C233.152 810.436 234.96 807.54 238.852 802.23C237.718 799.185 231.569 807.592 230.699 805.036L240.614 798.192C240.863 796.415 240.472 795.941 239.809 796.034C240.893 795.992 242.447 795.038 244.271 793.504L247.014 791.345C245.016 789.879 243.308 788.488 244.569 785.948L246.629 783.479C247.563 780.546 245.083 781.633 243.215 783.212C241.171 782.279 236.83 784.731 238.747 781.03L241.09 779.087C238.271 778.301 237.795 778.463 234.91 776.587L234.931 776.576ZM163.312 722.322C158.595 733.18 154.751 742.914 162.351 745.23L161.414 745.594C160.819 753.894 172.936 741.322 172.627 750.757C168.358 753.292 168.67 753.015 161.214 760.269L165.026 758.747C161.087 763.804 164.899 762.282 166.244 763.517L160.895 769.118C161.138 766.701 159.195 764.561 158.35 766.075C159.316 765.69 160.284 755.994 157.144 756.637C154.645 761.134 159.89 761.94 153.627 767.946C157.118 765.967 154.619 770.45 157.279 769.985C153.782 771.954 153.175 775.681 149.986 778.107L153.699 778.362C152.865 779.858 147.628 779.054 146.58 785.849C149.116 784.263 150.308 788.986 153.288 784.324L152.455 785.812C153.909 788.128 157.523 779.739 158.421 784.017C159.926 781.678 160.461 779.74 159.232 779.65C157.805 780.211 155.662 783.368 153.658 783.025C155.226 778.902 155.303 784.689 158.068 777.782C159.429 774.333 152.162 777.815 157.681 771.559L159.148 773.875C162.135 769.202 163.485 770.421 165.81 766.608C168.182 765.674 166.082 771.726 169.944 768.448C172.398 765.766 174.975 759.517 175.624 763.347C172.96 771.359 178.843 773.082 181.297 773.318L184.813 771.372C186.5 768.427 181.467 769.786 184.868 766.709L188.119 767.214L186.782 768.885C187.369 769.823 189.455 768.446 190.879 767.916C187.947 770.767 186.983 768.24 184.245 773.348C184.822 775.072 183.857 776.991 185.543 776.759C184.96 777.005 184.477 777.442 184.177 777.999C185.239 781.639 189.973 774.043 191.578 772.857C198.054 768.086 192.879 765.411 196.383 760.603L205.218 762.442C203.594 763.631 201.977 764.809 200.925 766.944C201.228 770.308 198.543 770.74 201.144 772.077C205.239 765.334 206.895 769.923 211.103 767.21C210.136 770.446 209.969 771.093 208.149 770.033C205.568 774.466 208.999 774.324 209.613 775.261C210.797 774.5 212.039 774.413 213.187 773.8C213.54 772.439 214.224 771.186 215.179 770.153C216.133 769.121 217.328 768.341 218.657 767.882L219.336 767.041C217.589 764.232 216.688 757.018 212.252 760.402L214.081 758.561C213.542 752.949 202.732 762.21 206.606 753.198C208.797 750.055 206.497 752.077 209.526 747.457L205.036 749.71L206.833 747.885L202.483 746.576L203.141 745.76C198.71 748.864 195.139 751.436 192.278 753.577C190.991 755.629 190.702 756.314 189.175 757.443C187.967 758.096 187.42 757.963 187.188 757.444L187.161 757.458C186.636 756.297 187.882 752.999 187.523 751.102L191.266 752.732C193.733 749.447 195.712 745.672 195.555 742.188C196.328 742.489 198.32 739.969 197.722 739.037C197.056 739.878 194.081 739.835 193.143 743.123C189.088 742.361 189.492 729.937 180.41 733.448C186.451 731.693 180.446 727.003 185.297 728.048C185.985 720.75 179.508 732.042 177.219 729.423C178.223 727.273 178.591 730.644 181.693 727.09C178.374 721.934 168.218 731.161 164.718 726.713L167.201 722.238L163.312 722.322ZM150.977 722.284L147.41 722.173C147.472 722.289 147.538 722.348 147.571 722.473L142.806 724.367C143.376 727.057 141.523 732.522 137.9 733.365C139.191 731.671 139.878 729.061 141.303 728.482C141.418 724.926 139.635 720.365 136.474 727.506C143.162 723.041 132.041 736.324 137.13 733.082C133.29 736.64 133.257 733.965 130.942 735.18C134.327 732.315 135.62 726.854 134.848 724.041C133.408 724.629 131.888 722.328 129.527 723.27C127.547 727.596 125.001 729.214 126.518 731.523C125.091 732.11 123.372 732.217 123.289 729.31C124.249 728.941 125.491 729.017 126.31 727.517C127.686 723.266 126.566 722.812 126.957 720.885L125.215 720.712C125.106 721.257 124.938 721.789 124.715 722.299L121.053 724.954C124.199 724.26 120.843 727.381 119.383 729.729C122.281 725.044 118.471 728.342 117.694 728.083L116.132 733.988C113.865 736.073 115.783 728.843 113.159 734.024C115.108 737.912 116.833 737.788 120.583 738.024L121.78 733.442C126.655 732.643 119.721 741.304 123.435 743.296C127.092 740.644 128.978 746.336 133.376 739.288C131.616 741.181 131.756 746.947 134.949 744.504C140.26 738.856 144.906 740.487 145.474 736.788C144.381 736.021 140.74 738.664 142.421 733.91L145.399 733.884L146.14 729.487C146.112 731.171 148.148 727.677 150.977 722.284ZM126.612 653.034L126.583 652.893C126.598 652.928 126.626 652.957 126.661 652.973L126.612 653.034Z" fill="#F49C83"/>
<path d="M297.36 814.017C299.101 812.942 300.351 814.316 302.538 810.863C299.871 814.433 299.514 809.435 297.36 814.017Z" fill="#F49C83"/>
<path d="M296.445 818.82C297.19 818.051 298.156 816.635 298.897 817.015L296.432 816.533L296.445 818.82Z" fill="#F49C83"/>
<path d="M279.654 844.478C282.569 842.525 284.275 841.475 285.485 842.811C279.34 851.853 281.353 843.439 274.538 851.026C276.42 853.809 283.015 846.871 285.68 847.787C287.44 843.39 284.772 837.957 279.654 844.478Z" fill="#F49C83"/>
<path d="M270.169 854.544L273.06 853.689L273.307 853.067L270.42 853.927L270.169 854.544Z" fill="#F49C83"/>
<path d="M293.875 754.49C295.711 751.606 292.783 753.661 291.788 753.968C292.087 754.445 292.165 755.596 293.875 754.49Z" fill="#F49C83"/>
<path d="M241.612 745.79C246.585 745.236 251.265 741.299 255.384 742.244C254.853 733.642 243.754 747.381 244.024 739.108L241.612 745.79Z" fill="#F49C83"/>
<path d="M257.729 723.861C254.702 729.565 251.082 728.466 248.942 732.721C251.984 732.864 253.345 728.309 254.985 730.091L257.729 723.861Z" fill="#F49C83"/>
<path d="M213.029 821.574L210.235 823.727L211.659 823.209L213.029 821.574Z" fill="#F49C83"/>
<path d="M239.769 718.92L240.919 717.933L240.384 715.182L239.769 718.92Z" fill="#F49C83"/>
<path d="M242.079 716.926L240.92 717.932L242.079 716.926Z" fill="#F49C83"/>
<path d="M204.135 832.196L204.725 834.232L207.051 832.244L204.135 832.196Z" fill="#F49C83"/>
<path d="M211.132 795.473L213.512 794.589C213.047 794.758 212.798 791.419 211.132 795.473Z" fill="#F49C83"/>
<path d="M231.264 710.226L228.342 711.274L228.159 711.915L231.081 710.868L231.264 710.226Z" fill="#F49C83"/>
<path d="M191.71 803.847C189.877 808.534 188.489 803.36 187.883 808.158C189.877 808.534 190.646 805.961 191.71 803.847Z" fill="#F49C83"/>
<path d="M191.302 763.847C191.095 763.714 190.78 763.722 190.277 764.047C190.626 764.025 190.97 763.958 191.302 763.847Z" fill="#F49C83"/>
<path d="M191.301 763.847C191.974 764.277 191.634 766.3 192.864 765.398C193.21 762.946 192.448 763.458 191.301 763.847Z" fill="#F49C83"/>
<path d="M182.927 759.872L183.355 760.55C181.428 762.221 181.916 762.107 183.523 760.799C184.269 761.075 185.062 759.717 185.709 758.866L187.133 757.493L185.644 758.67C184.653 758.004 183.91 757.821 182.927 759.872Z" fill="#F49C83"/>
<path d="M197.462 671.031C198.832 674.023 198.969 675.143 196.835 678.33C198.404 680.72 201.518 674.9 203.656 674.411C200.766 673.508 201.168 671.676 197.462 671.031Z" fill="#F49C83"/>
<path d="M203.653 674.406C203.995 674.521 204.343 674.616 204.696 674.692C204.567 674.551 204.4 674.449 204.216 674.398C204.031 674.348 203.836 674.351 203.653 674.406Z" fill="#F49C83"/>
<path d="M169.491 800.946L164.973 805.02L165.916 804.654L169.491 800.946Z" fill="#F49C83"/>
<path d="M195.006 667.274C195.312 667.74 196.099 668.041 195.753 669.347C197.886 666.147 194.701 666.808 195.006 667.274Z" fill="#F49C83"/>
<path d="M164.619 736.712C163.623 738.851 165.823 738.566 165.942 739.703C165.348 738.754 168.357 732.3 164.619 736.712Z" fill="#F49C83"/>
<path d="M180.079 676.661C180.382 677.135 179.705 679.739 177.759 682.269C179.364 681.056 183.741 675.804 180.079 676.661Z" fill="#F49C83"/>
<path d="M160.781 733.56L160.429 734.869L163.284 733.735L160.781 733.56Z" fill="#F49C83"/>
<path d="M136.692 785.14C140.819 782.329 139.734 774.047 144.746 772.61C143.387 766.145 141.655 778.296 139.181 775.913C140.056 778.249 137.829 783.678 136.692 785.14Z" fill="#F49C83"/>
<path d="M139.207 775.898C139.107 775.566 138.901 775.277 138.62 775.075C138.774 775.377 138.972 775.654 139.207 775.898Z" fill="#F49C83"/>
<path d="M129.552 736.114C130.052 735.844 130.521 735.52 130.951 735.148C130.447 735.412 129.977 735.736 129.552 736.114Z" fill="#F49C83"/>
<path d="M128.064 773.555L134.274 769.273C130.134 772.098 125.875 769.172 122.587 775.161C123.29 777.217 125.954 776.735 128.191 774.632L128.064 773.555Z" fill="#F49C83"/>
<path d="M162.006 649.16L164.56 647.544L163.531 645.99C163.414 647.118 160.072 650.957 162.006 649.16Z" fill="#F49C83"/>
<path d="M163.332 645.697L163.531 645.99C163.574 645.831 163.508 645.697 163.332 645.697Z" fill="#F49C83"/>
<path d="M136.278 736.356C136.881 737.286 137.659 737.545 139.073 736.985C139.422 735.684 137.947 733.339 136.278 736.356Z" fill="#F49C83"/>
<path d="M148.746 652.75L151.256 652.901L148.917 652.074L148.746 652.75Z" fill="#F49C83"/>
<path d="M145.943 637.476L146.285 636.172L143.454 637.327L143.118 638.628L145.943 637.476Z" fill="#F49C83"/>
<path d="M87.9028 759.509C88.8015 760.911 92.9756 756.263 93.3139 754.954L90.6822 753.66C88.538 758.637 91.4492 753.925 92.1892 755.975L87.9028 759.509Z" fill="#F49C83"/>
<path d="M76.3622 606.608C78.7967 603.903 80.3322 607.301 78.6571 610.282C77.5247 611.314 75.3175 611.636 75.085 614.021L81.8427 607.85C81.7088 614.239 73.6037 616.368 70.5683 618.135C72.8044 620.87 76.7114 616.482 79.7069 618.386C79.2358 617.161 79.8231 614.931 80.3708 613.054C83.5487 607.73 84.8916 611.802 87.1509 612.631C87.3002 609.552 89.2337 608.081 91.4469 606.588C91.782 606.471 92.0793 606.266 92.3072 605.994L93.0782 605.449L92.8334 605.31C93.3182 604.55 93.7235 603.743 94.0429 602.9C91.4162 603.388 92.8647 598.203 91.8502 597.455C87.5788 606.674 86.9388 597.154 83.9547 598.941L81.851 598.815L81.2522 598.46C81.7198 597.441 82.6185 596.365 84.5761 595.241C82.7739 596.465 80.6843 594.315 79.1749 597.213L73.4819 593.793C73.5423 593.211 73.6789 592.64 73.8882 592.094C73.4383 592.438 73.0643 592.87 72.79 593.366L48.27 578.369C48.986 579.821 48.7783 582.403 49.4068 584.133C43.8952 588.553 50.7694 586.444 46.776 591.401C44.6904 592.792 43.8536 591.405 43.9695 589.646C41.9324 592.157 41.4449 595.188 39.2345 598.308C40.1392 603.655 48.9314 591.134 50.6689 595.006C48.4779 598.15 45.7349 600.383 47.9832 601.205L47.0357 601.574C52.5049 599.979 44.8077 610.443 52.4859 602.873L49.4465 607.499C53.1374 604.909 55.9387 606.668 57.9164 607.039L57.2509 607.879C65.0632 605.359 60.4256 608.344 66.8177 609.263L61.074 613.266C61.3551 616.615 65.5152 610.923 66.3654 612.309C65.7108 613.158 63.8414 616.759 62.1273 616.876L73.4679 612.37C77.139 609.744 75.3284 608.74 76.3622 606.608Z" fill="#F49C83"/>
<path d="M79.7069 618.387C79.7697 618.616 79.8997 618.822 80.0802 618.977C80.2607 619.132 80.4835 619.23 80.7199 619.258C80.4347 618.912 80.092 618.617 79.7069 618.387Z" fill="#F49C83"/>
<path d="M46.5869 577.351L48.2738 578.414C48.1298 578.09 47.8925 577.815 47.5921 577.626C47.2918 577.437 46.9419 577.341 46.5869 577.351Z" fill="#F49C83"/>
<path d="M94.7963 613.56C95.2473 610.474 97.6862 610.643 98.985 608.952L95.1691 606.696C94.0613 608.515 92.4319 610.311 91.4862 612.015L94.7963 613.56Z" fill="#F49C83"/>
<path d="M96.1951 602.601C95.3064 603.702 94.2556 604.663 93.0786 605.45L95.1693 606.696C95.9892 605.324 96.5337 603.944 96.1951 602.601Z" fill="#F49C83"/>
<path d="M36.6954 699.53L35.9042 699.258L33.9854 700.002L36.6954 699.53Z" fill="#F49C83"/>
<path d="M30.8252 684.821C29.9389 688.081 32.8028 686.976 33.7721 686.622C31.9065 685.567 33.337 685.012 30.8252 684.821Z" fill="#F49C83"/>
<path d="M14.7151 715.587L11.9856 716.036L11.8079 716.674L14.7151 715.587Z" fill="#F49C83"/>
<path d="M22.1649 587.222L21.1748 586.996C21.3131 587.104 21.4736 587.18 21.6447 587.219C21.8158 587.258 21.9935 587.259 22.1649 587.222Z" fill="#F49C83"/>
<path d="M39.0516 592.138C38.5864 584.362 44.419 589.512 47.551 582.041L44.0099 582.846L45.3577 581.183L42.4212 580.054C40.9357 583.461 41.2115 583.909 38.9882 587.043C36.3983 583.501 40.4067 582.518 40.5728 576.818L36.3734 574.857L37.325 574.106C36.9625 573.963 36.5499 574.267 36.0939 574.716L21.9055 568.127C17.9084 569.042 19.2958 574.705 14.4412 578.18C17.1693 579.992 18.968 586.077 23.4653 579.891C22.7884 580.711 21.4054 582.36 21.4745 583.455L26.5602 579.34L26.1774 576.67C31.2594 572.522 35.5442 577.042 34.3302 580.927C30.2463 580.777 27.4994 588.006 25.735 581.909C24.8354 583.636 23.6843 586.971 22.1669 587.227C28.1655 588.549 30.5365 594.312 39.0516 592.138Z" fill="#F49C83"/>
<path d="M2.62104 558.404C-0.471037 558.961 -3.97342 564.074 -4.60933 567.056C-7.95999 568.227 -1.64368 561.012 -6.58298 565.537C-9.13694 569.202 -5.54156 568.509 -4.59566 568.175L2.62104 558.404Z" fill="#F49C83"/>
<path d="M14.1534 570.432L12.1887 572.184L13.0648 573.632L14.1534 570.432Z" fill="#F49C83"/>
<path d="M12.1836 572.173L11.3184 570.734C10.402 572.163 9.56808 573.644 8.8206 575.169L12.1836 572.173Z" fill="#F49C83"/>
<path d="M9.05848 566.987C8.79639 566.209 8.36445 565.499 7.79395 564.908L9.05848 566.987Z" fill="#F49C83"/>
<path d="M9.59229 569.284L10.0142 568.595L9.06106 566.992C9.28769 567.744 9.46514 568.509 9.59229 569.284Z" fill="#F49C83"/>
<path d="M11.3242 570.745C13.5829 567.036 15.9369 563.126 13.4522 562.859L10.0147 568.595L11.3242 570.745Z" fill="#F49C83"/>
<path d="M5.40155 702.064L2.50407 703.119L2.31146 703.793L5.21136 702.73L5.40155 702.064Z" fill="#F49C83"/>
<path d="M-24.4488 713.392C-23.9604 708.515 -18.7091 710.199 -21.1538 706.349C-19.2577 702.747 -14.7948 699.389 -14.2574 702.131C-16.4541 705.264 -17.1768 703.171 -18.2852 707.101C-14.8002 704.08 -16.019 706.875 -13.2824 701.788C-9.52808 699.945 -7.11045 696.618 -3.84793 694.253C-7.42347 694.982 -8.81763 687.057 -15.6196 691.475C-20.9262 696.3 -25.134 704.82 -30.5801 713.208C-31.6225 715.324 -28.1805 718.86 -24.4488 713.392Z" fill="#F49C83"/>
<path d="M5.31259 561.329C6.92056 559.104 5.02919 559.785 4.08329 560.12C4.3381 560.579 4.36228 561.692 5.31259 561.329Z" fill="#F49C83"/>
</g>
<path d="M1358.64 226.825C1399.01 181.223 1437.51 146.847 1490.88 105.986C1544.25 65.1263 1612.42 17.3941 1666.1 28.3892C1720.25 39.6975 1759.92 109.733 1791.85 177.234C1823.78 244.735 1847.58 309.777 1843.29 375.396C1838.61 441.09 1805.38 507.049 1753.77 540.326C1701.78 573.678 1631.41 574.347 1554.85 582.646C1478.36 591.333 1396.08 607.575 1341.31 576.265C1286.92 544.881 1260.43 465.869 1268.3 397.95C1275.71 329.717 1318.27 272.427 1358.64 226.825Z" fill="#F49C83"/>
<defs>
<clipPath id="clip0_366_1156">
<rect width="333" height="259" fill="white" transform="translate(602 56)"/>
</clipPath>
<clipPath id="clip1_366_1156">
<rect width="289" height="422" fill="white" transform="translate(-109 581.269) rotate(-28.358)"/>
</clipPath>
</defs>
</svg>
