<svg preserveAspectRatio="none" viewBox="0 0 390 602" fill="none" xmlns="http://www.w3.org/2000/svg">
<path d="M-17.4277 556.305C-3.64347 541.94 17.035 530.043 30.2031 514.418C48.764 492.347 34.8185 464.135 16.4229 447.011C-2.07189 429.798 -22.4526 422.248 -47.6059 422.483C-67.0147 422.718 -87.8089 427.054 -106.941 422.237C-127.458 417.054 -138.918 403.264 -151.693 387.348C-170.213 364.243 -210.225 327.744 -241.032 339.767V599.762H-24.1896C-32.2252 583.838 -26.4973 565.753 -17.4277 556.305Z" fill="#CC8ABA"/>
<g clip-path="url(#clip0_366_152)">
<path fill-rule="evenodd" clip-rule="evenodd" d="M391.568 452.352C400.251 455.092 408.045 456.592 415.124 460.005C422.907 463.832 426.242 472.239 423.775 481.35C421.52 489.635 418.666 498.169 414.383 505.272C412.228 508.839 406.097 511.78 402.12 511.229C389.577 509.761 379.311 503.279 374.202 489.269C372.894 485.686 371.068 482.32 369.511 478.843C366.625 472.281 367.118 465.322 372.338 461.824C378.538 457.615 385.644 455.161 391.568 452.352Z" fill="#D84592"/>
<path fill-rule="evenodd" clip-rule="evenodd" d="M410.654 601.957C406.784 601.544 402.675 601.798 399.069 600.473C390.169 597.139 386.119 582.377 391.906 572.513C398.339 561.647 405.487 551.386 418.426 548.624C427.125 546.901 434.136 549.403 439.69 556.304C444.603 562.358 442.702 569.524 439.933 576.229C438.927 578.641 437.99 581.079 437.01 583.506C430.784 599 425.754 602.461 410.654 601.957Z" fill="#D84592"/>
<path fill-rule="evenodd" clip-rule="evenodd" d="M288 451.833C289.848 443.718 290.997 436.08 293.348 429.041C295.333 423.109 300.495 419.5 305.885 420.295C309.84 421.016 313.711 424.646 316.908 427.874C320.106 431.102 322.351 435.475 325.12 439.196C330.288 446.198 333.449 453.995 329.811 462.863C325.872 472.404 319.953 480.381 310.274 483.063C303.169 484.892 291.78 475.812 289.89 466.96C288.778 461.861 288.529 456.418 288 451.833Z" fill="#D84592"/>
<path fill-rule="evenodd" clip-rule="evenodd" d="M355.851 540.785C355.321 544.84 355.295 546.87 354.792 548.63C351.895 559.39 333.253 567.982 322.442 563.832C312.911 560.015 307.993 545.556 313.065 533.534C315.837 527.033 319.509 520.954 323.972 515.476C331.871 505.887 343.334 508.887 347.416 521.046C348.39 524.004 350.233 526.49 351.414 529.251C353.209 533.582 354.776 538.018 355.851 540.785Z" fill="#D84592"/>
<path fill-rule="evenodd" clip-rule="evenodd" d="M380.655 401.159C380.724 414.358 364.935 427.747 354.907 424.349C348.554 422.192 344.768 417.299 344.196 410.064C343.736 404.414 342.375 399.993 338.584 395.97C334.195 391.237 334.481 382.422 338.187 376.989C341.967 371.45 348.294 369.515 354.028 372.463C359.323 375.33 364.618 378.251 369.515 381.828C372.584 384.126 375.154 387.025 377.069 390.348C378.984 393.671 380.204 397.35 380.655 401.159Z" fill="#D84592"/>
</g>
<path d="M-102.821 175.148C-71.6475 139.936 -41.9161 113.391 -0.705144 81.8403C40.5058 50.2894 93.1386 13.432 134.592 21.9221C176.402 30.654 207.034 84.7334 231.689 136.856C256.343 188.978 274.722 239.201 271.411 289.87C267.8 340.597 242.141 391.529 202.291 417.224C162.142 442.977 107.802 443.494 48.685 449.902C-10.3739 456.61 -73.9093 469.152 -116.205 444.976C-158.2 420.741 -178.655 359.731 -172.575 307.285C-166.853 254.598 -133.995 210.36 -102.821 175.148Z" fill="#F9E0D0"/>
<defs>
<clipPath id="clip0_366_152">
<rect width="297" height="231" fill="white" transform="translate(288 371)"/>
</clipPath>
</defs>
</svg>
