<svg width="623" height="1017" viewBox="0 0 623 1017" fill="none" xmlns="http://www.w3.org/2000/svg">
<g clip-path="url(#clip0_444_742)">
<path d="M213.493 719.815C271.169 753.948 337.951 767.291 373.131 834.766C391.696 870.645 402.98 913.378 427.64 944.799C456.912 982.021 500.937 1003.83 544.523 1011.73C590.821 1020.19 636.983 1017.37 683.007 1011.11V519H146.935C131.719 594.344 151.084 682.937 213.493 719.815Z" fill="#D84592"/>
</g>
<g clip-path="url(#clip1_444_742)">
<path d="M136.354 587.15C103.025 548.62 53.0276 516.71 21.1891 474.8C-23.689 415.6 10.0296 339.93 54.5076 294C99.2256 247.83 148.503 227.58 209.321 228.21C256.249 228.84 306.526 240.47 352.784 227.55C402.392 213.65 430.101 176.66 460.99 133.97C505.768 71.9999 602.513 -25.9001 677 6.3499V703.71H152.703C172.132 661 158.283 612.49 136.354 587.15Z" fill="#D84592"/>
<path d="M136.354 587.15C103.025 548.62 53.0276 516.71 21.1891 474.8C-23.689 415.6 10.0296 339.93 54.5076 294C99.2256 247.83 148.503 227.58 209.321 228.21C256.249 228.84 306.526 240.47 352.784 227.55C402.392 213.65 430.101 176.66 460.99 133.97C505.768 72.0001 602.513 -25.8999 677 6.35014V703.71H152.703C172.132 661 158.283 612.49 136.354 587.15Z" fill="#D84592"/>
</g>
<defs>
<clipPath id="clip0_444_742">
<rect width="541" height="498" fill="white" transform="translate(142 519)"/>
</clipPath>
<clipPath id="clip1_444_742">
<rect width="677" height="660" fill="white" transform="matrix(-1 0 0 1 677 0)"/>
</clipPath>
</defs>
</svg>
